<svg xmlns="http://www.w3.org/2000/svg" xmlns:xlink="http://www.w3.org/1999/xlink" id="body_9" preserveAspectRatio="xMinYMin meet" viewBox="0 0 793 1121"><defs><clipPath id="1"><path d="M0 841L0 -0.9199829L0 -0.9199829L595.32 -0.9199829L595.32 -0.9199829L595.32 841L595.32 841L0 841z" /></clipPath><clipPath id="2"><path d="M36.48 54.64001L180.48 54.64001L180.48 54.64001L180.48 36.88L180.48 36.88L36.48 36.88z" /></clipPath><clipPath id="3"><path d="M36.48 54.64001L180.48 54.64001L180.48 54.64001L180.48 36.88L180.48 36.88L36.48 36.88z" /></clipPath><clipPath id="4"><path d="M96.96 33.64001L236.76 33.64001L236.76 33.64001L236.76 18.64001L236.76 18.64001L96.96 18.64001z" /></clipPath><clipPath id="5"><path d="M96.96 33.64001L236.76 33.64001L236.76 33.64001L236.76 18.64001L236.76 18.64001L96.96 18.64001z" /></clipPath><clipPath id="6"><path d="M96.96 33.64001L236.76 33.64001L236.76 33.64001L236.76 18.64001L236.76 18.64001L96.96 18.64001z" /></clipPath><clipPath id="7"><path d="M66.6 844.96L299.4 844.96L299.4 844.96L299.4 810.64L299.4 810.64L66.6 810.64z" /></clipPath><clipPath id="8"><path d="M483.96 252.52L549.48 252.52L549.48 252.52L549.48 234.76L549.48 234.76L483.96 234.76z" /></clipPath><clipPath id="9"><path d="M109.8 220.24L169.92 220.24L169.92 220.24L169.92 162.04L169.92 162.04L109.8 162.04z" /></clipPath><clipPath id="10"><path d="M109.8 220.24L169.92 220.24L169.92 220.24L169.92 162.04L169.92 162.04L109.8 162.04z" /></clipPath><clipPath id="11"><path d="M194.52 236.08L264.48 236.08L264.48 236.08L264.48 152.32L264.48 152.32L194.52 152.32z" /></clipPath><clipPath id="12"><path d="M194.52 236.08L264.48 236.08L264.48 236.08L264.48 152.32L264.48 152.32L194.52 152.32z" /></clipPath><clipPath id="13"><path d="M194.52 236.08L264.48 236.08L264.48 236.08L264.48 152.32L264.48 152.32L194.52 152.32z" /></clipPath><clipPath id="14"><path d="M282.24 220.24L331.92 220.24L331.92 220.24L331.92 159.76L331.92 159.76L282.24 159.76z" /></clipPath><clipPath id="15"><path d="M348.96 209.8L478.92 209.8L478.92 209.8L478.92 159.76L478.92 159.76L348.96 159.76z" /></clipPath><clipPath id="16"><path d="M348.96 209.8L478.92 209.8L478.92 209.8L478.92 159.76L478.92 159.76L348.96 159.76z" /></clipPath><clipPath id="17"><path d="M59.52 236.8L107.76 236.8L107.76 236.8L107.76 222.76L107.76 222.76L59.52 222.76z" /></clipPath><clipPath id="18"><path d="M59.52 260.08L107.76 260.08L107.76 260.08L107.76 246.04L107.76 246.04L59.52 246.04z" /></clipPath></defs><g transform="matrix(1.333333 0 0 1.333333 0 0)"><g><g clip-path="url(#1)"><path transform="matrix(1 0 0 -1 0 841)" d="M31.2 26.132C 31.2 28.765 33.334 30.899 35.967 30.899L35.967 30.899L64.383 30.899C 67.016 30.899 69.15 28.765 69.15 26.132L69.15 26.132L69.15 7.0658C 69.15 4.4332 67.016 2.2991 64.383 2.2991L64.383 2.2991L35.967 2.2991C 33.334 2.2991 31.2 4.4332 31.2 7.0658z" stroke="#A6A6A6" stroke-width="1" stroke-dasharray="3,1" fill="none" /><path transform="matrix(1 0 0 -1 0 841)" d="M39.7 58.549C 39.7 63.713 43.886 67.899 49.05 67.899L49.05 67.899L290.6 67.899C 295.76 67.899 299.95 63.713 299.95 58.549L299.95 58.549L299.95 21.149C 299.95 15.985 295.76 11.799 290.6 11.799L290.6 11.799L49.05 11.799C 43.886 11.799 39.7 15.985 39.7 21.149z" stroke="#A6A6A6" stroke-width="1" stroke-dasharray="3,1" fill="none" /><path transform="matrix(1 0 0 -1 0 841)" d="M39.7 802.87C 39.7 805.63 41.939 807.87 44.7 807.87L44.7 807.87L261.15 807.87C 263.91 807.87 266.15 805.63 266.15 802.87L266.15 802.87L266.15 782.87C 266.15 780.11 263.91 777.87 261.15 777.87L261.15 777.87L44.7 777.87C 41.939 777.87 39.7 780.11 39.7 782.87z" stroke="#A6A6A6" stroke-width="1" stroke-dasharray="3,1" fill="none" /><path transform="matrix(1 0 0 -1 0 841)" d="M223.55 818.79C 223.55 824.11 227.86 828.42 233.18 828.42L233.18 828.42L308.42 828.42C 313.74 828.42 318.05 824.11 318.05 818.79L318.05 818.79L318.05 780.3C 318.05 774.98 313.74 770.67 308.42 770.67L308.42 770.67L233.18 770.67C 227.86 770.67 223.55 774.98 223.55 780.3z" stroke="none" fill="#FFFFFF" fill-rule="evenodd" /><path transform="matrix(1 0 0 -1 0 841)" d="M223.55 818.79C 223.55 824.11 227.86 828.42 233.18 828.42L233.18 828.42L308.42 828.42C 313.74 828.42 318.05 824.11 318.05 818.79L318.05 818.79L318.05 780.3C 318.05 774.98 313.74 770.67 308.42 770.67L308.42 770.67L233.18 770.67C 227.86 770.67 223.55 774.98 223.55 780.3z" stroke="#FFFFFF" stroke-width="2" fill="none" /><path transform="matrix(1 0 0 -1 0 841)" d="M15.75 782.85C 15.75 785.01 17.507 786.77 19.675 786.77L19.675 786.77L248.82 786.77C 250.99 786.77 252.75 785.01 252.75 782.85L252.75 782.85L252.75 767.15C 252.75 764.98 250.99 763.22 248.82 763.22L248.82 763.22L19.675 763.22C 17.507 763.22 15.75 764.98 15.75 767.15z" stroke="none" fill="#FFFFFF" fill-rule="evenodd" /><path transform="matrix(1 0 0 -1 0 841)" d="M15.75 782.85C 15.75 785.01 17.507 786.77 19.675 786.77L19.675 786.77L248.82 786.77C 250.99 786.77 252.75 785.01 252.75 782.85L252.75 782.85L252.75 767.15C 252.75 764.98 250.99 763.22 248.82 763.22L248.82 763.22L19.675 763.22C 17.507 763.22 15.75 764.98 15.75 767.15z" stroke="#FFFFFF" stroke-width="2" fill="none" /><g transform="matrix(0.3603 0 0 0.362449 36.48 36.88)"><g transform="matrix(1 0 0 1 0 0)"><image x="0" y="0" xlink:href="img_15.png" width="400" height="49" /></g></g><g clip-path="url(#2)"></g><g clip-path="url(#3)"></g><g transform="matrix(0.3603093 0 0 0.3658536 96.96 18.64001)"><g transform="matrix(1 0 0 1 0 0)"><image x="0" y="0" xlink:href="img_16.png" width="388" height="41" /></g></g><g clip-path="url(#4)"></g><g clip-path="url(#5)"></g><g clip-path="url(#6)"></g><path transform="matrix(1 0 0 -1 0 841)" d="M291 49.149C 291 53.843 294.81 57.649 299.5 57.649L299.5 57.649L339.45 57.649C 344.14 57.649 347.95 53.843 347.95 49.149L347.95 49.149L347.95 15.149C 347.95 10.455 344.14 6.649 339.45 6.649L339.45 6.649L299.5 6.649C 294.81 6.649 291 10.455 291 15.149z" stroke="none" fill="#FFFFFF" fill-rule="evenodd" /><path transform="matrix(1 0 0 -1 0 841)" d="M291 49.149C 291 53.843 294.81 57.649 299.5 57.649L299.5 57.649L339.45 57.649C 344.14 57.649 347.95 53.843 347.95 49.149L347.95 49.149L347.95 15.149C 347.95 10.455 344.14 6.649 339.45 6.649L339.45 6.649L299.5 6.649C 294.81 6.649 291 10.455 291 15.149z" stroke="#FFFFFF" stroke-width="2" fill="none" /><path transform="matrix(1 0 0 -1 0 841)" d="M27.75 75.091C 27.75 76.918 29.231 78.399 31.058 78.399L31.058 78.399L306.44 78.399C 308.27 78.399 309.75 76.918 309.75 75.091L309.75 75.091L309.75 61.857C 309.75 60.03 308.27 58.549 306.44 58.549L306.44 58.549L31.058 58.549C 29.231 58.549 27.75 60.03 27.75 61.857z" stroke="none" fill="#FFFFFF" fill-rule="evenodd" /><path transform="matrix(1 0 0 -1 0 841)" d="M27.75 75.091C 27.75 76.918 29.231 78.399 31.058 78.399L31.058 78.399L306.44 78.399C 308.27 78.399 309.75 76.918 309.75 75.091L309.75 75.091L309.75 61.857C 309.75 60.03 308.27 58.549 306.44 58.549L306.44 58.549L31.058 58.549C 29.231 58.549 27.75 60.03 27.75 61.857z" stroke="#FFFFFF" stroke-width="2" fill="none" /><path transform="matrix(1 0 0 -1 0 841)" d="M36.05 6.5239C 36.05 8.1118 37.337 9.399 38.925 9.399L38.925 9.399L102.88 9.399C 104.46 9.399 105.75 8.1118 105.75 6.5239L105.75 6.5239L105.75 -4.976C 105.75 -6.5638 104.46 -7.851 102.88 -7.851L102.88 -7.851L38.925 -7.851C 37.337 -7.851 36.05 -6.5638 36.05 -4.976z" stroke="none" fill="#FFFFFF" fill-rule="evenodd" /><path transform="matrix(1 0 0 -1 0 841)" d="M36.05 6.5239C 36.05 8.1118 37.337 9.399 38.925 9.399L38.925 9.399L102.88 9.399C 104.46 9.399 105.75 8.1118 105.75 6.5239L105.75 6.5239L105.75 -4.976C 105.75 -6.5638 104.46 -7.851 102.88 -7.851L102.88 -7.851L38.925 -7.851C 37.337 -7.851 36.05 -6.5638 36.05 -4.976z" stroke="#FFFFFF" stroke-width="2" fill="none" /><path transform="matrix(1 0 0 -1 0 841)" d="M36.342 46.099C 37.644 46.099 38.7 45.043 38.7 43.741L38.7 43.741L38.7 -8.4926C 38.7 -9.795 37.644 -10.851 36.342 -10.851L36.342 -10.851L26.908 -10.851C 25.606 -10.851 24.55 -9.795 24.55 -8.4926L24.55 -8.4926L24.55 43.741C 24.55 45.043 25.606 46.099 26.908 46.099z" stroke="none" fill="#FFFFFF" fill-rule="evenodd" /><path transform="matrix(1 0 0 -1 0 841)" d="M36.342 46.099C 37.644 46.099 38.7 45.043 38.7 43.741L38.7 43.741L38.7 -8.4926C 38.7 -9.795 37.644 -10.851 36.342 -10.851L36.342 -10.851L26.908 -10.851C 25.606 -10.851 24.55 -9.795 24.55 -8.4926L24.55 -8.4926L24.55 43.741C 24.55 45.043 25.606 46.099 26.908 46.099z" stroke="#FFFFFF" stroke-width="2" fill="none" /><g transform="matrix(0.3603715 0 0 0.3612632 66.6 810.64)"><g transform="matrix(1 0 0 1 0 0)"><image x="0" y="0" xlink:href="img_17.png" width="646" height="95" /></g></g><g clip-path="url(#7)"><g transform="matrix(0.120049 0 0 0.12 73.824 812.656)"><g transform="matrix(1 0 0 1 0 0)"><image x="0" y="0" xlink:href="img_18.png" width="1838" height="111" /></g></g></g><g transform="matrix(0.36 0 0 0.3617647 59.64 229.96)"><g transform="matrix(1 0 0 1 0 0)"><image x="0" y="0" xlink:href="img_27.png" width="1229" height="68" /></g></g><path transform="matrix(1 0 0 -1 0 841)" d="M482.27 604.68L489.75 600.32L489.75 600.32L482.27 595.96C 481.8 595.68 481.18 595.84 480.91 596.32C 480.63 596.79 480.79 597.41 481.27 597.68L481.27 597.68L487.27 601.18L487.27 601.18L487.27 599.46L487.27 599.46L481.27 602.96C 480.79 603.23 480.63 603.85 480.91 604.32C 481.18 604.8 481.8 604.96 482.27 604.68zM63 601.32L487.78 601.32L487.78 601.32L487.78 599.32L487.78 599.32L63 599.32z" stroke="none" fill="#A6A6A6" fill-rule="winding" /><g transform="matrix(0.36 0 0 0.3595572 103.68 147.4)"><g transform="matrix(1 0 0 1 0 0)"><image x="0" y="0" xlink:href="img_28.png" width="24" height="271" /></g></g><path transform="matrix(1 0 0 -1 0 841)" d="M108 601.07L108 691.82" stroke="#A6A6A6" stroke-width="2" fill="none" /><g transform="matrix(0.36 0 0 0.3595572 178.68 147.4)"><g transform="matrix(1 0 0 1 0 0)"><image x="0" y="0" xlink:href="img_28.png" width="24" height="271" /></g></g><path transform="matrix(1 0 0 -1 0 841)" d="M183 601.07L183 691.82" stroke="#A6A6A6" stroke-width="2" fill="none" /><g transform="matrix(0.365 0 0 0.3595605 266.4 146.6801)"><g transform="matrix(1 0 0 1 0 0)"><image x="0" y="0" xlink:href="img_29.png" width="24" height="273" /></g></g><path transform="matrix(1 0 0 -1 0 841)" d="M270.75 601.07L270.75 692.57" stroke="#A6A6A6" stroke-width="2" fill="none" /><g transform="matrix(0.36 0 0 0.3648979 483.96 234.76)"><g transform="matrix(1 0 0 1 0 0)"><image x="0" y="0" xlink:href="img_30.png" width="182" height="49" /></g></g><g clip-path="url(#8)"><g transform="matrix(0.1201373 0 0 0.12 495.82 236.7)"><g transform="matrix(1 0 0 1 0 0)"><image x="0" y="0" xlink:href="img_31.png" width="437" height="111" /></g></g></g><path transform="matrix(1 0 0 -1 0 841)" d="M109.5 616.82L170.25 616.82L170.25 616.82L170.25 682.82L170.25 682.82L109.5 682.82z" stroke="none" fill="#FFFFFF" fill-rule="evenodd" /><g transform="matrix(0.3607186 0 0 0.362236 109.8 162.04)"><g transform="matrix(1 0 0 1 0 0)"><image x="0" y="0" xlink:href="img_32.png" width="167" height="161" /></g></g><g clip-path="url(#9)"><g transform="matrix(0.1201373 0 0 0.12 117.02 163.86)"><g transform="matrix(1 0 0 1 0 0)"><image x="0" y="0" xlink:href="img_33.png" width="437" height="111" /></g></g></g><g clip-path="url(#10)"><g transform="matrix(0.1201373 0 0 0.12 117.02 181.26)"><g transform="matrix(1 0 0 1 0 0)"><image x="0" y="0" xlink:href="img_34.png" width="437" height="111" /></g></g></g><g transform="matrix(0.3606185 0 0 0.3610345 194.52 152.32)"><g transform="matrix(1 0 0 1 0 0)"><image x="0" y="0" xlink:href="img_35.png" width="194" height="232" /></g></g><g clip-path="url(#11)"><g transform="matrix(0.120229 0 0 0.12 201.77 154.14)"><g transform="matrix(1 0 0 1 0 0)"><image x="0" y="0" xlink:href="img_36.png" width="262" height="111" /></g></g></g><g transform="matrix(0.120229 0 0 0.12 201.77 171.3)"><g transform="matrix(1 0 0 1 0 0)"><image x="0" y="0" xlink:href="img_37.png" width="262" height="111" /></g></g><g transform="matrix(0.1202286 0 0 0.12 201.77 188.46)"><g transform="matrix(1 0 0 1 0 0)"><image x="0" y="0" xlink:href="img_38.png" width="350" height="111" /></g></g><g transform="matrix(0.1201373 0 0 0.12 201.77 205.62)"><g transform="matrix(1 0 0 1 0 0)"><image x="0" y="0" xlink:href="img_39.png" width="437" height="111" /></g></g><g clip-path="url(#12)"><g transform="matrix(0.12 0 0 0.12 201.77 222.78)"><g transform="matrix(1 0 0 1 0 0)"><image x="0" y="0" xlink:href="img_40.png" width="118" height="111" /></g></g></g><g clip-path="url(#13)"><g transform="matrix(0.12 0 0 0.12 208.85 222.78)"><g transform="matrix(1 0 0 1 0 0)"><image x="0" y="0" xlink:href="img_41.png" width="222" height="111" /></g></g></g><g transform="matrix(0.365 0 0 0.3595572 336.84 148.12)"><g transform="matrix(1 0 0 1 0 0)"><image x="0" y="0" xlink:href="img_42.png" width="24" height="271" /></g></g><path transform="matrix(1 0 0 -1 0 841)" d="M341.25 600.32L341.25 691.07" stroke="#A6A6A6" stroke-width="2" fill="none" /><g transform="matrix(0.3608696 0 0 0.3607143 282.24 159.76)"><g transform="matrix(1 0 0 1 0 0)"><image x="0" y="0" xlink:href="img_43.png" width="138" height="168" /></g></g><g clip-path="url(#14)"><g transform="matrix(0.120229 0 0 0.12 289.49 161.58)"><g transform="matrix(1 0 0 1 0 0)"><image x="0" y="0" xlink:href="img_44.png" width="262" height="111" /></g></g></g><g transform="matrix(0.120229 0 0 0.12 289.49 178.74)"><g transform="matrix(1 0 0 1 0 0)"><image x="0" y="0" xlink:href="img_45.png" width="262" height="111" /></g></g><g transform="matrix(0.120229 0 0 0.12 289.49 196.14)"><g transform="matrix(1 0 0 1 0 0)"><image x="0" y="0" xlink:href="img_46.png" width="262" height="111" /></g></g><g transform="matrix(0.3603324 0 0 0.3626087 348.96 159.76)"><g transform="matrix(1 0 0 1 0 0)"><image x="0" y="0" xlink:href="img_47.png" width="361" height="138" /></g></g><g clip-path="url(#15)"><g transform="matrix(0.120229 0 0 0.12 356.23 161.58)"><g transform="matrix(1 0 0 1 0 0)"><image x="0" y="0" xlink:href="img_48.png" width="262" height="111" /></g></g></g><g transform="matrix(0.1201373 0 0 0.12 356.23 178.74)"><g transform="matrix(1 0 0 1 0 0)"><image x="0" y="0" xlink:href="img_49.png" width="437" height="111" /></g></g><g clip-path="url(#16)"><g transform="matrix(0.1200857 0 0 0.12 356.23 195.9)"><g transform="matrix(1 0 0 1 0 0)"><image x="0" y="0" xlink:href="img_50.png" width="1050" height="111" /></g></g></g><g transform="matrix(0.36 0 0 0.3694737 59.52 222.76)"><g transform="matrix(1 0 0 1 0 0)"><image x="0" y="0" xlink:href="img_51.png" width="134" height="38" /></g></g><g clip-path="url(#17)"><g transform="matrix(0.1202286 0 0 0.12 66.744 224.58)"><g transform="matrix(1 0 0 1 0 0)"><image x="0" y="0" xlink:href="img_52.png" width="350" height="111" /></g></g></g><g transform="matrix(0.36 0 0 0.3694737 59.52 246.04)"><g transform="matrix(1 0 0 1 0 0)"><image x="0" y="0" xlink:href="img_51.png" width="134" height="38" /></g></g><g clip-path="url(#18)"><g transform="matrix(0.1202286 0 0 0.12 66.744 247.86)"><g transform="matrix(1 0 0 1 0 0)"><image x="0" y="0" xlink:href="img_53.png" width="350" height="111" /></g></g></g><path transform="matrix(1 0 0 -1 0 841)" d="M51 695.44C 51 702.56 56.765 708.32 63.876 708.32L63.876 708.32L536.87 708.32C 543.99 708.32 549.75 702.56 549.75 695.44L549.75 695.44L549.75 589.95C 549.75 582.83 543.99 577.07 536.87 577.07L536.87 577.07L63.876 577.07C 56.765 577.07 51 582.83 51 589.95z" stroke="#A6A6A6" stroke-width="0.5" stroke-dasharray="4,3" fill="none" /></g></g></g></svg>