<svg xmlns="http://www.w3.org/2000/svg" xmlns:xlink="http://www.w3.org/1999/xlink" id="body_15" preserveAspectRatio="xMinYMin meet" viewBox="0 0 793 1121"><defs><clipPath id="1"><path d="M0 841L0 -0.9199829L0 -0.9199829L595.32 -0.9199829L595.32 -0.9199829L595.32 841L595.32 841L0 841z" /></clipPath><clipPath id="2"><path d="M36.48 54.64001L180.48 54.64001L180.48 54.64001L180.48 36.88L180.48 36.88L36.48 36.88z" /></clipPath><clipPath id="3"><path d="M36.48 54.64001L180.48 54.64001L180.48 54.64001L180.48 36.88L180.48 36.88L36.48 36.88z" /></clipPath><clipPath id="4"><path d="M96.96 33.64001L236.76 33.64001L236.76 33.64001L236.76 18.64001L236.76 18.64001L96.96 18.64001z" /></clipPath><clipPath id="5"><path d="M96.96 33.64001L236.76 33.64001L236.76 33.64001L236.76 18.64001L236.76 18.64001L96.96 18.64001z" /></clipPath><clipPath id="6"><path d="M96.96 33.64001L236.76 33.64001L236.76 33.64001L236.76 18.64001L236.76 18.64001L96.96 18.64001z" /></clipPath><clipPath id="7"><path d="M66.6 844.96L299.4 844.96L299.4 844.96L299.4 810.64L299.4 810.64L66.6 810.64z" /></clipPath><clipPath id="8"><path d="M45.12 371.92L542.16 371.92L542.16 371.92L542.16 208.48L542.16 208.48L45.12 208.48z" /></clipPath><clipPath id="9"><path d="M45.12 371.92L542.16 371.92L542.16 371.92L542.16 208.48L542.16 208.48L45.12 208.48z" /></clipPath><clipPath id="10"><path d="M45.12 371.92L542.16 371.92L542.16 371.92L542.16 208.48L542.16 208.48L45.12 208.48z" /></clipPath><clipPath id="11"><path d="M45.12 371.92L542.16 371.92L542.16 371.92L542.16 208.48L542.16 208.48L45.12 208.48z" /></clipPath><clipPath id="12"><path d="M45.12 371.92L542.16 371.92L542.16 371.92L542.16 208.48L542.16 208.48L45.12 208.48z" /></clipPath><clipPath id="13"><path d="M45.12 371.92L542.16 371.92L542.16 371.92L542.16 208.48L542.16 208.48L45.12 208.48z" /></clipPath></defs><g transform="matrix(1.333333 0 0 1.333333 0 0)"><g><g clip-path="url(#1)"><path transform="matrix(1 0 0 -1 0 841)" d="M31.2 26.132C 31.2 28.765 33.334 30.899 35.967 30.899L35.967 30.899L64.383 30.899C 67.016 30.899 69.15 28.765 69.15 26.132L69.15 26.132L69.15 7.0658C 69.15 4.4332 67.016 2.2991 64.383 2.2991L64.383 2.2991L35.967 2.2991C 33.334 2.2991 31.2 4.4332 31.2 7.0658z" stroke="#A6A6A6" stroke-width="1" stroke-dasharray="3,1" fill="none" /><path transform="matrix(1 0 0 -1 0 841)" d="M39.7 58.549C 39.7 63.713 43.886 67.899 49.05 67.899L49.05 67.899L290.6 67.899C 295.76 67.899 299.95 63.713 299.95 58.549L299.95 58.549L299.95 21.149C 299.95 15.985 295.76 11.799 290.6 11.799L290.6 11.799L49.05 11.799C 43.886 11.799 39.7 15.985 39.7 21.149z" stroke="#A6A6A6" stroke-width="1" stroke-dasharray="3,1" fill="none" /><path transform="matrix(1 0 0 -1 0 841)" d="M39.7 802.87C 39.7 805.63 41.939 807.87 44.7 807.87L44.7 807.87L261.15 807.87C 263.91 807.87 266.15 805.63 266.15 802.87L266.15 802.87L266.15 782.87C 266.15 780.11 263.91 777.87 261.15 777.87L261.15 777.87L44.7 777.87C 41.939 777.87 39.7 780.11 39.7 782.87z" stroke="#A6A6A6" stroke-width="1" stroke-dasharray="3,1" fill="none" /><path transform="matrix(1 0 0 -1 0 841)" d="M223.55 818.79C 223.55 824.11 227.86 828.42 233.18 828.42L233.18 828.42L308.42 828.42C 313.74 828.42 318.05 824.11 318.05 818.79L318.05 818.79L318.05 780.3C 318.05 774.98 313.74 770.67 308.42 770.67L308.42 770.67L233.18 770.67C 227.86 770.67 223.55 774.98 223.55 780.3z" stroke="none" fill="#FFFFFF" fill-rule="evenodd" /><path transform="matrix(1 0 0 -1 0 841)" d="M223.55 818.79C 223.55 824.11 227.86 828.42 233.18 828.42L233.18 828.42L308.42 828.42C 313.74 828.42 318.05 824.11 318.05 818.79L318.05 818.79L318.05 780.3C 318.05 774.98 313.74 770.67 308.42 770.67L308.42 770.67L233.18 770.67C 227.86 770.67 223.55 774.98 223.55 780.3z" stroke="#FFFFFF" stroke-width="2" fill="none" /><path transform="matrix(1 0 0 -1 0 841)" d="M15.75 782.85C 15.75 785.01 17.507 786.77 19.675 786.77L19.675 786.77L248.82 786.77C 250.99 786.77 252.75 785.01 252.75 782.85L252.75 782.85L252.75 767.15C 252.75 764.98 250.99 763.22 248.82 763.22L248.82 763.22L19.675 763.22C 17.507 763.22 15.75 764.98 15.75 767.15z" stroke="none" fill="#FFFFFF" fill-rule="evenodd" /><path transform="matrix(1 0 0 -1 0 841)" d="M15.75 782.85C 15.75 785.01 17.507 786.77 19.675 786.77L19.675 786.77L248.82 786.77C 250.99 786.77 252.75 785.01 252.75 782.85L252.75 782.85L252.75 767.15C 252.75 764.98 250.99 763.22 248.82 763.22L248.82 763.22L19.675 763.22C 17.507 763.22 15.75 764.98 15.75 767.15z" stroke="#FFFFFF" stroke-width="2" fill="none" /><g transform="matrix(0.3603 0 0 0.362449 36.48 36.88)"><g transform="matrix(1 0 0 1 0 0)"><image x="0" y="0" xlink:href="img_15.png" width="400" height="49" /></g></g><g clip-path="url(#2)"></g><g clip-path="url(#3)"></g><g transform="matrix(0.3603093 0 0 0.3658536 96.96 18.64001)"><g transform="matrix(1 0 0 1 0 0)"><image x="0" y="0" xlink:href="img_16.png" width="388" height="41" /></g></g><g clip-path="url(#4)"></g><g clip-path="url(#5)"></g><g clip-path="url(#6)"></g><path transform="matrix(1 0 0 -1 0 841)" d="M291 49.149C 291 53.843 294.81 57.649 299.5 57.649L299.5 57.649L339.45 57.649C 344.14 57.649 347.95 53.843 347.95 49.149L347.95 49.149L347.95 15.149C 347.95 10.455 344.14 6.649 339.45 6.649L339.45 6.649L299.5 6.649C 294.81 6.649 291 10.455 291 15.149z" stroke="none" fill="#FFFFFF" fill-rule="evenodd" /><path transform="matrix(1 0 0 -1 0 841)" d="M291 49.149C 291 53.843 294.81 57.649 299.5 57.649L299.5 57.649L339.45 57.649C 344.14 57.649 347.95 53.843 347.95 49.149L347.95 49.149L347.95 15.149C 347.95 10.455 344.14 6.649 339.45 6.649L339.45 6.649L299.5 6.649C 294.81 6.649 291 10.455 291 15.149z" stroke="#FFFFFF" stroke-width="2" fill="none" /><path transform="matrix(1 0 0 -1 0 841)" d="M27.75 75.091C 27.75 76.918 29.231 78.399 31.058 78.399L31.058 78.399L306.44 78.399C 308.27 78.399 309.75 76.918 309.75 75.091L309.75 75.091L309.75 61.857C 309.75 60.03 308.27 58.549 306.44 58.549L306.44 58.549L31.058 58.549C 29.231 58.549 27.75 60.03 27.75 61.857z" stroke="none" fill="#FFFFFF" fill-rule="evenodd" /><path transform="matrix(1 0 0 -1 0 841)" d="M27.75 75.091C 27.75 76.918 29.231 78.399 31.058 78.399L31.058 78.399L306.44 78.399C 308.27 78.399 309.75 76.918 309.75 75.091L309.75 75.091L309.75 61.857C 309.75 60.03 308.27 58.549 306.44 58.549L306.44 58.549L31.058 58.549C 29.231 58.549 27.75 60.03 27.75 61.857z" stroke="#FFFFFF" stroke-width="2" fill="none" /><path transform="matrix(1 0 0 -1 0 841)" d="M36.05 6.5239C 36.05 8.1118 37.337 9.399 38.925 9.399L38.925 9.399L102.88 9.399C 104.46 9.399 105.75 8.1118 105.75 6.5239L105.75 6.5239L105.75 -4.976C 105.75 -6.5638 104.46 -7.851 102.88 -7.851L102.88 -7.851L38.925 -7.851C 37.337 -7.851 36.05 -6.5638 36.05 -4.976z" stroke="none" fill="#FFFFFF" fill-rule="evenodd" /><path transform="matrix(1 0 0 -1 0 841)" d="M36.05 6.5239C 36.05 8.1118 37.337 9.399 38.925 9.399L38.925 9.399L102.88 9.399C 104.46 9.399 105.75 8.1118 105.75 6.5239L105.75 6.5239L105.75 -4.976C 105.75 -6.5638 104.46 -7.851 102.88 -7.851L102.88 -7.851L38.925 -7.851C 37.337 -7.851 36.05 -6.5638 36.05 -4.976z" stroke="#FFFFFF" stroke-width="2" fill="none" /><path transform="matrix(1 0 0 -1 0 841)" d="M36.342 46.099C 37.644 46.099 38.7 45.043 38.7 43.741L38.7 43.741L38.7 -8.4926C 38.7 -9.795 37.644 -10.851 36.342 -10.851L36.342 -10.851L26.908 -10.851C 25.606 -10.851 24.55 -9.795 24.55 -8.4926L24.55 -8.4926L24.55 43.741C 24.55 45.043 25.606 46.099 26.908 46.099z" stroke="none" fill="#FFFFFF" fill-rule="evenodd" /><path transform="matrix(1 0 0 -1 0 841)" d="M36.342 46.099C 37.644 46.099 38.7 45.043 38.7 43.741L38.7 43.741L38.7 -8.4926C 38.7 -9.795 37.644 -10.851 36.342 -10.851L36.342 -10.851L26.908 -10.851C 25.606 -10.851 24.55 -9.795 24.55 -8.4926L24.55 -8.4926L24.55 43.741C 24.55 45.043 25.606 46.099 26.908 46.099z" stroke="#FFFFFF" stroke-width="2" fill="none" /><g transform="matrix(0.3603715 0 0 0.3612632 66.6 810.64)"><g transform="matrix(1 0 0 1 0 0)"><image x="0" y="0" xlink:href="img_17.png" width="646" height="95" /></g></g><g clip-path="url(#7)"><g transform="matrix(0.120049 0 0 0.12 73.824 812.656)"><g transform="matrix(1 0 0 1 0 0)"><image x="0" y="0" xlink:href="img_18.png" width="1838" height="111" /></g></g></g><path transform="matrix(1 0 0 -1 0 841)" d="M39.75 623.98C 39.75 633.7 47.624 641.57 57.337 641.57L57.337 641.57L529.96 641.57C 539.68 641.57 547.55 633.7 547.55 623.98L547.55 623.98L547.55 477.66C 547.55 467.94 539.68 460.07 529.96 460.07L529.96 460.07L57.337 460.07C 47.624 460.07 39.75 467.94 39.75 477.66z" stroke="#A6A6A6" stroke-width="0.5" stroke-dasharray="3,1" fill="none" /><g transform="matrix(0.3601739 0 0 0.3607947 45.12 208.48)"><g transform="matrix(1 0 0 1 0 0)"><image x="0" y="0" xlink:href="img_74.png" width="1380" height="453" /></g></g><g clip-path="url(#8)"></g><g clip-path="url(#9)"></g><g clip-path="url(#10)"></g><g transform="matrix(0.12 0 0 0.12 73.344 235.74)"><g transform="matrix(1 0 0 1 0 0)"><image x="0" y="0" xlink:href="img_75.png" width="176" height="111" /></g></g><g transform="matrix(0.12 0 0 0.12 83.904 235.74)"><g transform="matrix(1 0 0 1 0 0)"><image x="0" y="0" xlink:href="img_76.png" width="108" height="111" /></g></g><g transform="matrix(0.1200235 0 0 0.12 90.384 235.74)"><g transform="matrix(1 0 0 1 0 0)"><image x="0" y="0" xlink:href="img_77.png" width="1703" height="111" /></g></g><g transform="matrix(0.12 0 0 0.12 73.344 253.02)"><g transform="matrix(1 0 0 1 0 0)"><image x="0" y="0" xlink:href="img_75.png" width="176" height="111" /></g></g><g transform="matrix(0.12 0 0 0.12 83.904 253.02)"><g transform="matrix(1 0 0 1 0 0)"><image x="0" y="0" xlink:href="img_78.png" width="108" height="111" /></g></g><g transform="matrix(0.1200572 0 0 0.12 90.384 253.02)"><g transform="matrix(1 0 0 1 0 0)"><image x="0" y="0" xlink:href="img_79.png" width="786" height="111" /></g></g><g transform="matrix(0.12 0 0 0.12 73.344 270.21)"><g transform="matrix(1 0 0 1 0 0)"><image x="0" y="0" xlink:href="img_75.png" width="176" height="111" /></g></g><g transform="matrix(0.12 0 0 0.12 83.904 270.21)"><g transform="matrix(1 0 0 1 0 0)"><image x="0" y="0" xlink:href="img_80.png" width="108" height="111" /></g></g><g transform="matrix(0.1200763 0 0 0.12 90.384 270.21)"><g transform="matrix(1 0 0 1 0 0)"><image x="0" y="0" xlink:href="img_81.png" width="1049" height="111" /></g></g><g transform="matrix(0.12 0 0 0.12 73.344 287.37)"><g transform="matrix(1 0 0 1 0 0)"><image x="0" y="0" xlink:href="img_75.png" width="176" height="111" /></g></g><g transform="matrix(0.12 0 0 0.12 83.904 287.37)"><g transform="matrix(1 0 0 1 0 0)"><image x="0" y="0" xlink:href="img_82.png" width="108" height="111" /></g></g><g transform="matrix(0.1200704 0 0 0.12 90.384 287.37)"><g transform="matrix(1 0 0 1 0 0)"><image x="0" y="0" xlink:href="img_83.png" width="1136" height="111" /></g></g><g transform="matrix(0.12 0 0 0.12 73.344 304.53)"><g transform="matrix(1 0 0 1 0 0)"><image x="0" y="0" xlink:href="img_75.png" width="176" height="111" /></g></g><g transform="matrix(0.12 0 0 0.12 83.904 304.53)"><g transform="matrix(1 0 0 1 0 0)"><image x="0" y="0" xlink:href="img_84.png" width="108" height="111" /></g></g><g transform="matrix(0.1200482 0 0 0.12 90.384 304.53)"><g transform="matrix(1 0 0 1 0 0)"><image x="0" y="0" xlink:href="img_85.png" width="1661" height="111" /></g></g><g transform="matrix(0.12 0 0 0.12 73.344 321.69)"><g transform="matrix(1 0 0 1 0 0)"><image x="0" y="0" xlink:href="img_75.png" width="176" height="111" /></g></g><g transform="matrix(0.12 0 0 0.12 83.904 321.69)"><g transform="matrix(1 0 0 1 0 0)"><image x="0" y="0" xlink:href="img_86.png" width="108" height="111" /></g></g><g transform="matrix(0.120052 0 0 0.12 90.384 321.69)"><g transform="matrix(1 0 0 1 0 0)"><image x="0" y="0" xlink:href="img_87.png" width="961" height="111" /></g></g><g transform="matrix(0.12 0 0 0.12 73.344 338.85)"><g transform="matrix(1 0 0 1 0 0)"><image x="0" y="0" xlink:href="img_75.png" width="176" height="111" /></g></g><g transform="matrix(0.12 0 0 0.12 83.904 338.85)"><g transform="matrix(1 0 0 1 0 0)"><image x="0" y="0" xlink:href="img_88.png" width="108" height="111" /></g></g><g transform="matrix(0.1200508 0 0 0.12 90.384 338.85)"><g transform="matrix(1 0 0 1 0 0)"><image x="0" y="0" xlink:href="img_89.png" width="1574" height="111" /></g></g><g clip-path="url(#11)"><g transform="matrix(0.12 0 0 0.12 73.344 356.13)"><g transform="matrix(1 0 0 1 0 0)"><image x="0" y="0" xlink:href="img_75.png" width="176" height="111" /></g></g></g><g clip-path="url(#12)"><g transform="matrix(0.12 0 0 0.12 83.904 356.13)"><g transform="matrix(1 0 0 1 0 0)"><image x="0" y="0" xlink:href="img_90.png" width="108" height="111" /></g></g></g><g clip-path="url(#13)"><g transform="matrix(0.1200538 0 0 0.12 90.384 356.13)"><g transform="matrix(1 0 0 1 0 0)"><image x="0" y="0" xlink:href="img_91.png" width="1486" height="111" /></g></g></g></g></g></g></svg>