<svg xmlns="http://www.w3.org/2000/svg" xmlns:xlink="http://www.w3.org/1999/xlink" id="body_75" preserveAspectRatio="xMinYMin meet" viewBox="0 0 793 1121"><defs><clipPath id="1"><path d="M0 841L0 -0.9199829L0 -0.9199829L595.32 -0.9199829L595.32 -0.9199829L595.32 841L595.32 841L0 841z" /></clipPath><clipPath id="2"><path d="M36.48 54.64001L180.48 54.64001L180.48 54.64001L180.48 36.88L180.48 36.88L36.48 36.88z" /></clipPath><clipPath id="3"><path d="M36.48 54.64001L180.48 54.64001L180.48 54.64001L180.48 36.88L180.48 36.88L36.48 36.88z" /></clipPath><clipPath id="4"><path d="M96.96 33.64001L236.76 33.64001L236.76 33.64001L236.76 18.64001L236.76 18.64001L96.96 18.64001z" /></clipPath><clipPath id="5"><path d="M96.96 33.64001L236.76 33.64001L236.76 33.64001L236.76 18.64001L236.76 18.64001L96.96 18.64001z" /></clipPath><clipPath id="6"><path d="M96.96 33.64001L236.76 33.64001L236.76 33.64001L236.76 18.64001L236.76 18.64001L96.96 18.64001z" /></clipPath><clipPath id="7"><path d="M66.6 844.96L299.4 844.96L299.4 844.96L299.4 810.64L299.4 810.64L66.6 810.64z" /></clipPath><clipPath id="8"><path d="M457.8 505.72L538.2 505.72L538.2 505.72L538.2 490.24L538.2 490.24L457.8 490.24z" /></clipPath><clipPath id="9"><path d="M457.8 505.72L538.2 505.72L538.2 505.72L538.2 490.24L538.2 490.24L457.8 490.24z" /></clipPath><clipPath id="10"><path d="M457.8 446.44L538.2 446.44L538.2 446.44L538.2 430.96L538.2 430.96L457.8 430.96z" /></clipPath><clipPath id="11"><path d="M457.8 446.44L538.2 446.44L538.2 446.44L538.2 430.96L538.2 430.96L457.8 430.96z" /></clipPath><clipPath id="12"><path d="M457.8 476.44L538.2 476.44L538.2 476.44L538.2 460.96L538.2 460.96L457.8 460.96z" /></clipPath><clipPath id="13"><path d="M457.8 476.44L538.2 476.44L538.2 476.44L538.2 460.96L538.2 460.96L457.8 460.96z" /></clipPath><clipPath id="14"><path d="M457.8 532.72L538.2 532.72L538.2 532.72L538.2 517.24L538.2 517.24L457.8 517.24z" /></clipPath><clipPath id="15"><path d="M457.8 532.72L538.2 532.72L538.2 532.72L538.2 517.24L538.2 517.24L457.8 517.24z" /></clipPath><clipPath id="16"><path d="M349.8 506.44L430.2 506.44L430.2 506.44L430.2 490.96L430.2 490.96L349.8 490.96z" /></clipPath><clipPath id="17"><path d="M349.8 506.44L430.2 506.44L430.2 506.44L430.2 490.96L430.2 490.96L349.8 490.96z" /></clipPath></defs><g transform="matrix(1.333333 0 0 1.333333 0 0)"><g><g clip-path="url(#1)"><path transform="matrix(1 0 0 -1 0 841)" d="M31.2 26.132C 31.2 28.765 33.334 30.899 35.967 30.899L35.967 30.899L64.383 30.899C 67.016 30.899 69.15 28.765 69.15 26.132L69.15 26.132L69.15 7.0658C 69.15 4.4332 67.016 2.2991 64.383 2.2991L64.383 2.2991L35.967 2.2991C 33.334 2.2991 31.2 4.4332 31.2 7.0658z" stroke="#A6A6A6" stroke-width="1" stroke-dasharray="3,1" fill="none" /><path transform="matrix(1 0 0 -1 0 841)" d="M39.7 58.549C 39.7 63.713 43.886 67.899 49.05 67.899L49.05 67.899L290.6 67.899C 295.76 67.899 299.95 63.713 299.95 58.549L299.95 58.549L299.95 21.149C 299.95 15.985 295.76 11.799 290.6 11.799L290.6 11.799L49.05 11.799C 43.886 11.799 39.7 15.985 39.7 21.149z" stroke="#A6A6A6" stroke-width="1" stroke-dasharray="3,1" fill="none" /><path transform="matrix(1 0 0 -1 0 841)" d="M39.7 802.87C 39.7 805.63 41.939 807.87 44.7 807.87L44.7 807.87L261.15 807.87C 263.91 807.87 266.15 805.63 266.15 802.87L266.15 802.87L266.15 782.87C 266.15 780.11 263.91 777.87 261.15 777.87L261.15 777.87L44.7 777.87C 41.939 777.87 39.7 780.11 39.7 782.87z" stroke="#A6A6A6" stroke-width="1" stroke-dasharray="3,1" fill="none" /><path transform="matrix(1 0 0 -1 0 841)" d="M223.55 818.79C 223.55 824.11 227.86 828.42 233.18 828.42L233.18 828.42L308.42 828.42C 313.74 828.42 318.05 824.11 318.05 818.79L318.05 818.79L318.05 780.3C 318.05 774.98 313.74 770.67 308.42 770.67L308.42 770.67L233.18 770.67C 227.86 770.67 223.55 774.98 223.55 780.3z" stroke="none" fill="#FFFFFF" fill-rule="evenodd" /><path transform="matrix(1 0 0 -1 0 841)" d="M223.55 818.79C 223.55 824.11 227.86 828.42 233.18 828.42L233.18 828.42L308.42 828.42C 313.74 828.42 318.05 824.11 318.05 818.79L318.05 818.79L318.05 780.3C 318.05 774.98 313.74 770.67 308.42 770.67L308.42 770.67L233.18 770.67C 227.86 770.67 223.55 774.98 223.55 780.3z" stroke="#FFFFFF" stroke-width="2" fill="none" /><path transform="matrix(1 0 0 -1 0 841)" d="M15.75 782.85C 15.75 785.01 17.507 786.77 19.675 786.77L19.675 786.77L248.82 786.77C 250.99 786.77 252.75 785.01 252.75 782.85L252.75 782.85L252.75 767.15C 252.75 764.98 250.99 763.22 248.82 763.22L248.82 763.22L19.675 763.22C 17.507 763.22 15.75 764.98 15.75 767.15z" stroke="none" fill="#FFFFFF" fill-rule="evenodd" /><path transform="matrix(1 0 0 -1 0 841)" d="M15.75 782.85C 15.75 785.01 17.507 786.77 19.675 786.77L19.675 786.77L248.82 786.77C 250.99 786.77 252.75 785.01 252.75 782.85L252.75 782.85L252.75 767.15C 252.75 764.98 250.99 763.22 248.82 763.22L248.82 763.22L19.675 763.22C 17.507 763.22 15.75 764.98 15.75 767.15z" stroke="#FFFFFF" stroke-width="2" fill="none" /><g transform="matrix(0.3603 0 0 0.362449 36.48 36.88)"><g transform="matrix(1 0 0 1 0 0)"><image x="0" y="0" xlink:href="img_15.png" width="400" height="49" /></g></g><g clip-path="url(#2)"></g><g clip-path="url(#3)"></g><g transform="matrix(0.3603093 0 0 0.3658536 96.96 18.64001)"><g transform="matrix(1 0 0 1 0 0)"><image x="0" y="0" xlink:href="img_16.png" width="388" height="41" /></g></g><g clip-path="url(#4)"></g><g clip-path="url(#5)"></g><g clip-path="url(#6)"></g><path transform="matrix(1 0 0 -1 0 841)" d="M291 49.149C 291 53.843 294.81 57.649 299.5 57.649L299.5 57.649L339.45 57.649C 344.14 57.649 347.95 53.843 347.95 49.149L347.95 49.149L347.95 15.149C 347.95 10.455 344.14 6.649 339.45 6.649L339.45 6.649L299.5 6.649C 294.81 6.649 291 10.455 291 15.149z" stroke="none" fill="#FFFFFF" fill-rule="evenodd" /><path transform="matrix(1 0 0 -1 0 841)" d="M291 49.149C 291 53.843 294.81 57.649 299.5 57.649L299.5 57.649L339.45 57.649C 344.14 57.649 347.95 53.843 347.95 49.149L347.95 49.149L347.95 15.149C 347.95 10.455 344.14 6.649 339.45 6.649L339.45 6.649L299.5 6.649C 294.81 6.649 291 10.455 291 15.149z" stroke="#FFFFFF" stroke-width="2" fill="none" /><path transform="matrix(1 0 0 -1 0 841)" d="M27.75 75.091C 27.75 76.918 29.231 78.399 31.058 78.399L31.058 78.399L306.44 78.399C 308.27 78.399 309.75 76.918 309.75 75.091L309.75 75.091L309.75 61.857C 309.75 60.03 308.27 58.549 306.44 58.549L306.44 58.549L31.058 58.549C 29.231 58.549 27.75 60.03 27.75 61.857z" stroke="none" fill="#FFFFFF" fill-rule="evenodd" /><path transform="matrix(1 0 0 -1 0 841)" d="M27.75 75.091C 27.75 76.918 29.231 78.399 31.058 78.399L31.058 78.399L306.44 78.399C 308.27 78.399 309.75 76.918 309.75 75.091L309.75 75.091L309.75 61.857C 309.75 60.03 308.27 58.549 306.44 58.549L306.44 58.549L31.058 58.549C 29.231 58.549 27.75 60.03 27.75 61.857z" stroke="#FFFFFF" stroke-width="2" fill="none" /><path transform="matrix(1 0 0 -1 0 841)" d="M36.05 6.5239C 36.05 8.1118 37.337 9.399 38.925 9.399L38.925 9.399L102.88 9.399C 104.46 9.399 105.75 8.1118 105.75 6.5239L105.75 6.5239L105.75 -4.976C 105.75 -6.5638 104.46 -7.851 102.88 -7.851L102.88 -7.851L38.925 -7.851C 37.337 -7.851 36.05 -6.5638 36.05 -4.976z" stroke="none" fill="#FFFFFF" fill-rule="evenodd" /><path transform="matrix(1 0 0 -1 0 841)" d="M36.05 6.5239C 36.05 8.1118 37.337 9.399 38.925 9.399L38.925 9.399L102.88 9.399C 104.46 9.399 105.75 8.1118 105.75 6.5239L105.75 6.5239L105.75 -4.976C 105.75 -6.5638 104.46 -7.851 102.88 -7.851L102.88 -7.851L38.925 -7.851C 37.337 -7.851 36.05 -6.5638 36.05 -4.976z" stroke="#FFFFFF" stroke-width="2" fill="none" /><path transform="matrix(1 0 0 -1 0 841)" d="M36.342 46.099C 37.644 46.099 38.7 45.043 38.7 43.741L38.7 43.741L38.7 -8.4926C 38.7 -9.795 37.644 -10.851 36.342 -10.851L36.342 -10.851L26.908 -10.851C 25.606 -10.851 24.55 -9.795 24.55 -8.4926L24.55 -8.4926L24.55 43.741C 24.55 45.043 25.606 46.099 26.908 46.099z" stroke="none" fill="#FFFFFF" fill-rule="evenodd" /><path transform="matrix(1 0 0 -1 0 841)" d="M36.342 46.099C 37.644 46.099 38.7 45.043 38.7 43.741L38.7 43.741L38.7 -8.4926C 38.7 -9.795 37.644 -10.851 36.342 -10.851L36.342 -10.851L26.908 -10.851C 25.606 -10.851 24.55 -9.795 24.55 -8.4926L24.55 -8.4926L24.55 43.741C 24.55 45.043 25.606 46.099 26.908 46.099z" stroke="#FFFFFF" stroke-width="2" fill="none" /><g transform="matrix(0.3603715 0 0 0.3612632 66.6 810.64)"><g transform="matrix(1 0 0 1 0 0)"><image x="0" y="0" xlink:href="img_17.png" width="646" height="95" /></g></g><g clip-path="url(#7)"><g transform="matrix(0.120049 0 0 0.12 73.824 812.656)"><g transform="matrix(1 0 0 1 0 0)"><image x="0" y="0" xlink:href="img_18.png" width="1838" height="111" /></g></g></g><path transform="matrix(1 0 0 -1 0 841)" d="M457.5 331.37L538.5 331.37L538.5 331.37L538.5 354.62L538.5 354.62L457.5 354.62z" stroke="none" fill="#FFFFFF" fill-rule="evenodd" /><path transform="matrix(1 0 0 -1 0 841)" d="M457.5 331.37L538.5 331.37L538.5 331.37L538.5 354.62L538.5 354.62L457.5 354.62z" stroke="#000000" stroke-width="0.5" fill="none" /><g transform="matrix(0.3605382 0 0 0.3627907 457.8 490.24)"><g transform="matrix(1 0 0 1 0 0)"><image x="0" y="0" xlink:href="img_500.png" width="223" height="43" /></g></g><g clip-path="url(#8)"></g><g clip-path="url(#9)"></g><path transform="matrix(1 0 0 -1 0 841)" d="M457.5 390.62L538.5 390.62L538.5 390.62L538.5 413.87L538.5 413.87L457.5 413.87z" stroke="none" fill="#FFFFFF" fill-rule="evenodd" /><path transform="matrix(1 0 0 -1 0 841)" d="M457.5 390.62L538.5 390.62L538.5 390.62L538.5 413.87L538.5 413.87L457.5 413.87z" stroke="#000000" stroke-width="0.5" fill="none" /><g transform="matrix(0.3605382 0 0 0.3627907 457.8 430.96)"><g transform="matrix(1 0 0 1 0 0)"><image x="0" y="0" xlink:href="img_500.png" width="223" height="43" /></g></g><g clip-path="url(#10)"></g><g clip-path="url(#11)"></g><path transform="matrix(1 0 0 -1 0 841)" d="M457.5 360.62L538.5 360.62L538.5 360.62L538.5 383.87L538.5 383.87L457.5 383.87z" stroke="none" fill="#FFFFFF" fill-rule="evenodd" /><path transform="matrix(1 0 0 -1 0 841)" d="M457.5 360.62L538.5 360.62L538.5 360.62L538.5 383.87L538.5 383.87L457.5 383.87z" stroke="#000000" stroke-width="0.5" fill="none" /><g transform="matrix(0.3605382 0 0 0.3627907 457.8 460.96)"><g transform="matrix(1 0 0 1 0 0)"><image x="0" y="0" xlink:href="img_500.png" width="223" height="43" /></g></g><g clip-path="url(#12)"></g><g clip-path="url(#13)"></g><path transform="matrix(1 0 0 -1 0 841)" d="M457.5 304.37L538.5 304.37L538.5 304.37L538.5 327.62L538.5 327.62L457.5 327.62z" stroke="none" fill="#FFFFFF" fill-rule="evenodd" /><path transform="matrix(1 0 0 -1 0 841)" d="M457.5 304.37L538.5 304.37L538.5 304.37L538.5 327.62L538.5 327.62L457.5 327.62z" stroke="#000000" stroke-width="0.5" fill="none" /><g transform="matrix(0.3605382 0 0 0.3627907 457.8 517.24)"><g transform="matrix(1 0 0 1 0 0)"><image x="0" y="0" xlink:href="img_500.png" width="223" height="43" /></g></g><g clip-path="url(#14)"></g><g clip-path="url(#15)"></g><path transform="matrix(1 0 0 -1 0 841)" d="M349.5 330.62L430.5 330.62L430.5 330.62L430.5 353.87L430.5 353.87L349.5 353.87z" stroke="none" fill="#FFFFFF" fill-rule="evenodd" /><path transform="matrix(1 0 0 -1 0 841)" d="M349.5 330.62L430.5 330.62L430.5 330.62L430.5 353.87L430.5 353.87L349.5 353.87z" stroke="#000000" stroke-width="0.5" fill="none" /><g transform="matrix(0.3605382 0 0 0.3627907 349.8 490.96)"><g transform="matrix(1 0 0 1 0 0)"><image x="0" y="0" xlink:href="img_500.png" width="223" height="43" /></g></g><g clip-path="url(#16)"></g><g clip-path="url(#17)"></g><path transform="matrix(1 0 0 -1 0 841)" d="M444.76 345.8L451.5 341.87L451.5 341.87L444.76 337.94C 444.52 337.8 444.22 337.88 444.08 338.12C 443.94 338.36 444.02 338.66 444.26 338.8L444.26 338.8L450.26 342.3L450.26 342.3L450.26 341.44L450.26 341.44L444.26 344.94C 444.02 345.08 443.94 345.38 444.08 345.62C 444.22 345.86 444.52 345.94 444.76 345.8zM433.5 342.37L450.51 342.37L450.51 342.37L450.51 341.37L450.51 341.37L433.5 341.37z" stroke="none" fill="#000000" fill-rule="winding" /><path transform="matrix(1 0 0 -1 0 841)" d="M453.03 390.47L451.5 398.12L451.5 398.12L445.6 393.02C 445.39 392.84 445.36 392.53 445.54 392.32C 445.72 392.11 446.04 392.08 446.25 392.26L446.25 392.26L451.51 396.81L451.51 396.81L450.69 397.09L450.69 397.09L452.05 390.27C 452.11 390 452.37 389.83 452.64 389.88C 452.91 389.94 453.09 390.2 453.03 390.47zM449.86 391.81L451.16 395.59L451.16 395.59L450.22 395.92L450.22 395.92L448.92 392.13zM447.59 385.19L448.89 388.97L448.89 388.97L447.95 389.3L447.95 389.3L446.65 385.51zM445.32 378.57L446.62 382.35L446.62 382.35L445.68 382.67L445.68 382.67L444.38 378.89zM443.05 371.94L444.35 375.73L444.35 375.73L443.41 376.05L443.41 376.05L442.11 372.27zM440.78 365.32L442.08 369.11L442.08 369.11L441.13 369.43L441.13 369.43L439.84 365.65zM438.51 358.7L439.81 362.48L439.81 362.48L438.86 362.81L438.86 362.81L437.57 359.03zM436.24 352.08L437.54 355.86L437.54 355.86L436.59 356.19L436.59 356.19L435.3 352.4zM433.97 345.46L435.27 349.24L435.27 349.24L434.32 349.57L434.32 349.57L433.03 345.78z" stroke="none" fill="#000000" fill-rule="winding" /><path transform="matrix(1 0 0 -1 0 841)" d="M454.28 362.63L455.25 370.37L455.25 370.37L448.03 367.41C 447.78 367.3 447.66 367.01 447.76 366.75C 447.87 366.5 448.16 366.38 448.41 366.48L448.41 366.48L454.84 369.12L454.84 369.12L454.15 369.65L454.15 369.65L453.29 362.75C 453.25 362.48 453.45 362.23 453.72 362.2C 454 362.16 454.25 362.36 454.28 362.63zM453.16 366.81L455.05 369.28L455.05 369.28L454.25 369.89L454.25 369.89L452.36 367.42zM448.9 361.25L451.33 364.43L451.33 364.43L450.54 365.03L450.54 365.03L448.11 361.86zM444.65 355.69L447.08 358.86L447.08 358.86L446.29 359.47L446.29 359.47L443.86 356.29zM440.4 350.13L442.83 353.3L442.83 353.3L442.03 353.91L442.03 353.91L439.6 350.73zM436.15 344.57L438.58 347.74L438.58 347.74L437.78 348.35L437.78 348.35L435.35 345.17z" stroke="none" fill="#000000" fill-rule="winding" /><path transform="matrix(1 0 0 -1 0 841)" d="M451.16 323.95L453 316.37L453 316.37L445.49 318.5C 445.23 318.57 445.07 318.85 445.15 319.11C 445.22 319.38 445.5 319.53 445.77 319.46L445.77 319.46L452.45 317.56L452.45 317.56L451.83 316.97L451.83 316.97L450.19 323.71C 450.12 323.98 450.29 324.25 450.55 324.32C 450.82 324.38 451.09 324.22 451.16 323.95zM448.43 321.84L451.2 318.96L451.2 318.96L450.48 318.27L450.48 318.27L447.71 321.15zM443.57 326.88L446.35 324L446.35 324L445.63 323.31L445.63 323.31L442.85 326.19zM438.72 331.92L441.49 329.04L441.49 329.04L440.77 328.35L440.77 328.35L438 331.23zM433.86 336.97L436.63 334.09L436.63 334.09L435.91 333.39L435.91 333.39L433.14 336.27z" stroke="none" fill="#000000" fill-rule="winding" /><path transform="matrix(1 0 0 -1 0 841)" d="M336 414.75C 336 420.47 340.64 425.12 346.37 425.12L346.37 425.12L538.63 425.12C 544.35 425.12 549 420.47 549 414.75L549 414.75L549 305.74C 549 300.01 544.35 295.37 538.63 295.37L538.63 295.37L346.37 295.37C 340.64 295.37 336 300.01 336 305.74z" stroke="#A6A6A6" stroke-width="0.5" stroke-dasharray="3,1" fill="none" /></g></g></g></svg>