<svg xmlns="http://www.w3.org/2000/svg" xmlns:xlink="http://www.w3.org/1999/xlink" id="body_40" preserveAspectRatio="xMinYMin meet" viewBox="0 0 793 1121"><defs><clipPath id="1"><path d="M0 841L0 -0.9199829L0 -0.9199829L595.32 -0.9199829L595.32 -0.9199829L595.32 841L595.32 841L0 841z" /></clipPath><clipPath id="2"><path d="M369.72 32.79999L516.96 32.79999L516.96 32.79999L516.96 17.91998L516.96 17.91998L369.72 17.91998z" /></clipPath><clipPath id="3"><path d="M369.72 32.79999L516.96 32.79999L516.96 32.79999L516.96 17.91998L516.96 17.91998L369.72 17.91998z" /></clipPath><clipPath id="4"><path d="M369.72 32.79999L516.96 32.79999L516.96 32.79999L516.96 17.91998L516.96 17.91998L369.72 17.91998z" /></clipPath><clipPath id="5"><path d="M369.72 32.79999L516.96 32.79999L516.96 32.79999L516.96 17.91998L516.96 17.91998L369.72 17.91998z" /></clipPath><clipPath id="6"><path d="M492.96 54.40002L551.04 54.40002L551.04 54.40002L551.04 36.64001L551.04 36.64001L492.96 36.64001z" /></clipPath><clipPath id="7"><path d="M492.96 54.40002L551.04 54.40002L551.04 54.40002L551.04 36.64001L551.04 36.64001L492.96 36.64001z" /></clipPath><clipPath id="8"><path d="M378.72 828.88L522.72 828.88L522.72 828.88L522.72 807.28L522.72 807.28L378.72 807.28z" /></clipPath><clipPath id="9"><path d="M378.72 828.88L522.72 828.88L522.72 828.88L522.72 807.28L522.72 807.28L378.72 807.28z" /></clipPath><clipPath id="10"><path d="M43.321 597L166.111 597L166.111 597L166.111 571.2L166.111 571.2L43.321 571.2z" /></clipPath><clipPath id="11"><path d="M43.32 596.99L166.1 596.99L166.1 596.99L166.1 571.19L166.1 571.19L43.32 571.19z" /></clipPath><clipPath id="12"><path d="M167.07 597L290.92 597L290.92 597L290.92 571.2L290.92 571.2L167.07 571.2z" /></clipPath><clipPath id="13"><path d="M167.06 596.99L290.92 596.99L290.92 596.99L290.92 571.19L290.92 571.19L167.06 571.19z" /></clipPath><clipPath id="14"><path d="M167.06 596.99L290.92 596.99L290.92 596.99L290.92 571.19L290.92 571.19L167.06 571.19z" /></clipPath><clipPath id="15"><path d="M291.89 597L424.88 597L424.88 597L424.88 571.2L424.88 571.2L291.89 571.2z" /></clipPath><clipPath id="16"><path d="M291.89 596.99L424.87 596.99L424.87 596.99L424.87 571.19L424.87 571.19L291.89 571.19z" /></clipPath><clipPath id="17"><path d="M291.89 596.99L424.87 596.99L424.87 596.99L424.87 571.19L424.87 571.19L291.89 571.19z" /></clipPath><clipPath id="18"><path d="M425.84 597L549.21 597L549.21 597L549.21 571.2L549.21 571.2L425.84 571.2z" /></clipPath><clipPath id="19"><path d="M425.83 596.99L549.21 596.99L549.21 596.99L549.21 571.19L549.21 571.19L425.83 571.19z" /></clipPath><clipPath id="20"><path d="M425.83 596.99L549.21 596.99L549.21 596.99L549.21 571.19L549.21 571.19L425.83 571.19z" /></clipPath><clipPath id="21"><path d="M43.321 624.24L166.111 624.24L166.111 624.24L166.111 599.28L166.111 599.28L43.321 599.28z" /></clipPath><clipPath id="22"><path d="M43.32 624.23L166.1 624.23L166.1 624.23L166.1 599.27L166.1 599.27L43.32 599.27z" /></clipPath><clipPath id="23"><path d="M43.32 624.23L166.1 624.23L166.1 624.23L166.1 599.27L166.1 599.27L43.32 599.27z" /></clipPath><clipPath id="24"><path d="M43.32 624.23L166.1 624.23L166.1 624.23L166.1 599.27L166.1 599.27L43.32 599.27z" /></clipPath><clipPath id="25"><path d="M43.32 624.23L166.1 624.23L166.1 624.23L166.1 599.27L166.1 599.27L43.32 599.27z" /></clipPath><clipPath id="26"><path d="M43.32 624.23L166.1 624.23L166.1 624.23L166.1 599.27L166.1 599.27L43.32 599.27z" /></clipPath><clipPath id="27"><path d="M43.32 624.23L166.1 624.23L166.1 624.23L166.1 599.27L166.1 599.27L43.32 599.27z" /></clipPath><clipPath id="28"><path d="M43.32 624.23L166.1 624.23L166.1 624.23L166.1 599.27L166.1 599.27L43.32 599.27z" /></clipPath><clipPath id="29"><path d="M43.32 624.23L166.1 624.23L166.1 624.23L166.1 599.27L166.1 599.27L43.32 599.27z" /></clipPath><clipPath id="30"><path d="M167.07 624.24L290.92 624.24L290.92 624.24L290.92 599.28L290.92 599.28L167.07 599.28z" /></clipPath><clipPath id="31"><path d="M167.06 624.23L290.92 624.23L290.92 624.23L290.92 599.27L290.92 599.27L167.06 599.27z" /></clipPath><clipPath id="32"><path d="M167.06 624.23L290.92 624.23L290.92 624.23L290.92 599.27L290.92 599.27L167.06 599.27z" /></clipPath><clipPath id="33"><path d="M291.89 624.24L424.88 624.24L424.88 624.24L424.88 599.28L424.88 599.28L291.89 599.28z" /></clipPath><clipPath id="34"><path d="M291.89 624.23L424.87 624.23L424.87 624.23L424.87 599.27L424.87 599.27L291.89 599.27z" /></clipPath><clipPath id="35"><path d="M291.89 624.23L424.87 624.23L424.87 624.23L424.87 599.27L424.87 599.27L291.89 599.27z" /></clipPath><clipPath id="36"><path d="M425.84 624.24L549.21 624.24L549.21 624.24L549.21 599.28L549.21 599.28L425.84 599.28z" /></clipPath><clipPath id="37"><path d="M425.83 624.23L549.21 624.23L549.21 624.23L549.21 599.27L549.21 599.27L425.83 599.27z" /></clipPath><clipPath id="38"><path d="M425.83 624.23L549.21 624.23L549.21 624.23L549.21 599.27L549.21 599.27L425.83 599.27z" /></clipPath><clipPath id="39"><path d="M43.321 650.16L166.111 650.16L166.111 650.16L166.111 625.2L166.111 625.2L43.321 625.2z" /></clipPath><clipPath id="40"><path d="M43.32 650.15L166.1 650.15L166.1 650.15L166.1 625.19L166.1 625.19L43.32 625.19z" /></clipPath><clipPath id="41"><path d="M43.32 650.15L166.1 650.15L166.1 650.15L166.1 625.19L166.1 625.19L43.32 625.19z" /></clipPath><clipPath id="42"><path d="M43.32 650.15L166.1 650.15L166.1 650.15L166.1 625.19L166.1 625.19L43.32 625.19z" /></clipPath><clipPath id="43"><path d="M43.32 650.15L166.1 650.15L166.1 650.15L166.1 625.19L166.1 625.19L43.32 625.19z" /></clipPath><clipPath id="44"><path d="M43.32 650.15L166.1 650.15L166.1 650.15L166.1 625.19L166.1 625.19L43.32 625.19z" /></clipPath><clipPath id="45"><path d="M167.07 650.16L290.92 650.16L290.92 650.16L290.92 625.2L290.92 625.2L167.07 625.2z" /></clipPath><clipPath id="46"><path d="M167.06 650.15L290.92 650.15L290.92 650.15L290.92 625.19L290.92 625.19L167.06 625.19z" /></clipPath><clipPath id="47"><path d="M167.06 650.15L290.92 650.15L290.92 650.15L290.92 625.19L290.92 625.19L167.06 625.19z" /></clipPath><clipPath id="48"><path d="M291.89 650.16L424.88 650.16L424.88 650.16L424.88 625.2L424.88 625.2L291.89 625.2z" /></clipPath><clipPath id="49"><path d="M291.89 650.15L424.87 650.15L424.87 650.15L424.87 625.19L424.87 625.19L291.89 625.19z" /></clipPath><clipPath id="50"><path d="M291.89 650.15L424.87 650.15L424.87 650.15L424.87 625.19L424.87 625.19L291.89 625.19z" /></clipPath><clipPath id="51"><path d="M425.84 650.16L549.21 650.16L549.21 650.16L549.21 625.2L549.21 625.2L425.84 625.2z" /></clipPath><clipPath id="52"><path d="M425.83 650.15L549.21 650.15L549.21 650.15L549.21 625.19L549.21 625.19L425.83 625.19z" /></clipPath><clipPath id="53"><path d="M425.83 650.15L549.21 650.15L549.21 650.15L549.21 625.19L549.21 625.19L425.83 625.19z" /></clipPath><clipPath id="54"><path d="M425.83 650.15L549.21 650.15L549.21 650.15L549.21 625.19L549.21 625.19L425.83 625.19z" /></clipPath></defs><g transform="matrix(1.333333 0 0 1.333333 0 0)"><g><g clip-path="url(#1)"><g transform="matrix(0.3608824 0 0 0.3658536 369.72 17.91998)"><g transform="matrix(1 0 0 1 0 0)"><image x="0" y="0" xlink:href="img_09.png" width="408" height="41" /></g></g><g clip-path="url(#2)"></g><g clip-path="url(#3)"></g><g clip-path="url(#4)"></g><g clip-path="url(#5)"></g><g transform="matrix(0.3607454 0 0 0.3648979 492.96 36.64001)"><g transform="matrix(1 0 0 1 0 0)"><image x="0" y="0" xlink:href="img_10.png" width="161" height="49" /></g></g><g clip-path="url(#6)"></g><g clip-path="url(#7)"></g><path transform="matrix(1 0 0 -1 0 841)" d="M350.9 802.87C 350.9 805.63 353.14 807.87 355.9 807.87L355.9 807.87L545.45 807.87C 548.21 807.87 550.45 805.63 550.45 802.87L550.45 802.87L550.45 782.87C 550.45 780.11 548.21 777.87 545.45 777.87L545.45 777.87L355.9 777.87C 353.14 777.87 350.9 780.11 350.9 782.87z" stroke="#A6A6A6" stroke-width="1" stroke-dasharray="3,1" fill="none" /><path transform="matrix(1 0 0 -1 0 841)" d="M348 828.17C 348 831.62 350.8 834.42 354.25 834.42L354.25 834.42L379.25 834.42C 382.7 834.42 385.5 831.62 385.5 828.17L385.5 828.17L385.5 782.92C 385.5 779.47 382.7 776.67 379.25 776.67L379.25 776.67L354.25 776.67C 350.8 776.67 348 779.47 348 782.92z" stroke="none" fill="#FFFFFF" fill-rule="evenodd" /><path transform="matrix(1 0 0 -1 0 841)" d="M348 828.17C 348 831.62 350.8 834.42 354.25 834.42L354.25 834.42L379.25 834.42C 382.7 834.42 385.5 831.62 385.5 828.17L385.5 828.17L385.5 782.92C 385.5 779.47 382.7 776.67 379.25 776.67L379.25 776.67L354.25 776.67C 350.8 776.67 348 779.47 348 782.92z" stroke="#FFFFFF" stroke-width="2" fill="none" /><path transform="matrix(1 0 0 -1 0 841)" d="M385.5 780.79C 385.5 781.83 386.34 782.67 387.38 782.67L387.38 782.67L556.87 782.67C 557.91 782.67 558.75 781.83 558.75 780.79L558.75 780.79L558.75 773.3C 558.75 772.26 557.91 771.42 556.87 771.42L556.87 771.42L387.38 771.42C 386.34 771.42 385.5 772.26 385.5 773.3z" stroke="none" fill="#FFFFFF" fill-rule="evenodd" /><path transform="matrix(1 0 0 -1 0 841)" d="M385.5 780.79C 385.5 781.83 386.34 782.67 387.38 782.67L387.38 782.67L556.87 782.67C 557.91 782.67 558.75 781.83 558.75 780.79L558.75 780.79L558.75 773.3C 558.75 772.26 557.91 771.42 556.87 771.42L556.87 771.42L387.38 771.42C 386.34 771.42 385.5 772.26 385.5 773.3z" stroke="#FFFFFF" stroke-width="2" fill="none" /><path transform="matrix(1 0 0 -1 0 841)" d="M354.4 61.195C 354.4 66.566 358.75 70.92 364.13 70.92L364.13 70.92L544.22 70.92C 549.6 70.92 553.95 66.566 553.95 61.195L553.95 61.195L553.95 22.295C 553.95 16.924 549.6 12.57 544.22 12.57L544.22 12.57L364.13 12.57C 358.75 12.57 354.4 16.924 354.4 22.295z" stroke="#A6A6A6" stroke-width="1" stroke-dasharray="3,1" fill="none" /><path transform="matrix(1 0 0 -1 0 841)" d="M354.45 73.174C 354.45 74.9 355.85 76.299 357.57 76.299L357.57 76.299L555.12 76.299C 556.85 76.299 558.25 74.9 558.25 73.174L558.25 73.174L558.25 60.674C 558.25 58.948 556.85 57.549 555.12 57.549L555.12 57.549L357.57 57.549C 355.85 57.549 354.45 58.948 354.45 60.674z" stroke="none" fill="#FFFFFF" fill-rule="evenodd" /><path transform="matrix(1 0 0 -1 0 841)" d="M354.45 73.174C 354.45 74.9 355.85 76.299 357.57 76.299L357.57 76.299L555.12 76.299C 556.85 76.299 558.25 74.9 558.25 73.174L558.25 73.174L558.25 60.674C 558.25 58.948 556.85 57.549 555.12 57.549L555.12 57.549L357.57 57.549C 355.85 57.549 354.45 58.948 354.45 60.674z" stroke="#FFFFFF" stroke-width="2" fill="none" /><path transform="matrix(1 0 0 -1 0 841)" d="M330.75 61.074C 330.75 67.909 336.29 73.449 343.13 73.449L343.13 73.449L406.12 73.449C 412.96 73.449 418.5 67.909 418.5 61.074L418.5 61.074L418.5 11.574C 418.5 4.7397 412.96 -0.8009 406.12 -0.8009L406.12 -0.8009L343.13 -0.8009C 336.29 -0.8009 330.75 4.7397 330.75 11.574z" stroke="none" fill="#FFFFFF" fill-rule="evenodd" /><path transform="matrix(1 0 0 -1 0 841)" d="M330.75 61.074C 330.75 67.909 336.29 73.449 343.13 73.449L343.13 73.449L406.12 73.449C 412.96 73.449 418.5 67.909 418.5 61.074L418.5 61.074L418.5 11.574C 418.5 4.7397 412.96 -0.8009 406.12 -0.8009L406.12 -0.8009L343.13 -0.8009C 336.29 -0.8009 330.75 4.7397 330.75 11.574z" stroke="#FFFFFF" stroke-width="2" fill="none" /><path transform="matrix(1 0 0 -1 0 841)" d="M524.5 26.453C 524.5 29.086 526.63 31.22 529.27 31.22L529.27 31.22L566.18 31.22C 568.82 31.22 570.95 29.086 570.95 26.453L570.95 26.453L570.95 7.3869C 570.95 4.7543 568.82 2.6202 566.18 2.6202L566.18 2.6202L529.27 2.6202C 526.63 2.6202 524.5 4.7543 524.5 7.3869z" stroke="#A6A6A6" stroke-width="1" stroke-dasharray="3,1" fill="none" /><path transform="matrix(1 0 0 -1 0 841)" d="M556.25 34.299C 556.25 36.094 557.71 37.549 559.5 37.549L559.5 37.549L572.5 37.549C 574.29 37.549 575.75 36.094 575.75 34.299L575.75 34.299L575.75 -2.7007C 575.75 -4.4957 574.29 -5.9508 572.5 -5.9508L572.5 -5.9508L559.5 -5.9508C 557.71 -5.9508 556.25 -4.4957 556.25 -2.7007z" stroke="none" fill="#FFFFFF" fill-rule="evenodd" /><path transform="matrix(1 0 0 -1 0 841)" d="M556.25 34.299C 556.25 36.094 557.71 37.549 559.5 37.549L559.5 37.549L572.5 37.549C 574.29 37.549 575.75 36.094 575.75 34.299L575.75 34.299L575.75 -2.7007C 575.75 -4.4957 574.29 -5.9508 572.5 -5.9508L572.5 -5.9508L559.5 -5.9508C 557.71 -5.9508 556.25 -4.4957 556.25 -2.7007z" stroke="#FFFFFF" stroke-width="2" fill="none" /><g transform="matrix(0.3603 0 0 0.3661017 378.72 807.28)"><g transform="matrix(1 0 0 1 0 0)"><image x="0" y="0" xlink:href="img_11.png" width="400" height="59" /></g></g><g clip-path="url(#8)"></g><g clip-path="url(#9)"></g><path transform="matrix(1 0 0 -1 0 841)" d="M491.9 7.7491C 491.9 9.1299 493.02 10.249 494.4 10.249L494.4 10.249L548.6 10.249C 549.98 10.249 551.1 9.1299 551.1 7.7491L551.1 7.7491L551.1 -2.2507C 551.1 -3.6315 549.98 -4.7508 548.6 -4.7508L548.6 -4.7508L494.4 -4.7508C 493.02 -4.7508 491.9 -3.6315 491.9 -2.2507z" stroke="none" fill="#FFFFFF" fill-rule="evenodd" /><path transform="matrix(1 0 0 -1 0 841)" d="M491.9 7.7491C 491.9 9.1299 493.02 10.249 494.4 10.249L494.4 10.249L548.6 10.249C 549.98 10.249 551.1 9.1299 551.1 7.7491L551.1 7.7491L551.1 -2.2507C 551.1 -3.6315 549.98 -4.7508 548.6 -4.7508L548.6 -4.7508L494.4 -4.7508C 493.02 -4.7508 491.9 -3.6315 491.9 -2.2507z" stroke="#FFFFFF" stroke-width="2" fill="none" /><g clip-path="url(#10)"><g clip-path="url(#11)"></g></g><g clip-path="url(#12)"><g clip-path="url(#13)"></g><g clip-path="url(#14)"></g></g><g clip-path="url(#15)"><g clip-path="url(#16)"></g><g clip-path="url(#17)"></g></g><g clip-path="url(#18)"><g clip-path="url(#19)"></g><g clip-path="url(#20)"></g></g><path transform="matrix(1 0 0 -1 0 841)" d="M42.36 269.81L43.32 269.81L43.32 269.81L43.32 270.77L43.32 270.77L42.36 270.77z" stroke="none" fill="#4F81BD" fill-rule="evenodd" /><path transform="matrix(1 0 0 -1 0 841)" d="M42.36 269.81L43.32 269.81L43.32 269.81L43.32 270.77L43.32 270.77L42.36 270.77z" stroke="none" fill="#4F81BD" fill-rule="evenodd" /><path transform="matrix(1 0 0 -1 0 841)" d="M43.32 269.81L166.1 269.81L166.1 269.81L166.1 270.77L166.1 270.77L43.32 270.77z" stroke="none" fill="#4F81BD" fill-rule="evenodd" /><path transform="matrix(1 0 0 -1 0 841)" d="M166.1 269.81L167.06 269.81L167.06 269.81L167.06 270.77L167.06 270.77L166.1 270.77z" stroke="none" fill="#4F81BD" fill-rule="evenodd" /><path transform="matrix(1 0 0 -1 0 841)" d="M167.06 269.81L291.04 269.81L291.04 269.81L291.04 270.77L291.04 270.77L167.06 270.77z" stroke="none" fill="#4F81BD" fill-rule="evenodd" /><path transform="matrix(1 0 0 -1 0 841)" d="M291.05 269.81L292.01 269.81L292.01 269.81L292.01 270.77L292.01 270.77L291.05 270.77z" stroke="none" fill="#4F81BD" fill-rule="evenodd" /><path transform="matrix(1 0 0 -1 0 841)" d="M292.01 269.81L424.99 269.81L424.99 269.81L424.99 270.77L424.99 270.77L292.01 270.77z" stroke="none" fill="#4F81BD" fill-rule="evenodd" /><path transform="matrix(1 0 0 -1 0 841)" d="M424.99 269.81L425.95 269.81L425.95 269.81L425.95 270.77L425.95 270.77L424.99 270.77z" stroke="none" fill="#4F81BD" fill-rule="evenodd" /><path transform="matrix(1 0 0 -1 0 841)" d="M425.95 269.81L549.33 269.81L549.33 269.81L549.33 270.77L549.33 270.77L425.95 270.77z" stroke="none" fill="#4F81BD" fill-rule="evenodd" /><path transform="matrix(1 0 0 -1 0 841)" d="M549.34 269.81L550.3 269.81L550.3 269.81L550.3 270.77L550.3 270.77L549.34 270.77z" stroke="none" fill="#4F81BD" fill-rule="evenodd" /><path transform="matrix(1 0 0 -1 0 841)" d="M549.34 269.81L550.3 269.81L550.3 269.81L550.3 270.77L550.3 270.77L549.34 270.77z" stroke="none" fill="#4F81BD" fill-rule="evenodd" /><path transform="matrix(1 0 0 -1 0 841)" d="M42.36 244.01L43.32 244.01L43.32 244.01L43.32 269.81L43.32 269.81L42.36 269.81z" stroke="none" fill="#4F81BD" fill-rule="evenodd" /><path transform="matrix(1 0 0 -1 0 841)" d="M166.1 244.01L167.06 244.01L167.06 244.01L167.06 269.81L167.06 269.81L166.1 269.81z" stroke="none" fill="#4F81BD" fill-rule="evenodd" /><path transform="matrix(1 0 0 -1 0 841)" d="M291.05 244.01L292.01 244.01L292.01 244.01L292.01 269.81L292.01 269.81L291.05 269.81z" stroke="none" fill="#4F81BD" fill-rule="evenodd" /><path transform="matrix(1 0 0 -1 0 841)" d="M424.99 244.01L425.95 244.01L425.95 244.01L425.95 269.81L425.95 269.81L424.99 269.81z" stroke="none" fill="#4F81BD" fill-rule="evenodd" /><path transform="matrix(1 0 0 -1 0 841)" d="M549.34 244.01L550.3 244.01L550.3 244.01L550.3 269.81L550.3 269.81L549.34 269.81z" stroke="none" fill="#4F81BD" fill-rule="evenodd" /><path transform="matrix(1 0 0 -1 0 841)" d="M43.32 216.77L48.24 216.77L48.24 216.77L48.24 241.73L48.24 241.73L43.32 241.73z" stroke="none" fill="#D3DFEE" fill-rule="evenodd" /><path transform="matrix(1 0 0 -1 0 841)" d="M161.18 216.77L166.1 216.77L166.1 216.77L166.1 241.73L166.1 241.73L161.18 241.73z" stroke="none" fill="#D3DFEE" fill-rule="evenodd" /><g clip-path="url(#21)"><path transform="matrix(1 0 0 -1 0 841)" d="M48.24 216.77L161.18 216.77L161.18 216.77L161.18 241.73L161.18 241.73L48.24 241.73z" stroke="none" fill="#D3DFEE" fill-rule="evenodd" /><g clip-path="url(#22)"></g><g clip-path="url(#23)"></g><g clip-path="url(#24)"></g><g clip-path="url(#25)"></g><g clip-path="url(#26)"></g><g clip-path="url(#27)"></g><g clip-path="url(#28)"></g><g clip-path="url(#29)"></g></g><path transform="matrix(1 0 0 -1 0 841)" d="M167.06 239.33L290.92 239.33L290.92 239.33L290.92 241.73L290.92 241.73L167.06 241.73z" stroke="none" fill="#D3DFEE" fill-rule="evenodd" /><path transform="matrix(1 0 0 -1 0 841)" d="M167.06 219.29L171.98 219.29L171.98 219.29L171.98 239.33L171.98 239.33L167.06 239.33z" stroke="none" fill="#D3DFEE" fill-rule="evenodd" /><path transform="matrix(1 0 0 -1 0 841)" d="M286.01 219.29L290.93 219.29L290.93 219.29L290.93 239.33L290.93 239.33L286.01 239.33z" stroke="none" fill="#D3DFEE" fill-rule="evenodd" /><path transform="matrix(1 0 0 -1 0 841)" d="M167.06 216.77L290.92 216.77L290.92 216.77L290.92 219.29L290.92 219.29L167.06 219.29z" stroke="none" fill="#D3DFEE" fill-rule="evenodd" /><g clip-path="url(#30)"><path transform="matrix(1 0 0 -1 0 841)" d="M171.98 219.29L286 219.29L286 219.29L286 239.33L286 239.33L171.98 239.33z" stroke="none" fill="#D3DFEE" fill-rule="evenodd" /><g clip-path="url(#31)"></g><g clip-path="url(#32)"></g></g><path transform="matrix(1 0 0 -1 0 841)" d="M291.89 239.33L424.87 239.33L424.87 239.33L424.87 241.73L424.87 241.73L291.89 241.73z" stroke="none" fill="#D3DFEE" fill-rule="evenodd" /><path transform="matrix(1 0 0 -1 0 841)" d="M291.89 219.29L296.81 219.29L296.81 219.29L296.81 239.33L296.81 239.33L291.89 239.33z" stroke="none" fill="#D3DFEE" fill-rule="evenodd" /><path transform="matrix(1 0 0 -1 0 841)" d="M419.95 219.29L424.87 219.29L424.87 219.29L424.87 239.33L424.87 239.33L419.95 239.33z" stroke="none" fill="#D3DFEE" fill-rule="evenodd" /><path transform="matrix(1 0 0 -1 0 841)" d="M291.89 216.77L424.87 216.77L424.87 216.77L424.87 219.29L424.87 219.29L291.89 219.29z" stroke="none" fill="#D3DFEE" fill-rule="evenodd" /><g clip-path="url(#33)"><path transform="matrix(1 0 0 -1 0 841)" d="M296.81 219.29L419.95 219.29L419.95 219.29L419.95 239.33L419.95 239.33L296.81 239.33z" stroke="none" fill="#D3DFEE" fill-rule="evenodd" /><g clip-path="url(#34)"></g><g clip-path="url(#35)"></g></g><path transform="matrix(1 0 0 -1 0 841)" d="M425.83 216.77L430.75 216.77L430.75 216.77L430.75 241.73L430.75 241.73L425.83 241.73z" stroke="none" fill="#D3DFEE" fill-rule="evenodd" /><path transform="matrix(1 0 0 -1 0 841)" d="M544.3 216.77L549.22 216.77L549.22 216.77L549.22 241.73L549.22 241.73L544.3 241.73z" stroke="none" fill="#D3DFEE" fill-rule="evenodd" /><g clip-path="url(#36)"><path transform="matrix(1 0 0 -1 0 841)" d="M430.75 216.77L544.29 216.77L544.29 216.77L544.29 241.73L544.29 241.73L430.75 241.73z" stroke="none" fill="#D3DFEE" fill-rule="evenodd" /><g clip-path="url(#37)"></g><g clip-path="url(#38)"></g></g><path transform="matrix(1 0 0 -1 0 841)" d="M42.36 241.73L43.32 241.73L43.32 241.73L43.32 244.01L43.32 244.01L42.36 244.01z" stroke="none" fill="#4F81BD" fill-rule="evenodd" /><path transform="matrix(1 0 0 -1 0 841)" d="M43.32 241.85L166.1 241.85L166.1 241.85L166.1 244.01L166.1 244.01L43.32 244.01z" stroke="none" fill="#4F81BD" fill-rule="evenodd" /><path transform="matrix(1 0 0 -1 0 841)" d="M43.32 241.73L166.1 241.73L166.1 241.73L166.1 241.85L166.1 241.85L43.32 241.85z" stroke="none" fill="#D3DFEE" fill-rule="evenodd" /><path transform="matrix(1 0 0 -1 0 841)" d="M167.06 241.73L168.26 241.73L168.26 241.73L168.26 241.85L168.26 241.85L167.06 241.85z" stroke="none" fill="#D3DFEE" fill-rule="evenodd" /><path transform="matrix(1 0 0 -1 0 841)" d="M166.1 241.73L167.06 241.73L167.06 241.73L167.06 241.85L167.06 241.85L166.1 241.85z" stroke="none" fill="#4F81BD" fill-rule="evenodd" /><path transform="matrix(1 0 0 -1 0 841)" d="M166.1 241.85L168.26 241.85L168.26 241.85L168.26 244.01L168.26 244.01L166.1 244.01z" stroke="none" fill="#4F81BD" fill-rule="evenodd" /><path transform="matrix(1 0 0 -1 0 841)" d="M168.26 241.85L291.04 241.85L291.04 241.85L291.04 244.01L291.04 244.01L168.26 244.01z" stroke="none" fill="#4F81BD" fill-rule="evenodd" /><path transform="matrix(1 0 0 -1 0 841)" d="M168.26 241.73L291.04 241.73L291.04 241.73L291.04 241.85L291.04 241.85L168.26 241.85z" stroke="none" fill="#D3DFEE" fill-rule="evenodd" /><path transform="matrix(1 0 0 -1 0 841)" d="M292.01 241.73L293.21 241.73L293.21 241.73L293.21 241.85L293.21 241.85L292.01 241.85z" stroke="none" fill="#D3DFEE" fill-rule="evenodd" /><path transform="matrix(1 0 0 -1 0 841)" d="M291.05 241.73L292.01 241.73L292.01 241.73L292.01 241.85L292.01 241.85L291.05 241.85z" stroke="none" fill="#4F81BD" fill-rule="evenodd" /><path transform="matrix(1 0 0 -1 0 841)" d="M291.05 241.85L293.21 241.85L293.21 241.85L293.21 244.01L293.21 244.01L291.05 244.01z" stroke="none" fill="#4F81BD" fill-rule="evenodd" /><path transform="matrix(1 0 0 -1 0 841)" d="M293.21 241.85L424.99 241.85L424.99 241.85L424.99 244.01L424.99 244.01L293.21 244.01z" stroke="none" fill="#4F81BD" fill-rule="evenodd" /><path transform="matrix(1 0 0 -1 0 841)" d="M293.21 241.73L424.99 241.73L424.99 241.73L424.99 241.85L424.99 241.85L293.21 241.85z" stroke="none" fill="#D3DFEE" fill-rule="evenodd" /><path transform="matrix(1 0 0 -1 0 841)" d="M425.95 241.73L427.15 241.73L427.15 241.73L427.15 241.85L427.15 241.85L425.95 241.85z" stroke="none" fill="#D3DFEE" fill-rule="evenodd" /><path transform="matrix(1 0 0 -1 0 841)" d="M424.99 241.73L425.95 241.73L425.95 241.73L425.95 241.85L425.95 241.85L424.99 241.85z" stroke="none" fill="#4F81BD" fill-rule="evenodd" /><path transform="matrix(1 0 0 -1 0 841)" d="M424.99 241.85L427.15 241.85L427.15 241.85L427.15 244.01L427.15 244.01L424.99 244.01z" stroke="none" fill="#4F81BD" fill-rule="evenodd" /><path transform="matrix(1 0 0 -1 0 841)" d="M427.15 241.85L549.33 241.85L549.33 241.85L549.33 244.01L549.33 244.01L427.15 244.01z" stroke="none" fill="#4F81BD" fill-rule="evenodd" /><path transform="matrix(1 0 0 -1 0 841)" d="M427.15 241.73L549.33 241.73L549.33 241.73L549.33 241.85L549.33 241.85L427.15 241.85z" stroke="none" fill="#D3DFEE" fill-rule="evenodd" /><path transform="matrix(1 0 0 -1 0 841)" d="M549.34 241.73L550.3 241.73L550.3 241.73L550.3 244.01L550.3 244.01L549.34 244.01z" stroke="none" fill="#4F81BD" fill-rule="evenodd" /><path transform="matrix(1 0 0 -1 0 841)" d="M42.36 216.77L43.32 216.77L43.32 216.77L43.32 241.73L43.32 241.73L42.36 241.73z" stroke="none" fill="#4F81BD" fill-rule="evenodd" /><path transform="matrix(1 0 0 -1 0 841)" d="M166.1 216.77L167.06 216.77L167.06 216.77L167.06 241.73L167.06 241.73L166.1 241.73z" stroke="none" fill="#4F81BD" fill-rule="evenodd" /><path transform="matrix(1 0 0 -1 0 841)" d="M291.05 216.77L292.01 216.77L292.01 216.77L292.01 241.73L292.01 241.73L291.05 241.73z" stroke="none" fill="#4F81BD" fill-rule="evenodd" /><path transform="matrix(1 0 0 -1 0 841)" d="M424.99 216.77L425.95 216.77L425.95 216.77L425.95 241.73L425.95 241.73L424.99 241.73z" stroke="none" fill="#4F81BD" fill-rule="evenodd" /><path transform="matrix(1 0 0 -1 0 841)" d="M549.34 216.77L550.3 216.77L550.3 216.77L550.3 241.73L550.3 241.73L549.34 241.73z" stroke="none" fill="#4F81BD" fill-rule="evenodd" /><g clip-path="url(#39)"><g clip-path="url(#40)"></g><g clip-path="url(#41)"></g><g clip-path="url(#42)"></g><g clip-path="url(#43)"></g><g clip-path="url(#44)"></g></g><g clip-path="url(#45)"><g clip-path="url(#46)"></g><g clip-path="url(#47)"></g></g><g clip-path="url(#48)"><g clip-path="url(#49)"></g><g clip-path="url(#50)"></g></g><g clip-path="url(#51)"><g clip-path="url(#52)"></g><g clip-path="url(#53)"></g><g clip-path="url(#54)"></g></g><path transform="matrix(1 0 0 -1 0 841)" d="M42.36 215.81L43.32 215.81L43.32 215.81L43.32 216.77L43.32 216.77L42.36 216.77z" stroke="none" fill="#4F81BD" fill-rule="evenodd" /><path transform="matrix(1 0 0 -1 0 841)" d="M43.32 215.81L166.1 215.81L166.1 215.81L166.1 216.77L166.1 216.77L43.32 216.77z" stroke="none" fill="#4F81BD" fill-rule="evenodd" /><path transform="matrix(1 0 0 -1 0 841)" d="M166.1 215.81L167.06 215.81L167.06 215.81L167.06 216.77L167.06 216.77L166.1 216.77z" stroke="none" fill="#4F81BD" fill-rule="evenodd" /><path transform="matrix(1 0 0 -1 0 841)" d="M167.06 215.81L291.04 215.81L291.04 215.81L291.04 216.77L291.04 216.77L167.06 216.77z" stroke="none" fill="#4F81BD" fill-rule="evenodd" /><path transform="matrix(1 0 0 -1 0 841)" d="M291.05 215.81L292.01 215.81L292.01 215.81L292.01 216.77L292.01 216.77L291.05 216.77z" stroke="none" fill="#4F81BD" fill-rule="evenodd" /><path transform="matrix(1 0 0 -1 0 841)" d="M292.01 215.81L424.99 215.81L424.99 215.81L424.99 216.77L424.99 216.77L292.01 216.77z" stroke="none" fill="#4F81BD" fill-rule="evenodd" /><path transform="matrix(1 0 0 -1 0 841)" d="M424.99 215.81L425.95 215.81L425.95 215.81L425.95 216.77L425.95 216.77L424.99 216.77z" stroke="none" fill="#4F81BD" fill-rule="evenodd" /><path transform="matrix(1 0 0 -1 0 841)" d="M425.95 215.81L549.33 215.81L549.33 215.81L549.33 216.77L549.33 216.77L425.95 216.77z" stroke="none" fill="#4F81BD" fill-rule="evenodd" /><path transform="matrix(1 0 0 -1 0 841)" d="M549.34 215.81L550.3 215.81L550.3 215.81L550.3 216.77L550.3 216.77L549.34 216.77z" stroke="none" fill="#4F81BD" fill-rule="evenodd" /><path transform="matrix(1 0 0 -1 0 841)" d="M42.36 190.85L43.32 190.85L43.32 190.85L43.32 215.81L43.32 215.81L42.36 215.81z" stroke="none" fill="#4F81BD" fill-rule="evenodd" /><path transform="matrix(1 0 0 -1 0 841)" d="M42.36 189.89L43.32 189.89L43.32 189.89L43.32 190.85L43.32 190.85L42.36 190.85z" stroke="none" fill="#4F81BD" fill-rule="evenodd" /><path transform="matrix(1 0 0 -1 0 841)" d="M42.36 189.89L43.32 189.89L43.32 189.89L43.32 190.85L43.32 190.85L42.36 190.85z" stroke="none" fill="#4F81BD" fill-rule="evenodd" /><path transform="matrix(1 0 0 -1 0 841)" d="M43.32 189.89L166.1 189.89L166.1 189.89L166.1 190.85L166.1 190.85L43.32 190.85z" stroke="none" fill="#4F81BD" fill-rule="evenodd" /><path transform="matrix(1 0 0 -1 0 841)" d="M166.1 190.85L167.06 190.85L167.06 190.85L167.06 215.81L167.06 215.81L166.1 215.81z" stroke="none" fill="#4F81BD" fill-rule="evenodd" /><path transform="matrix(1 0 0 -1 0 841)" d="M166.1 189.89L167.06 189.89L167.06 189.89L167.06 190.85L167.06 190.85L166.1 190.85z" stroke="none" fill="#4F81BD" fill-rule="evenodd" /><path transform="matrix(1 0 0 -1 0 841)" d="M167.06 189.89L291.04 189.89L291.04 189.89L291.04 190.85L291.04 190.85L167.06 190.85z" stroke="none" fill="#4F81BD" fill-rule="evenodd" /><path transform="matrix(1 0 0 -1 0 841)" d="M291.05 190.85L292.01 190.85L292.01 190.85L292.01 215.81L292.01 215.81L291.05 215.81z" stroke="none" fill="#4F81BD" fill-rule="evenodd" /><path transform="matrix(1 0 0 -1 0 841)" d="M291.05 189.89L292.01 189.89L292.01 189.89L292.01 190.85L292.01 190.85L291.05 190.85z" stroke="none" fill="#4F81BD" fill-rule="evenodd" /><path transform="matrix(1 0 0 -1 0 841)" d="M292.01 189.89L424.99 189.89L424.99 189.89L424.99 190.85L424.99 190.85L292.01 190.85z" stroke="none" fill="#4F81BD" fill-rule="evenodd" /><path transform="matrix(1 0 0 -1 0 841)" d="M424.99 190.85L425.95 190.85L425.95 190.85L425.95 215.81L425.95 215.81L424.99 215.81z" stroke="none" fill="#4F81BD" fill-rule="evenodd" /><path transform="matrix(1 0 0 -1 0 841)" d="M424.99 189.89L425.95 189.89L425.95 189.89L425.95 190.85L425.95 190.85L424.99 190.85z" stroke="none" fill="#4F81BD" fill-rule="evenodd" /><path transform="matrix(1 0 0 -1 0 841)" d="M425.95 189.89L549.33 189.89L549.33 189.89L549.33 190.85L549.33 190.85L425.95 190.85z" stroke="none" fill="#4F81BD" fill-rule="evenodd" /><path transform="matrix(1 0 0 -1 0 841)" d="M549.34 190.85L550.3 190.85L550.3 190.85L550.3 215.81L550.3 215.81L549.34 215.81z" stroke="none" fill="#4F81BD" fill-rule="evenodd" /><path transform="matrix(1 0 0 -1 0 841)" d="M549.34 189.89L550.3 189.89L550.3 189.89L550.3 190.85L550.3 190.85L549.34 190.85z" stroke="none" fill="#4F81BD" fill-rule="evenodd" /><path transform="matrix(1 0 0 -1 0 841)" d="M549.34 189.89L550.3 189.89L550.3 189.89L550.3 190.85L550.3 190.85L549.34 190.85z" stroke="none" fill="#4F81BD" fill-rule="evenodd" /></g></g></g></svg>