<svg xmlns="http://www.w3.org/2000/svg" xmlns:xlink="http://www.w3.org/1999/xlink" id="body_1" preserveAspectRatio="xMinYMin meet" viewBox="0 0 793 1121"><defs><clipPath id="1"><path d="M0 841L0 -0.9199829L0 -0.9199829L595.32 -0.9199829L595.32 -0.9199829L595.32 841L595.32 841L0 841z" /></clipPath><clipPath id="2"><path d="M-0.48 406.48L595.2 406.48L595.2 406.48L595.2 310.72L595.2 310.72L-0.48 310.72z" /></clipPath><clipPath id="3"><path d="M-0.48 406.48L595.2 406.48L595.2 406.48L595.2 310.72L595.2 310.72L-0.48 310.72z" /></clipPath><clipPath id="4"><path d="M-0.48 263.44L595.2 263.44L595.2 263.44L595.2 232.96L595.2 232.96L-0.48 232.96z" /></clipPath><clipPath id="5"><path d="M-0.48 263.44L595.2 263.44L595.2 263.44L595.2 232.96L595.2 232.96L-0.48 232.96z" /></clipPath><clipPath id="6"><path d="M-0.48 263.44L595.2 263.44L595.2 263.44L595.2 232.96L595.2 232.96L-0.48 232.96z" /></clipPath><clipPath id="7"><path d="M-0.48 263.44L595.2 263.44L595.2 263.44L595.2 232.96L595.2 232.96L-0.48 232.96z" /></clipPath><clipPath id="8"><path d="M-0.48 263.44L595.2 263.44L595.2 263.44L595.2 232.96L595.2 232.96L-0.48 232.96z" /></clipPath><clipPath id="9"><path d="M-0.48 263.44L595.2 263.44L595.2 263.44L595.2 232.96L595.2 232.96L-0.48 232.96z" /></clipPath></defs><g transform="matrix(1.333333 0 0 1.333333 0 0)"><g><g clip-path="url(#1)"><path transform="matrix(1 0 0 -1 0 841)" d="M-0.75 430.67L595.5 430.67L595.5 430.67L595.5 534.17L595.5 534.17L-0.75 534.17z" stroke="none" fill="#FFFFFF" fill-rule="evenodd" /><g transform="matrix(0.3601451 0 0 0.3613585 -0.48 310.72)"><g transform="matrix(1 0 0 1 0 0)"><image x="0" y="0" xlink:href="img_01.png" width="1654" height="265" /></g></g><g clip-path="url(#2)"></g><g clip-path="url(#3)"></g><path transform="matrix(1 0 0 -1 0 841)" d="M-0.75 573.62L595.5 573.62L595.5 573.62L595.5 611.87L595.5 611.87L-0.75 611.87z" stroke="none" fill="#FFFFFF" fill-rule="evenodd" /><g transform="matrix(0.3601451 0 0 0.3642857 -0.48 232.96)"><g transform="matrix(1 0 0 1 0 0)"><image x="0" y="0" xlink:href="img_02.png" width="1654" height="84" /></g></g><g clip-path="url(#4)"><g transform="matrix(0.1200901 0 0 0.12 138.5 238.5)"><g transform="matrix(1 0 0 1 0 0)"><image x="0" y="0" xlink:href="img_03.png" width="666" height="167" /></g></g></g><g clip-path="url(#5)"><g transform="matrix(0.1201384 0 0 0.12 202.49 238.5)"><g transform="matrix(1 0 0 1 0 0)"><image x="0" y="0" xlink:href="img_04.png" width="578" height="167" /></g></g></g><g clip-path="url(#6)"></g><g clip-path="url(#7)"></g><g clip-path="url(#8)"></g><g clip-path="url(#9)"><g transform="matrix(0.12005 0 0 0.12 328.27 238.5)"><g transform="matrix(1 0 0 1 0 0)"><image x="0" y="0" xlink:href="img_05.png" width="1201" height="167" /></g></g></g><path transform="matrix(1 0 0 -1 0 841)" d="M34.65 207.07L562 207.07" stroke="#000000" stroke-width="0.75" fill="none" /><path transform="matrix(1 0 0 -1 0 841)" d="M12.6 229.87L580.15 229.87L580.15 229.87L580.15 331.27L580.15 331.27L12.6 331.27z" stroke="none" fill="#FFFFFF" fill-rule="evenodd" /><g transform="matrix(0.3600762 0 0 0.36 12.84 513.64)"><g transform="matrix(1 0 0 1 0 0)"><image x="0" y="0" xlink:href="img_06.png" width="1575" height="260" /></g></g><path transform="matrix(1 0 0 -1 0 841)" d="M17.7 39.92L585.25 39.92L585.25 39.92L585.25 177.37L585.25 177.37L17.7 177.37z" stroke="none" fill="#FFFFFF" fill-rule="evenodd" /><g transform="matrix(0.3602287 0 0 0.3603334 18 667.48)"><g transform="matrix(1 0 0 1 0 0)"><image x="0" y="0" xlink:href="img_07.png" width="1574" height="360" /></g></g></g></g></g></svg>