<svg xmlns="http://www.w3.org/2000/svg" xmlns:xlink="http://www.w3.org/1999/xlink" id="body_76" preserveAspectRatio="xMinYMin meet" viewBox="0 0 793 1121"><defs><clipPath id="1"><path d="M0 841L0 -0.9199829L0 -0.9199829L595.32 -0.9199829L595.32 -0.9199829L595.32 841L595.32 841L0 841z" /></clipPath><clipPath id="2"><path d="M369.72 32.79999L516.96 32.79999L516.96 32.79999L516.96 17.91998L516.96 17.91998L369.72 17.91998z" /></clipPath><clipPath id="3"><path d="M369.72 32.79999L516.96 32.79999L516.96 32.79999L516.96 17.91998L516.96 17.91998L369.72 17.91998z" /></clipPath><clipPath id="4"><path d="M369.72 32.79999L516.96 32.79999L516.96 32.79999L516.96 17.91998L516.96 17.91998L369.72 17.91998z" /></clipPath><clipPath id="5"><path d="M369.72 32.79999L516.96 32.79999L516.96 32.79999L516.96 17.91998L516.96 17.91998L369.72 17.91998z" /></clipPath><clipPath id="6"><path d="M492.96 54.40002L551.04 54.40002L551.04 54.40002L551.04 36.64001L551.04 36.64001L492.96 36.64001z" /></clipPath><clipPath id="7"><path d="M492.96 54.40002L551.04 54.40002L551.04 54.40002L551.04 36.64001L551.04 36.64001L492.96 36.64001z" /></clipPath><clipPath id="8"><path d="M378.72 828.88L522.72 828.88L522.72 828.88L522.72 807.28L522.72 807.28L378.72 807.28z" /></clipPath><clipPath id="9"><path d="M378.72 828.88L522.72 828.88L522.72 828.88L522.72 807.28L522.72 807.28L378.72 807.28z" /></clipPath></defs><g transform="matrix(1.333333 0 0 1.333333 0 0)"><g><g clip-path="url(#1)"><g transform="matrix(0.3608824 0 0 0.3658536 369.72 17.91998)"><g transform="matrix(1 0 0 1 0 0)"><image x="0" y="0" xlink:href="img_09.png" width="408" height="41" /></g></g><g clip-path="url(#2)"></g><g clip-path="url(#3)"></g><g clip-path="url(#4)"></g><g clip-path="url(#5)"></g><g transform="matrix(0.3607454 0 0 0.3648979 492.96 36.64001)"><g transform="matrix(1 0 0 1 0 0)"><image x="0" y="0" xlink:href="img_10.png" width="161" height="49" /></g></g><g clip-path="url(#6)"></g><g clip-path="url(#7)"></g><path transform="matrix(1 0 0 -1 0 841)" d="M350.9 802.87C 350.9 805.63 353.14 807.87 355.9 807.87L355.9 807.87L545.45 807.87C 548.21 807.87 550.45 805.63 550.45 802.87L550.45 802.87L550.45 782.87C 550.45 780.11 548.21 777.87 545.45 777.87L545.45 777.87L355.9 777.87C 353.14 777.87 350.9 780.11 350.9 782.87z" stroke="#A6A6A6" stroke-width="1" stroke-dasharray="3,1" fill="none" /><path transform="matrix(1 0 0 -1 0 841)" d="M348 828.17C 348 831.62 350.8 834.42 354.25 834.42L354.25 834.42L379.25 834.42C 382.7 834.42 385.5 831.62 385.5 828.17L385.5 828.17L385.5 782.92C 385.5 779.47 382.7 776.67 379.25 776.67L379.25 776.67L354.25 776.67C 350.8 776.67 348 779.47 348 782.92z" stroke="none" fill="#FFFFFF" fill-rule="evenodd" /><path transform="matrix(1 0 0 -1 0 841)" d="M348 828.17C 348 831.62 350.8 834.42 354.25 834.42L354.25 834.42L379.25 834.42C 382.7 834.42 385.5 831.62 385.5 828.17L385.5 828.17L385.5 782.92C 385.5 779.47 382.7 776.67 379.25 776.67L379.25 776.67L354.25 776.67C 350.8 776.67 348 779.47 348 782.92z" stroke="#FFFFFF" stroke-width="2" fill="none" /><path transform="matrix(1 0 0 -1 0 841)" d="M385.5 780.79C 385.5 781.83 386.34 782.67 387.38 782.67L387.38 782.67L556.87 782.67C 557.91 782.67 558.75 781.83 558.75 780.79L558.75 780.79L558.75 773.3C 558.75 772.26 557.91 771.42 556.87 771.42L556.87 771.42L387.38 771.42C 386.34 771.42 385.5 772.26 385.5 773.3z" stroke="none" fill="#FFFFFF" fill-rule="evenodd" /><path transform="matrix(1 0 0 -1 0 841)" d="M385.5 780.79C 385.5 781.83 386.34 782.67 387.38 782.67L387.38 782.67L556.87 782.67C 557.91 782.67 558.75 781.83 558.75 780.79L558.75 780.79L558.75 773.3C 558.75 772.26 557.91 771.42 556.87 771.42L556.87 771.42L387.38 771.42C 386.34 771.42 385.5 772.26 385.5 773.3z" stroke="#FFFFFF" stroke-width="2" fill="none" /><path transform="matrix(1 0 0 -1 0 841)" d="M354.4 61.195C 354.4 66.566 358.75 70.92 364.13 70.92L364.13 70.92L544.22 70.92C 549.6 70.92 553.95 66.566 553.95 61.195L553.95 61.195L553.95 22.295C 553.95 16.924 549.6 12.57 544.22 12.57L544.22 12.57L364.13 12.57C 358.75 12.57 354.4 16.924 354.4 22.295z" stroke="#A6A6A6" stroke-width="1" stroke-dasharray="3,1" fill="none" /><path transform="matrix(1 0 0 -1 0 841)" d="M354.45 73.174C 354.45 74.9 355.85 76.299 357.57 76.299L357.57 76.299L555.12 76.299C 556.85 76.299 558.25 74.9 558.25 73.174L558.25 73.174L558.25 60.674C 558.25 58.948 556.85 57.549 555.12 57.549L555.12 57.549L357.57 57.549C 355.85 57.549 354.45 58.948 354.45 60.674z" stroke="none" fill="#FFFFFF" fill-rule="evenodd" /><path transform="matrix(1 0 0 -1 0 841)" d="M354.45 73.174C 354.45 74.9 355.85 76.299 357.57 76.299L357.57 76.299L555.12 76.299C 556.85 76.299 558.25 74.9 558.25 73.174L558.25 73.174L558.25 60.674C 558.25 58.948 556.85 57.549 555.12 57.549L555.12 57.549L357.57 57.549C 355.85 57.549 354.45 58.948 354.45 60.674z" stroke="#FFFFFF" stroke-width="2" fill="none" /><path transform="matrix(1 0 0 -1 0 841)" d="M330.75 61.074C 330.75 67.909 336.29 73.449 343.13 73.449L343.13 73.449L406.12 73.449C 412.96 73.449 418.5 67.909 418.5 61.074L418.5 61.074L418.5 11.574C 418.5 4.7397 412.96 -0.8009 406.12 -0.8009L406.12 -0.8009L343.13 -0.8009C 336.29 -0.8009 330.75 4.7397 330.75 11.574z" stroke="none" fill="#FFFFFF" fill-rule="evenodd" /><path transform="matrix(1 0 0 -1 0 841)" d="M330.75 61.074C 330.75 67.909 336.29 73.449 343.13 73.449L343.13 73.449L406.12 73.449C 412.96 73.449 418.5 67.909 418.5 61.074L418.5 61.074L418.5 11.574C 418.5 4.7397 412.96 -0.8009 406.12 -0.8009L406.12 -0.8009L343.13 -0.8009C 336.29 -0.8009 330.75 4.7397 330.75 11.574z" stroke="#FFFFFF" stroke-width="2" fill="none" /><path transform="matrix(1 0 0 -1 0 841)" d="M524.5 26.453C 524.5 29.086 526.63 31.22 529.27 31.22L529.27 31.22L566.18 31.22C 568.82 31.22 570.95 29.086 570.95 26.453L570.95 26.453L570.95 7.3869C 570.95 4.7543 568.82 2.6202 566.18 2.6202L566.18 2.6202L529.27 2.6202C 526.63 2.6202 524.5 4.7543 524.5 7.3869z" stroke="#A6A6A6" stroke-width="1" stroke-dasharray="3,1" fill="none" /><path transform="matrix(1 0 0 -1 0 841)" d="M556.25 34.299C 556.25 36.094 557.71 37.549 559.5 37.549L559.5 37.549L572.5 37.549C 574.29 37.549 575.75 36.094 575.75 34.299L575.75 34.299L575.75 -2.7007C 575.75 -4.4957 574.29 -5.9508 572.5 -5.9508L572.5 -5.9508L559.5 -5.9508C 557.71 -5.9508 556.25 -4.4957 556.25 -2.7007z" stroke="none" fill="#FFFFFF" fill-rule="evenodd" /><path transform="matrix(1 0 0 -1 0 841)" d="M556.25 34.299C 556.25 36.094 557.71 37.549 559.5 37.549L559.5 37.549L572.5 37.549C 574.29 37.549 575.75 36.094 575.75 34.299L575.75 34.299L575.75 -2.7007C 575.75 -4.4957 574.29 -5.9508 572.5 -5.9508L572.5 -5.9508L559.5 -5.9508C 557.71 -5.9508 556.25 -4.4957 556.25 -2.7007z" stroke="#FFFFFF" stroke-width="2" fill="none" /><g transform="matrix(0.3603 0 0 0.3661017 378.72 807.28)"><g transform="matrix(1 0 0 1 0 0)"><image x="0" y="0" xlink:href="img_11.png" width="400" height="59" /></g></g><g clip-path="url(#8)"></g><g clip-path="url(#9)"></g><path transform="matrix(1 0 0 -1 0 841)" d="M491.9 7.7491C 491.9 9.1299 493.02 10.249 494.4 10.249L494.4 10.249L548.6 10.249C 549.98 10.249 551.1 9.1299 551.1 7.7491L551.1 7.7491L551.1 -2.2507C 551.1 -3.6315 549.98 -4.7508 548.6 -4.7508L548.6 -4.7508L494.4 -4.7508C 493.02 -4.7508 491.9 -3.6315 491.9 -2.2507z" stroke="none" fill="#FFFFFF" fill-rule="evenodd" /><path transform="matrix(1 0 0 -1 0 841)" d="M491.9 7.7491C 491.9 9.1299 493.02 10.249 494.4 10.249L494.4 10.249L548.6 10.249C 549.98 10.249 551.1 9.1299 551.1 7.7491L551.1 7.7491L551.1 -2.2507C 551.1 -3.6315 549.98 -4.7508 548.6 -4.7508L548.6 -4.7508L494.4 -4.7508C 493.02 -4.7508 491.9 -3.6315 491.9 -2.2507z" stroke="#FFFFFF" stroke-width="2" fill="none" /><path transform="matrix(1 0 0 -1 0 841)" d="M468 223.39C 468 243.07 483.95 259.02 503.63 259.02C 523.3 259.02 539.25 243.07 539.25 223.39C 539.25 203.72 523.3 187.77 503.63 187.77C 483.95 187.77 468 203.72 468 223.39z" stroke="none" fill="#FFFFFF" fill-rule="evenodd" /><path transform="matrix(1 0 0 -1 0 841)" d="M468 223.39C 468 243.07 483.95 259.02 503.63 259.02C 523.3 259.02 539.25 243.07 539.25 223.39C 539.25 203.72 523.3 187.77 503.63 187.77C 483.95 187.77 468 203.72 468 223.39z" stroke="#A6A6A6" stroke-width="1" fill="none" /><g transform="matrix(0.3582857 0 0 0.3582857 463.32 583.6)"><g transform="matrix(1 0 0 1 0 0)"><image x="0" y="0" xlink:href="img_502.png" width="70" height="70" /></g></g><path transform="matrix(1 0 0 -1 0 841)" d="M467.25 255.27L484.5 238.02" stroke="#000000" stroke-width="1.5" fill="none" /><g transform="matrix(0.3547826 0 0 0.36 499.92 569.92)"><g transform="matrix(1 0 0 1 0 0)"><image x="0" y="0" xlink:href="img_503.png" width="23" height="98" /></g></g><path transform="matrix(1 0 0 -1 0 841)" d="M504 269.52L504 241.02" stroke="#000000" stroke-width="1.5" fill="none" /><g transform="matrix(0.3618461 0 0 0.3619672 519.6 585.16)"><g transform="matrix(1 0 0 1 0 0)"><image x="0" y="0" xlink:href="img_504.png" width="65" height="61" /></g></g><path transform="matrix(1 0 0 -1 0 841)" d="M539.3 253.77L523.5 239.52" stroke="#000000" stroke-width="1.5" fill="none" /><g transform="matrix(0.3614118 0 0 0.36 526.92 614.92)"><g transform="matrix(1 0 0 1 0 0)"><image x="0" y="0" xlink:href="img_505.png" width="85" height="23" /></g></g><path transform="matrix(1 0 0 -1 0 841)" d="M554.25 223.77L530.25 223.77" stroke="#000000" stroke-width="1.5" fill="none" /><g transform="matrix(0.3586046 0 0 0.36 451.08 614.92)"><g transform="matrix(1 0 0 1 0 0)"><image x="0" y="0" xlink:href="img_506.png" width="86" height="23" /></g></g><path transform="matrix(1 0 0 -1 0 841)" d="M478.5 223.77L454.5 223.77" stroke="#000000" stroke-width="1.5" fill="none" /><g transform="matrix(0.3618461 0 0 0.3619672 464.88 631.6)"><g transform="matrix(1 0 0 1 0 0)"><image x="0" y="0" xlink:href="img_507.png" width="65" height="61" /></g></g><path transform="matrix(1 0 0 -1 0 841)" d="M484.55 207.27L468.75 193.02" stroke="#000000" stroke-width="1.5" fill="none" /><g transform="matrix(0.3582857 0 0 0.3617391 516.6 632.44)"><g transform="matrix(1 0 0 1 0 0)"><image x="0" y="0" xlink:href="img_508.png" width="70" height="69" /></g></g><path transform="matrix(1 0 0 -1 0 841)" d="M520.5 206.52L537.75 189.27" stroke="#000000" stroke-width="1.5" fill="none" /><g transform="matrix(0.3547826 0 0 0.36 499.92 638.92)"><g transform="matrix(1 0 0 1 0 0)"><image x="0" y="0" xlink:href="img_503.png" width="23" height="98" /></g></g><path transform="matrix(1 0 0 -1 0 841)" d="M504 200.52L504 172.02" stroke="#000000" stroke-width="1.5" fill="none" /><path transform="matrix(1 0 0 -1 0 841)" d="M447.75 263.8C 447.75 270.27 453 275.52 459.47 275.52L459.47 275.52L551.33 275.52C 557.8 275.52 563.05 270.27 563.05 263.8L563.05 263.8L563.05 59.987C 563.05 53.516 557.8 48.27 551.33 48.27L551.33 48.27L459.47 48.27C 453 48.27 447.75 53.516 447.75 59.987z" stroke="#A6A6A6" stroke-width="1" stroke-dasharray="3,1" fill="none" /><path transform="matrix(1 0 0 -1 0 841)" d="M469.5 100.39C 469.5 120.07 485.44 136.02 505.11 136.02C 524.78 136.02 540.73 120.07 540.73 100.39C 540.73 80.72 524.78 64.77 505.11 64.77C 485.44 64.77 469.5 80.72 469.5 100.39z" stroke="none" fill="#FFFFFF" fill-rule="evenodd" /><path transform="matrix(1 0 0 -1 0 841)" d="M469.5 100.39C 469.5 120.07 485.44 136.02 505.11 136.02C 524.78 136.02 540.73 120.07 540.73 100.39C 540.73 80.72 524.78 64.77 505.11 64.77C 485.44 64.77 469.5 80.72 469.5 100.39z" stroke="#A6A6A6" stroke-width="1" fill="none" /><g transform="matrix(0.3617391 0 0 0.3582857 476.16 714.16)"><g transform="matrix(1 0 0 1 0 0)"><image x="0" y="0" xlink:href="img_509.png" width="69" height="70" /></g></g><path transform="matrix(1 0 0 -1 0 841)" d="M480 124.77L497.24 107.52" stroke="#000000" stroke-width="1.5" fill="none" /><g transform="matrix(0.36 0 0 0.3613187 501.36 703.48)"><g transform="matrix(1 0 0 1 0 0)"><image x="0" y="0" xlink:href="img_510.png" width="23" height="91" /></g></g><path transform="matrix(1 0 0 -1 0 841)" d="M505.49 136.02L505.49 109.77" stroke="#000000" stroke-width="1.5" fill="none" /><g transform="matrix(0.3583784 0 0 0.3582353 509.16 714.88)"><g transform="matrix(1 0 0 1 0 0)"><image x="0" y="0" xlink:href="img_511.png" width="74" height="68" /></g></g><path transform="matrix(1 0 0 -1 0 841)" d="M531.78 124.02L512.99 107.52" stroke="#000000" stroke-width="1.5" fill="none" /><g transform="matrix(0.36 0 0 0.3547826 515.64 739.48)"><g transform="matrix(1 0 0 1 0 0)"><image x="0" y="0" xlink:href="img_512.png" width="81" height="23" /></g></g><path transform="matrix(1 0 0 -1 0 841)" d="M541.4 99.27L518.98 99.27" stroke="#000000" stroke-width="1.5" fill="none" /><g transform="matrix(0.3614118 0 0 0.36 466.92 737.92)"><g transform="matrix(1 0 0 1 0 0)"><image x="0" y="0" xlink:href="img_505.png" width="85" height="23" /></g></g><path transform="matrix(1 0 0 -1 0 841)" d="M494.24 100.77L470.25 100.77" stroke="#000000" stroke-width="1.5" fill="none" /><g transform="matrix(0.3618461 0 0 0.3619672 476.16 750.16)"><g transform="matrix(1 0 0 1 0 0)"><image x="0" y="0" xlink:href="img_513.png" width="65" height="61" /></g></g><path transform="matrix(1 0 0 -1 0 841)" d="M495.79 88.77L480 74.52" stroke="#000000" stroke-width="1.5" fill="none" /><g transform="matrix(0.3617391 0 0 0.36 509.16 750.16)"><g transform="matrix(1 0 0 1 0 0)"><image x="0" y="0" xlink:href="img_514.png" width="69" height="61" /></g></g><path transform="matrix(1 0 0 -1 0 841)" d="M512.99 88.77L530.23 74.597" stroke="#000000" stroke-width="1.5" fill="none" /><g transform="matrix(0.36 0 0 0.3583099 501.36 755.92)"><g transform="matrix(1 0 0 1 0 0)"><image x="0" y="0" xlink:href="img_515.png" width="23" height="71" /></g></g><path transform="matrix(1 0 0 -1 0 841)" d="M505.49 83.52L505.49 64.77" stroke="#000000" stroke-width="1.5" fill="none" /></g></g></g></svg>