<svg xmlns="http://www.w3.org/2000/svg" xmlns:xlink="http://www.w3.org/1999/xlink" id="body_65" preserveAspectRatio="xMinYMin meet" viewBox="0 0 793 1121"><defs><clipPath id="1"><path d="M0 841L0 -0.9199829L0 -0.9199829L595.32 -0.9199829L595.32 -0.9199829L595.32 841L595.32 841L0 841z" /></clipPath><clipPath id="2"><path d="M36.48 54.64001L180.48 54.64001L180.48 54.64001L180.48 36.88L180.48 36.88L36.48 36.88z" /></clipPath><clipPath id="3"><path d="M36.48 54.64001L180.48 54.64001L180.48 54.64001L180.48 36.88L180.48 36.88L36.48 36.88z" /></clipPath><clipPath id="4"><path d="M96.96 33.64001L236.76 33.64001L236.76 33.64001L236.76 18.64001L236.76 18.64001L96.96 18.64001z" /></clipPath><clipPath id="5"><path d="M96.96 33.64001L236.76 33.64001L236.76 33.64001L236.76 18.64001L236.76 18.64001L96.96 18.64001z" /></clipPath><clipPath id="6"><path d="M96.96 33.64001L236.76 33.64001L236.76 33.64001L236.76 18.64001L236.76 18.64001L96.96 18.64001z" /></clipPath><clipPath id="7"><path d="M66.6 844.96L299.4 844.96L299.4 844.96L299.4 810.64L299.4 810.64L66.6 810.64z" /></clipPath><clipPath id="8"><path d="M48.36 660.52L532.44 660.52L532.44 660.52L532.44 269.08L532.44 269.08L48.36 269.08z" /></clipPath><clipPath id="9"><path d="M48.36 660.52L532.44 660.52L532.44 660.52L532.44 269.08L532.44 269.08L48.36 269.08z" /></clipPath><clipPath id="10"><path d="M48.36 660.52L532.44 660.52L532.44 660.52L532.44 269.08L532.44 269.08L48.36 269.08z" /></clipPath><clipPath id="11"><path d="M48.36 660.52L532.44 660.52L532.44 660.52L532.44 269.08L532.44 269.08L48.36 269.08z" /></clipPath><clipPath id="12"><path d="M48.36 660.52L532.44 660.52L532.44 660.52L532.44 269.08L532.44 269.08L48.36 269.08z" /></clipPath><clipPath id="13"><path d="M48.36 660.52L532.44 660.52L532.44 660.52L532.44 269.08L532.44 269.08L48.36 269.08z" /></clipPath><clipPath id="14"><path d="M48.36 660.52L532.44 660.52L532.44 660.52L532.44 269.08L532.44 269.08L48.36 269.08z" /></clipPath><clipPath id="15"><path d="M48.36 660.52L532.44 660.52L532.44 660.52L532.44 269.08L532.44 269.08L48.36 269.08z" /></clipPath><clipPath id="16"><path d="M48.36 660.52L532.44 660.52L532.44 660.52L532.44 269.08L532.44 269.08L48.36 269.08z" /></clipPath><clipPath id="17"><path d="M48.36 660.52L532.44 660.52L532.44 660.52L532.44 269.08L532.44 269.08L48.36 269.08z" /></clipPath><clipPath id="18"><path d="M48.36 660.52L532.44 660.52L532.44 660.52L532.44 269.08L532.44 269.08L48.36 269.08z" /></clipPath><clipPath id="19"><path d="M48.36 660.52L532.44 660.52L532.44 660.52L532.44 269.08L532.44 269.08L48.36 269.08z" /></clipPath><clipPath id="20"><path d="M48.36 660.52L532.44 660.52L532.44 660.52L532.44 269.08L532.44 269.08L48.36 269.08z" /></clipPath><clipPath id="21"><path d="M48.36 660.52L532.44 660.52L532.44 660.52L532.44 269.08L532.44 269.08L48.36 269.08z" /></clipPath><clipPath id="22"><path d="M48.36 660.52L532.44 660.52L532.44 660.52L532.44 269.08L532.44 269.08L48.36 269.08z" /></clipPath><clipPath id="23"><path d="M48.36 660.52L532.44 660.52L532.44 660.52L532.44 269.08L532.44 269.08L48.36 269.08z" /></clipPath><clipPath id="24"><path d="M48.36 660.52L532.44 660.52L532.44 660.52L532.44 269.08L532.44 269.08L48.36 269.08z" /></clipPath><clipPath id="25"><path d="M48.36 660.52L532.44 660.52L532.44 660.52L532.44 269.08L532.44 269.08L48.36 269.08z" /></clipPath><clipPath id="26"><path d="M48.36 660.52L532.44 660.52L532.44 660.52L532.44 269.08L532.44 269.08L48.36 269.08z" /></clipPath><clipPath id="27"><path d="M48.36 660.52L532.44 660.52L532.44 660.52L532.44 269.08L532.44 269.08L48.36 269.08z" /></clipPath><clipPath id="28"><path d="M48.36 660.52L532.44 660.52L532.44 660.52L532.44 269.08L532.44 269.08L48.36 269.08z" /></clipPath><clipPath id="29"><path d="M48.36 660.52L532.44 660.52L532.44 660.52L532.44 269.08L532.44 269.08L48.36 269.08z" /></clipPath><clipPath id="30"><path d="M48.36 660.52L532.44 660.52L532.44 660.52L532.44 269.08L532.44 269.08L48.36 269.08z" /></clipPath><clipPath id="31"><path d="M48.36 660.52L532.44 660.52L532.44 660.52L532.44 269.08L532.44 269.08L48.36 269.08z" /></clipPath><clipPath id="32"><path d="M48.36 660.52L532.44 660.52L532.44 660.52L532.44 269.08L532.44 269.08L48.36 269.08z" /></clipPath><clipPath id="33"><path d="M48.36 660.52L532.44 660.52L532.44 660.52L532.44 269.08L532.44 269.08L48.36 269.08z" /></clipPath><clipPath id="34"><path d="M48.36 660.52L532.44 660.52L532.44 660.52L532.44 269.08L532.44 269.08L48.36 269.08z" /></clipPath><clipPath id="35"><path d="M48.36 660.52L532.44 660.52L532.44 660.52L532.44 269.08L532.44 269.08L48.36 269.08z" /></clipPath><clipPath id="36"><path d="M48.36 660.52L532.44 660.52L532.44 660.52L532.44 269.08L532.44 269.08L48.36 269.08z" /></clipPath><clipPath id="37"><path d="M48.36 660.52L532.44 660.52L532.44 660.52L532.44 269.08L532.44 269.08L48.36 269.08z" /></clipPath><clipPath id="38"><path d="M48.36 660.52L532.44 660.52L532.44 660.52L532.44 269.08L532.44 269.08L48.36 269.08z" /></clipPath><clipPath id="39"><path d="M48.36 660.52L532.44 660.52L532.44 660.52L532.44 269.08L532.44 269.08L48.36 269.08z" /></clipPath><clipPath id="40"><path d="M48.36 660.52L532.44 660.52L532.44 660.52L532.44 269.08L532.44 269.08L48.36 269.08z" /></clipPath><clipPath id="41"><path d="M48.36 660.52L532.44 660.52L532.44 660.52L532.44 269.08L532.44 269.08L48.36 269.08z" /></clipPath><clipPath id="42"><path d="M48.36 660.52L532.44 660.52L532.44 660.52L532.44 269.08L532.44 269.08L48.36 269.08z" /></clipPath><clipPath id="43"><path d="M48.36 660.52L532.44 660.52L532.44 660.52L532.44 269.08L532.44 269.08L48.36 269.08z" /></clipPath><clipPath id="44"><path d="M48.36 660.52L532.44 660.52L532.44 660.52L532.44 269.08L532.44 269.08L48.36 269.08z" /></clipPath><clipPath id="45"><path d="M48.36 660.52L532.44 660.52L532.44 660.52L532.44 269.08L532.44 269.08L48.36 269.08z" /></clipPath><clipPath id="46"><path d="M48.36 660.52L532.44 660.52L532.44 660.52L532.44 269.08L532.44 269.08L48.36 269.08z" /></clipPath><clipPath id="47"><path d="M48.36 660.52L532.44 660.52L532.44 660.52L532.44 269.08L532.44 269.08L48.36 269.08z" /></clipPath><clipPath id="48"><path d="M48.36 660.52L532.44 660.52L532.44 660.52L532.44 269.08L532.44 269.08L48.36 269.08z" /></clipPath><clipPath id="49"><path d="M48.36 660.52L532.44 660.52L532.44 660.52L532.44 269.08L532.44 269.08L48.36 269.08z" /></clipPath><clipPath id="50"><path d="M48.36 660.52L532.44 660.52L532.44 660.52L532.44 269.08L532.44 269.08L48.36 269.08z" /></clipPath><clipPath id="51"><path d="M48.36 660.52L532.44 660.52L532.44 660.52L532.44 269.08L532.44 269.08L48.36 269.08z" /></clipPath><clipPath id="52"><path d="M48.36 660.52L532.44 660.52L532.44 660.52L532.44 269.08L532.44 269.08L48.36 269.08z" /></clipPath><clipPath id="53"><path d="M48.36 660.52L532.44 660.52L532.44 660.52L532.44 269.08L532.44 269.08L48.36 269.08z" /></clipPath><clipPath id="54"><path d="M48.36 660.52L532.44 660.52L532.44 660.52L532.44 269.08L532.44 269.08L48.36 269.08z" /></clipPath><clipPath id="55"><path d="M48.36 660.52L532.44 660.52L532.44 660.52L532.44 269.08L532.44 269.08L48.36 269.08z" /></clipPath><clipPath id="56"><path d="M48.36 660.52L532.44 660.52L532.44 660.52L532.44 269.08L532.44 269.08L48.36 269.08z" /></clipPath><clipPath id="57"><path d="M48.36 660.52L532.44 660.52L532.44 660.52L532.44 269.08L532.44 269.08L48.36 269.08z" /></clipPath><clipPath id="58"><path d="M48.36 660.52L532.44 660.52L532.44 660.52L532.44 269.08L532.44 269.08L48.36 269.08z" /></clipPath><clipPath id="59"><path d="M48.36 660.52L532.44 660.52L532.44 660.52L532.44 269.08L532.44 269.08L48.36 269.08z" /></clipPath><clipPath id="60"><path d="M48.36 660.52L532.44 660.52L532.44 660.52L532.44 269.08L532.44 269.08L48.36 269.08z" /></clipPath><clipPath id="61"><path d="M48.36 660.52L532.44 660.52L532.44 660.52L532.44 269.08L532.44 269.08L48.36 269.08z" /></clipPath><clipPath id="62"><path d="M48.36 660.52L532.44 660.52L532.44 660.52L532.44 269.08L532.44 269.08L48.36 269.08z" /></clipPath><clipPath id="63"><path d="M44.76 187.6L541.68 187.6L541.68 187.6L541.68 124.72L541.68 124.72L44.76 124.72z" /></clipPath><clipPath id="64"><path d="M44.76 187.6L541.68 187.6L541.68 187.6L541.68 124.72L541.68 124.72L44.76 124.72z" /></clipPath><clipPath id="65"><path d="M44.76 187.6L541.68 187.6L541.68 187.6L541.68 124.72L541.68 124.72L44.76 124.72z" /></clipPath><clipPath id="66"><path d="M44.76 187.6L541.68 187.6L541.68 187.6L541.68 124.72L541.68 124.72L44.76 124.72z" /></clipPath><clipPath id="67"><path d="M44.76 187.6L541.68 187.6L541.68 187.6L541.68 124.72L541.68 124.72L44.76 124.72z" /></clipPath><clipPath id="68"><path d="M44.76 187.6L541.68 187.6L541.68 187.6L541.68 124.72L541.68 124.72L44.76 124.72z" /></clipPath><clipPath id="69"><path d="M44.76 187.6L541.68 187.6L541.68 187.6L541.68 124.72L541.68 124.72L44.76 124.72z" /></clipPath><clipPath id="70"><path d="M44.76 187.6L541.68 187.6L541.68 187.6L541.68 124.72L541.68 124.72L44.76 124.72z" /></clipPath><clipPath id="71"><path d="M44.76 187.6L541.68 187.6L541.68 187.6L541.68 124.72L541.68 124.72L44.76 124.72z" /></clipPath></defs><g transform="matrix(1.333333 0 0 1.333333 0 0)"><g><g clip-path="url(#1)"><path transform="matrix(1 0 0 -1 0 841)" d="M31.2 26.132C 31.2 28.765 33.334 30.899 35.967 30.899L35.967 30.899L64.383 30.899C 67.016 30.899 69.15 28.765 69.15 26.132L69.15 26.132L69.15 7.0658C 69.15 4.4332 67.016 2.2991 64.383 2.2991L64.383 2.2991L35.967 2.2991C 33.334 2.2991 31.2 4.4332 31.2 7.0658z" stroke="#A6A6A6" stroke-width="1" stroke-dasharray="3,1" fill="none" /><path transform="matrix(1 0 0 -1 0 841)" d="M39.7 58.549C 39.7 63.713 43.886 67.899 49.05 67.899L49.05 67.899L290.6 67.899C 295.76 67.899 299.95 63.713 299.95 58.549L299.95 58.549L299.95 21.149C 299.95 15.985 295.76 11.799 290.6 11.799L290.6 11.799L49.05 11.799C 43.886 11.799 39.7 15.985 39.7 21.149z" stroke="#A6A6A6" stroke-width="1" stroke-dasharray="3,1" fill="none" /><path transform="matrix(1 0 0 -1 0 841)" d="M39.7 802.87C 39.7 805.63 41.939 807.87 44.7 807.87L44.7 807.87L261.15 807.87C 263.91 807.87 266.15 805.63 266.15 802.87L266.15 802.87L266.15 782.87C 266.15 780.11 263.91 777.87 261.15 777.87L261.15 777.87L44.7 777.87C 41.939 777.87 39.7 780.11 39.7 782.87z" stroke="#A6A6A6" stroke-width="1" stroke-dasharray="3,1" fill="none" /><path transform="matrix(1 0 0 -1 0 841)" d="M223.55 818.79C 223.55 824.11 227.86 828.42 233.18 828.42L233.18 828.42L308.42 828.42C 313.74 828.42 318.05 824.11 318.05 818.79L318.05 818.79L318.05 780.3C 318.05 774.98 313.74 770.67 308.42 770.67L308.42 770.67L233.18 770.67C 227.86 770.67 223.55 774.98 223.55 780.3z" stroke="none" fill="#FFFFFF" fill-rule="evenodd" /><path transform="matrix(1 0 0 -1 0 841)" d="M223.55 818.79C 223.55 824.11 227.86 828.42 233.18 828.42L233.18 828.42L308.42 828.42C 313.74 828.42 318.05 824.11 318.05 818.79L318.05 818.79L318.05 780.3C 318.05 774.98 313.74 770.67 308.42 770.67L308.42 770.67L233.18 770.67C 227.86 770.67 223.55 774.98 223.55 780.3z" stroke="#FFFFFF" stroke-width="2" fill="none" /><path transform="matrix(1 0 0 -1 0 841)" d="M15.75 782.85C 15.75 785.01 17.507 786.77 19.675 786.77L19.675 786.77L248.82 786.77C 250.99 786.77 252.75 785.01 252.75 782.85L252.75 782.85L252.75 767.15C 252.75 764.98 250.99 763.22 248.82 763.22L248.82 763.22L19.675 763.22C 17.507 763.22 15.75 764.98 15.75 767.15z" stroke="none" fill="#FFFFFF" fill-rule="evenodd" /><path transform="matrix(1 0 0 -1 0 841)" d="M15.75 782.85C 15.75 785.01 17.507 786.77 19.675 786.77L19.675 786.77L248.82 786.77C 250.99 786.77 252.75 785.01 252.75 782.85L252.75 782.85L252.75 767.15C 252.75 764.98 250.99 763.22 248.82 763.22L248.82 763.22L19.675 763.22C 17.507 763.22 15.75 764.98 15.75 767.15z" stroke="#FFFFFF" stroke-width="2" fill="none" /><g transform="matrix(0.3603 0 0 0.362449 36.48 36.88)"><g transform="matrix(1 0 0 1 0 0)"><image x="0" y="0" xlink:href="img_15.png" width="400" height="49" /></g></g><g clip-path="url(#2)"></g><g clip-path="url(#3)"></g><g transform="matrix(0.3603093 0 0 0.3658536 96.96 18.64001)"><g transform="matrix(1 0 0 1 0 0)"><image x="0" y="0" xlink:href="img_16.png" width="388" height="41" /></g></g><g clip-path="url(#4)"></g><g clip-path="url(#5)"></g><g clip-path="url(#6)"></g><path transform="matrix(1 0 0 -1 0 841)" d="M291 49.149C 291 53.843 294.81 57.649 299.5 57.649L299.5 57.649L339.45 57.649C 344.14 57.649 347.95 53.843 347.95 49.149L347.95 49.149L347.95 15.149C 347.95 10.455 344.14 6.649 339.45 6.649L339.45 6.649L299.5 6.649C 294.81 6.649 291 10.455 291 15.149z" stroke="none" fill="#FFFFFF" fill-rule="evenodd" /><path transform="matrix(1 0 0 -1 0 841)" d="M291 49.149C 291 53.843 294.81 57.649 299.5 57.649L299.5 57.649L339.45 57.649C 344.14 57.649 347.95 53.843 347.95 49.149L347.95 49.149L347.95 15.149C 347.95 10.455 344.14 6.649 339.45 6.649L339.45 6.649L299.5 6.649C 294.81 6.649 291 10.455 291 15.149z" stroke="#FFFFFF" stroke-width="2" fill="none" /><path transform="matrix(1 0 0 -1 0 841)" d="M27.75 75.091C 27.75 76.918 29.231 78.399 31.058 78.399L31.058 78.399L306.44 78.399C 308.27 78.399 309.75 76.918 309.75 75.091L309.75 75.091L309.75 61.857C 309.75 60.03 308.27 58.549 306.44 58.549L306.44 58.549L31.058 58.549C 29.231 58.549 27.75 60.03 27.75 61.857z" stroke="none" fill="#FFFFFF" fill-rule="evenodd" /><path transform="matrix(1 0 0 -1 0 841)" d="M27.75 75.091C 27.75 76.918 29.231 78.399 31.058 78.399L31.058 78.399L306.44 78.399C 308.27 78.399 309.75 76.918 309.75 75.091L309.75 75.091L309.75 61.857C 309.75 60.03 308.27 58.549 306.44 58.549L306.44 58.549L31.058 58.549C 29.231 58.549 27.75 60.03 27.75 61.857z" stroke="#FFFFFF" stroke-width="2" fill="none" /><path transform="matrix(1 0 0 -1 0 841)" d="M36.05 6.5239C 36.05 8.1118 37.337 9.399 38.925 9.399L38.925 9.399L102.88 9.399C 104.46 9.399 105.75 8.1118 105.75 6.5239L105.75 6.5239L105.75 -4.976C 105.75 -6.5638 104.46 -7.851 102.88 -7.851L102.88 -7.851L38.925 -7.851C 37.337 -7.851 36.05 -6.5638 36.05 -4.976z" stroke="none" fill="#FFFFFF" fill-rule="evenodd" /><path transform="matrix(1 0 0 -1 0 841)" d="M36.05 6.5239C 36.05 8.1118 37.337 9.399 38.925 9.399L38.925 9.399L102.88 9.399C 104.46 9.399 105.75 8.1118 105.75 6.5239L105.75 6.5239L105.75 -4.976C 105.75 -6.5638 104.46 -7.851 102.88 -7.851L102.88 -7.851L38.925 -7.851C 37.337 -7.851 36.05 -6.5638 36.05 -4.976z" stroke="#FFFFFF" stroke-width="2" fill="none" /><path transform="matrix(1 0 0 -1 0 841)" d="M36.342 46.099C 37.644 46.099 38.7 45.043 38.7 43.741L38.7 43.741L38.7 -8.4926C 38.7 -9.795 37.644 -10.851 36.342 -10.851L36.342 -10.851L26.908 -10.851C 25.606 -10.851 24.55 -9.795 24.55 -8.4926L24.55 -8.4926L24.55 43.741C 24.55 45.043 25.606 46.099 26.908 46.099z" stroke="none" fill="#FFFFFF" fill-rule="evenodd" /><path transform="matrix(1 0 0 -1 0 841)" d="M36.342 46.099C 37.644 46.099 38.7 45.043 38.7 43.741L38.7 43.741L38.7 -8.4926C 38.7 -9.795 37.644 -10.851 36.342 -10.851L36.342 -10.851L26.908 -10.851C 25.606 -10.851 24.55 -9.795 24.55 -8.4926L24.55 -8.4926L24.55 43.741C 24.55 45.043 25.606 46.099 26.908 46.099z" stroke="#FFFFFF" stroke-width="2" fill="none" /><g transform="matrix(0.3603715 0 0 0.3612632 66.6 810.64)"><g transform="matrix(1 0 0 1 0 0)"><image x="0" y="0" xlink:href="img_17.png" width="646" height="95" /></g></g><g clip-path="url(#7)"><g transform="matrix(0.120049 0 0 0.12 73.824 812.656)"><g transform="matrix(1 0 0 1 0 0)"><image x="0" y="0" xlink:href="img_18.png" width="1838" height="111" /></g></g></g><path transform="matrix(1 0 0 -1 0 841)" d="M43.3 564.14C 43.3 573.19 50.633 580.52 59.679 580.52L59.679 580.52L521.17 580.52C 530.22 580.52 537.55 573.19 537.55 564.14L537.55 564.14L537.55 188.15C 537.55 179.1 530.22 171.77 521.17 171.77L521.17 171.77L59.679 171.77C 50.633 171.77 43.3 179.1 43.3 188.15z" stroke="none" fill="#FFFFFF" fill-rule="evenodd" /><path transform="matrix(1 0 0 -1 0 841)" d="M43.3 564.14C 43.3 573.19 50.633 580.52 59.679 580.52L59.679 580.52L521.17 580.52C 530.22 580.52 537.55 573.19 537.55 564.14L537.55 564.14L537.55 188.15C 537.55 179.1 530.22 171.77 521.17 171.77L521.17 171.77L59.679 171.77C 50.633 171.77 43.3 179.1 43.3 188.15z" stroke="#A6A6A6" stroke-width="0.5" stroke-dasharray="3,1" fill="none" /><g transform="matrix(0.3602679 0 0 0.3602208 48.36 269.08)"><g transform="matrix(1 0 0 1 0 0)"><image x="0" y="0" xlink:href="img_177.png" width="1344" height="1087" /></g></g><g clip-path="url(#8)"></g><g clip-path="url(#9)"></g><g clip-path="url(#10)"></g><g clip-path="url(#11)"></g><g clip-path="url(#12)"></g><g clip-path="url(#13)"></g><g clip-path="url(#14)"></g><g clip-path="url(#15)"></g><g transform="matrix(0.1200259 0 0 0.12 98.304 291.69)"><g transform="matrix(1 0 0 1 0 0)"><image x="0" y="0" xlink:href="img_178.png" width="657" height="104" /></g></g><g transform="matrix(0.12 0 0 0.12 167.3 291.69)"><g transform="matrix(1 0 0 1 0 0)"><image x="0" y="0" xlink:href="img_179.png" width="166" height="104" /></g></g><g transform="matrix(0.12 0 0 0.12 177.26 291.69)"><g transform="matrix(1 0 0 1 0 0)"><image x="0" y="0" xlink:href="img_180.png" width="252" height="104" /></g></g><g transform="matrix(0.12 0 0 0.12 197.45 291.69)"><g transform="matrix(1 0 0 1 0 0)"><image x="0" y="0" xlink:href="img_181.png" width="166" height="104" /></g></g><g transform="matrix(0.1201201 0 0 0.12 207.41 291.69)"><g transform="matrix(1 0 0 1 0 0)"><image x="0" y="0" xlink:href="img_182.png" width="333" height="104" /></g></g><g transform="matrix(0.12 0 0 0.12 237.41 291.69)"><g transform="matrix(1 0 0 1 0 0)"><image x="0" y="0" xlink:href="img_183.png" width="166" height="104" /></g></g><g transform="matrix(0.1201201 0 0 0.12 247.37 291.69)"><g transform="matrix(1 0 0 1 0 0)"><image x="0" y="0" xlink:href="img_184.png" width="333" height="104" /></g></g><g transform="matrix(0.12 0 0 0.12 277.37 291.69)"><g transform="matrix(1 0 0 1 0 0)"><image x="0" y="0" xlink:href="img_185.png" width="166" height="104" /></g></g><g transform="matrix(0.1202521 0 0 0.12 287.33 291.69)"><g transform="matrix(1 0 0 1 0 0)"><image x="0" y="0" xlink:href="img_186.png" width="238" height="104" /></g></g><g transform="matrix(0.12024 0 0 0.12 306.41 291.69)"><g transform="matrix(1 0 0 1 0 0)"><image x="0" y="0" xlink:href="img_187.png" width="250" height="104" /></g></g><g transform="matrix(0.1202892 0 0 0.12 326.45 291.69)"><g transform="matrix(1 0 0 1 0 0)"><image x="0" y="0" xlink:href="img_188.png" width="166" height="104" /></g></g><g transform="matrix(0.12 0 0 0.12 336.43 291.69)"><g transform="matrix(1 0 0 1 0 0)"><image x="0" y="0" xlink:href="img_189.png" width="166" height="104" /></g></g><g transform="matrix(0.1200765 0 0 0.12 346.39 291.69)"><g transform="matrix(1 0 0 1 0 0)"><image x="0" y="0" xlink:href="img_190.png" width="667" height="104" /></g></g><g transform="matrix(0.12 0 0 0.12 416.47 291.69)"><g transform="matrix(1 0 0 1 0 0)"><image x="0" y="0" xlink:href="img_185.png" width="166" height="104" /></g></g><g transform="matrix(0.1201201 0 0 0.12 426.43 291.69)"><g transform="matrix(1 0 0 1 0 0)"><image x="0" y="0" xlink:href="img_191.png" width="333" height="104" /></g></g><g transform="matrix(0.1202892 0 0 0.12 456.43 291.69)"><g transform="matrix(1 0 0 1 0 0)"><image x="0" y="0" xlink:href="img_192.png" width="166" height="104" /></g></g><g transform="matrix(0.1202485 0 0 0.12 466.42 291.69)"><g transform="matrix(1 0 0 1 0 0)"><image x="0" y="0" xlink:href="img_193.png" width="322" height="104" /></g></g><g transform="matrix(0.12 0 0 0.12 495.46 291.69)"><g transform="matrix(1 0 0 1 0 0)"><image x="0" y="0" xlink:href="img_194.png" width="166" height="104" /></g></g><g transform="matrix(0.12024 0 0 0.12 505.42 291.69)"><g transform="matrix(1 0 0 1 0 0)"><image x="0" y="0" xlink:href="img_195.png" width="250" height="104" /></g></g><g transform="matrix(0.1202892 0 0 0.12 55.56 308.01)"><g transform="matrix(1 0 0 1 0 0)"><image x="0" y="0" xlink:href="img_196.png" width="166" height="104" /></g></g><g transform="matrix(0.12 0 0 0.12 65.544 308.01)"><g transform="matrix(1 0 0 1 0 0)"><image x="0" y="0" xlink:href="img_179.png" width="166" height="104" /></g></g><g transform="matrix(0.12006 0 0 0.12 75.504 308.01)"><g transform="matrix(1 0 0 1 0 0)"><image x="0" y="0" xlink:href="img_197.png" width="750" height="104" /></g></g><g transform="matrix(0.12 0 0 0.12 155.54 308.01)"><g transform="matrix(1 0 0 1 0 0)"><image x="0" y="0" xlink:href="img_185.png" width="166" height="104" /></g></g><g transform="matrix(0.1201201 0 0 0.12 165.5 308.01)"><g transform="matrix(1 0 0 1 0 0)"><image x="0" y="0" xlink:href="img_198.png" width="333" height="104" /></g></g><g transform="matrix(0.12 0 0 0.12 195.53 308.01)"><g transform="matrix(1 0 0 1 0 0)"><image x="0" y="0" xlink:href="img_185.png" width="166" height="104" /></g></g><g transform="matrix(0.12024 0 0 0.12 205.49 308.01)"><g transform="matrix(1 0 0 1 0 0)"><image x="0" y="0" xlink:href="img_199.png" width="250" height="104" /></g></g><g transform="matrix(0.12 0 0 0.12 225.53 308.01)"><g transform="matrix(1 0 0 1 0 0)"><image x="0" y="0" xlink:href="img_200.png" width="166" height="104" /></g></g><g transform="matrix(0.12 0 0 0.12 235.49 308.01)"><g transform="matrix(1 0 0 1 0 0)"><image x="0" y="0" xlink:href="img_201.png" width="237" height="104" /></g></g><g transform="matrix(0.12 0 0 0.12 277.25 308.01)"><g transform="matrix(1 0 0 1 0 0)"><image x="0" y="0" xlink:href="img_202.png" width="208" height="104" /></g></g><g transform="matrix(0.1202553 0 0 0.12 297.41 308.01)"><g transform="matrix(1 0 0 1 0 0)"><image x="0" y="0" xlink:href="img_203.png" width="235" height="104" /></g></g><g transform="matrix(0.12 0 0 0.12 316.25 308.01)"><g transform="matrix(1 0 0 1 0 0)"><image x="0" y="0" xlink:href="img_204.png" width="168" height="104" /></g></g><g transform="matrix(0.1202892 0 0 0.12 326.33 308.01)"><g transform="matrix(1 0 0 1 0 0)"><image x="0" y="0" xlink:href="img_205.png" width="166" height="104" /></g></g><g transform="matrix(0.12 0 0 0.12 336.31 308.01)"><g transform="matrix(1 0 0 1 0 0)"><image x="0" y="0" xlink:href="img_206.png" width="166" height="104" /></g></g><g transform="matrix(0.12 0 0 0.12 346.27 308.01)"><g transform="matrix(1 0 0 1 0 0)"><image x="0" y="0" xlink:href="img_207.png" width="168" height="104" /></g></g><g transform="matrix(0.12 0 0 0.12 356.35 308.01)"><g transform="matrix(1 0 0 1 0 0)"><image x="0" y="0" xlink:href="img_208.png" width="166" height="104" /></g></g><g transform="matrix(0.12024 0 0 0.12 366.31 308.01)"><g transform="matrix(1 0 0 1 0 0)"><image x="0" y="0" xlink:href="img_209.png" width="250" height="104" /></g></g><g transform="matrix(0.12 0 0 0.12 386.35 308.01)"><g transform="matrix(1 0 0 1 0 0)"><image x="0" y="0" xlink:href="img_179.png" width="166" height="104" /></g></g><g transform="matrix(0.1201472 0 0 0.12 396.31 308.01)"><g transform="matrix(1 0 0 1 0 0)"><image x="0" y="0" xlink:href="img_210.png" width="489" height="104" /></g></g><g transform="matrix(0.12 0 0 0.12 445.27 308.01)"><g transform="matrix(1 0 0 1 0 0)"><image x="0" y="0" xlink:href="img_192.png" width="166" height="104" /></g></g><g transform="matrix(0.1201166 0 0 0.12 455.23 308.01)"><g transform="matrix(1 0 0 1 0 0)"><image x="0" y="0" xlink:href="img_211.png" width="583" height="104" /></g></g><g transform="matrix(0.12 0 0 0.12 515.26 308.01)"><g transform="matrix(1 0 0 1 0 0)"><image x="0" y="0" xlink:href="img_212.png" width="170" height="104" /></g></g><g transform="matrix(0.1202892 0 0 0.12 55.56 324.33)"><g transform="matrix(1 0 0 1 0 0)"><image x="0" y="0" xlink:href="img_213.png" width="166" height="104" /></g></g><g transform="matrix(0.12 0 0 0.12 65.544 324.33)"><g transform="matrix(1 0 0 1 0 0)"><image x="0" y="0" xlink:href="img_205.png" width="166" height="104" /></g></g><g transform="matrix(0.12 0 0 0.12 75.504 324.33)"><g transform="matrix(1 0 0 1 0 0)"><image x="0" y="0" xlink:href="img_206.png" width="166" height="104" /></g></g><g transform="matrix(0.12 0 0 0.12 85.464 324.33)"><g transform="matrix(1 0 0 1 0 0)"><image x="0" y="0" xlink:href="img_207.png" width="168" height="104" /></g></g><g transform="matrix(0.12 0 0 0.12 95.544 324.33)"><g transform="matrix(1 0 0 1 0 0)"><image x="0" y="0" xlink:href="img_208.png" width="166" height="104" /></g></g><g transform="matrix(0.12 0 0 0.12 105.5 324.33)"><g transform="matrix(1 0 0 1 0 0)"><image x="0" y="0" xlink:href="img_214.png" width="166" height="104" /></g></g><g transform="matrix(0.1201201 0 0 0.12 115.46 324.33)"><g transform="matrix(1 0 0 1 0 0)"><image x="0" y="0" xlink:href="img_215.png" width="333" height="104" /></g></g><g transform="matrix(0.12024 0 0 0.12 145.46 324.33)"><g transform="matrix(1 0 0 1 0 0)"><image x="0" y="0" xlink:href="img_216.png" width="250" height="104" /></g></g><g transform="matrix(0.12 0 0 0.12 165.5 324.33)"><g transform="matrix(1 0 0 1 0 0)"><image x="0" y="0" xlink:href="img_217.png" width="168" height="104" /></g></g><g transform="matrix(0.12 0 0 0.12 175.58 324.33)"><g transform="matrix(1 0 0 1 0 0)"><image x="0" y="0" xlink:href="img_218.png" width="249" height="104" /></g></g><g transform="matrix(0.12 0 0 0.12 195.53 324.33)"><g transform="matrix(1 0 0 1 0 0)"><image x="0" y="0" xlink:href="img_185.png" width="166" height="104" /></g></g><g transform="matrix(0.120096 0 0 0.12 205.49 324.33)"><g transform="matrix(1 0 0 1 0 0)"><image x="0" y="0" xlink:href="img_219.png" width="500" height="104" /></g></g><g transform="matrix(0.12024 0 0 0.12 255.53 324.33)"><g transform="matrix(1 0 0 1 0 0)"><image x="0" y="0" xlink:href="img_220.png" width="250" height="104" /></g></g><g transform="matrix(0.1200482 0 0 0.12 275.57 324.33)"><g transform="matrix(1 0 0 1 0 0)"><image x="0" y="0" xlink:href="img_221.png" width="581" height="104" /></g></g><g transform="matrix(0.12 0 0 0.12 335.35 324.33)"><g transform="matrix(1 0 0 1 0 0)"><image x="0" y="0" xlink:href="img_183.png" width="166" height="104" /></g></g><g transform="matrix(0.1201201 0 0 0.12 345.31 324.33)"><g transform="matrix(1 0 0 1 0 0)"><image x="0" y="0" xlink:href="img_184.png" width="333" height="104" /></g></g><g transform="matrix(0.12 0 0 0.12 375.31 324.33)"><g transform="matrix(1 0 0 1 0 0)"><image x="0" y="0" xlink:href="img_185.png" width="166" height="104" /></g></g><g transform="matrix(0.12024 0 0 0.12 385.27 324.33)"><g transform="matrix(1 0 0 1 0 0)"><image x="0" y="0" xlink:href="img_222.png" width="250" height="104" /></g></g><g transform="matrix(0.12 0 0 0.12 405.31 324.33)"><g transform="matrix(1 0 0 1 0 0)"><image x="0" y="0" xlink:href="img_204.png" width="168" height="104" /></g></g><g transform="matrix(0.12 0 0 0.12 415.39 324.33)"><g transform="matrix(1 0 0 1 0 0)"><image x="0" y="0" xlink:href="img_205.png" width="166" height="104" /></g></g><g transform="matrix(0.12 0 0 0.12 425.35 324.33)"><g transform="matrix(1 0 0 1 0 0)"><image x="0" y="0" xlink:href="img_206.png" width="166" height="104" /></g></g><g transform="matrix(0.120154 0 0 0.12 435.31 324.33)"><g transform="matrix(1 0 0 1 0 0)"><image x="0" y="0" xlink:href="img_223.png" width="500" height="104" /></g></g><g transform="matrix(0.12 0 0 0.12 485.38 324.33)"><g transform="matrix(1 0 0 1 0 0)"><image x="0" y="0" xlink:href="img_224.png" width="166" height="104" /></g></g><g transform="matrix(0.12024 0 0 0.12 495.34 324.33)"><g transform="matrix(1 0 0 1 0 0)"><image x="0" y="0" xlink:href="img_225.png" width="250" height="104" /></g></g><g transform="matrix(0.12 0 0 0.12 515.38 324.33)"><g transform="matrix(1 0 0 1 0 0)"><image x="0" y="0" xlink:href="img_226.png" width="168" height="104" /></g></g><g transform="matrix(0.1200582 0 0 0.12 55.56 340.77)"><g transform="matrix(1 0 0 1 0 0)"><image x="0" y="0" xlink:href="img_227.png" width="498" height="104" /></g></g><g transform="matrix(0.12 0 0 0.12 105.38 340.77)"><g transform="matrix(1 0 0 1 0 0)"><image x="0" y="0" xlink:href="img_213.png" width="166" height="104" /></g></g><g transform="matrix(0.12 0 0 0.12 115.34 340.77)"><g transform="matrix(1 0 0 1 0 0)"><image x="0" y="0" xlink:href="img_205.png" width="166" height="104" /></g></g><g transform="matrix(0.12 0 0 0.12 125.3 340.77)"><g transform="matrix(1 0 0 1 0 0)"><image x="0" y="0" xlink:href="img_228.png" width="168" height="104" /></g></g><g transform="matrix(0.1200686 0 0 0.12 135.38 340.77)"><g transform="matrix(1 0 0 1 0 0)"><image x="0" y="0" xlink:href="img_229.png" width="583" height="104" /></g></g><g transform="matrix(0.12 0 0 0.12 195.41 340.77)"><g transform="matrix(1 0 0 1 0 0)"><image x="0" y="0" xlink:href="img_230.png" width="166" height="104" /></g></g><g transform="matrix(0.12024 0 0 0.12 205.37 340.77)"><g transform="matrix(1 0 0 1 0 0)"><image x="0" y="0" xlink:href="img_231.png" width="250" height="104" /></g></g><g transform="matrix(0.12 0 0 0.12 225.41 340.77)"><g transform="matrix(1 0 0 1 0 0)"><image x="0" y="0" xlink:href="img_232.png" width="166" height="104" /></g></g><g transform="matrix(0.1201201 0 0 0.12 235.37 340.77)"><g transform="matrix(1 0 0 1 0 0)"><image x="0" y="0" xlink:href="img_233.png" width="333" height="104" /></g></g><g transform="matrix(0.12 0 0 0.12 265.37 340.77)"><g transform="matrix(1 0 0 1 0 0)"><image x="0" y="0" xlink:href="img_234.png" width="168" height="104" /></g></g><g transform="matrix(0.12 0 0 0.12 275.45 340.77)"><g transform="matrix(1 0 0 1 0 0)"><image x="0" y="0" xlink:href="img_235.png" width="166" height="104" /></g></g><g transform="matrix(0.12 0 0 0.12 285.41 340.77)"><g transform="matrix(1 0 0 1 0 0)"><image x="0" y="0" xlink:href="img_236.png" width="168" height="104" /></g></g><g transform="matrix(0.12 0 0 0.12 295.49 340.77)"><g transform="matrix(1 0 0 1 0 0)"><image x="0" y="0" xlink:href="img_237.png" width="332" height="104" /></g></g><g transform="matrix(0.1202857 0 0 0.12 325.37 340.77)"><g transform="matrix(1 0 0 1 0 0)"><image x="0" y="0" xlink:href="img_217.png" width="168" height="104" /></g></g><g transform="matrix(0.12 0 0 0.12 335.47 340.77)"><g transform="matrix(1 0 0 1 0 0)"><image x="0" y="0" xlink:href="img_238.png" width="166" height="104" /></g></g><g transform="matrix(0.12 0 0 0.12 345.43 340.77)"><g transform="matrix(1 0 0 1 0 0)"><image x="0" y="0" xlink:href="img_213.png" width="166" height="104" /></g></g><g transform="matrix(0.12 0 0 0.12 355.39 340.77)"><g transform="matrix(1 0 0 1 0 0)"><image x="0" y="0" xlink:href="img_239.png" width="168" height="104" /></g></g><g transform="matrix(0.12 0 0 0.12 365.47 340.77)"><g transform="matrix(1 0 0 1 0 0)"><image x="0" y="0" xlink:href="img_206.png" width="166" height="104" /></g></g><g transform="matrix(0.12 0 0 0.12 375.43 340.77)"><g transform="matrix(1 0 0 1 0 0)"><image x="0" y="0" xlink:href="img_240.png" width="166" height="104" /></g></g><g transform="matrix(0.12 0 0 0.12 385.39 340.77)"><g transform="matrix(1 0 0 1 0 0)"><image x="0" y="0" xlink:href="img_241.png" width="168" height="104" /></g></g><g transform="matrix(0.12 0 0 0.12 395.47 340.77)"><g transform="matrix(1 0 0 1 0 0)"><image x="0" y="0" xlink:href="img_242.png" width="166" height="104" /></g></g><g transform="matrix(0.12 0 0 0.12 405.43 340.77)"><g transform="matrix(1 0 0 1 0 0)"><image x="0" y="0" xlink:href="img_243.png" width="168" height="104" /></g></g><g transform="matrix(0.12 0 0 0.12 415.51 340.77)"><g transform="matrix(1 0 0 1 0 0)"><image x="0" y="0" xlink:href="img_244.png" width="166" height="104" /></g></g><g transform="matrix(0.1201201 0 0 0.12 425.47 340.77)"><g transform="matrix(1 0 0 1 0 0)"><image x="0" y="0" xlink:href="img_245.png" width="333" height="104" /></g></g><g transform="matrix(0.1202892 0 0 0.12 455.47 340.77)"><g transform="matrix(1 0 0 1 0 0)"><image x="0" y="0" xlink:href="img_246.png" width="166" height="104" /></g></g><g transform="matrix(0.12 0 0 0.12 465.46 340.77)"><g transform="matrix(1 0 0 1 0 0)"><image x="0" y="0" xlink:href="img_247.png" width="166" height="104" /></g></g><g transform="matrix(0.1201201 0 0 0.12 475.42 340.77)"><g transform="matrix(1 0 0 1 0 0)"><image x="0" y="0" xlink:href="img_248.png" width="333" height="104" /></g></g><g transform="matrix(0.12 0 0 0.12 505.42 340.77)"><g transform="matrix(1 0 0 1 0 0)"><image x="0" y="0" xlink:href="img_232.png" width="166" height="104" /></g></g><g transform="matrix(0.12 0 0 0.12 515.38 340.77)"><g transform="matrix(1 0 0 1 0 0)"><image x="0" y="0" xlink:href="img_249.png" width="168" height="104" /></g></g><g transform="matrix(0.1201442 0 0 0.12 55.56 357.09)"><g transform="matrix(1 0 0 1 0 0)"><image x="0" y="0" xlink:href="img_250.png" width="416" height="104" /></g></g><g transform="matrix(0.12 0 0 0.12 95.544 357.09)"><g transform="matrix(1 0 0 1 0 0)"><image x="0" y="0" xlink:href="img_251.png" width="249" height="104" /></g></g><g transform="matrix(0.12 0 0 0.12 115.46 357.09)"><g transform="matrix(1 0 0 1 0 0)"><image x="0" y="0" xlink:href="img_252.png" width="166" height="104" /></g></g><g transform="matrix(0.12024 0 0 0.12 125.42 357.09)"><g transform="matrix(1 0 0 1 0 0)"><image x="0" y="0" xlink:href="img_253.png" width="250" height="104" /></g></g><g transform="matrix(0.1200525 0 0 0.12 145.46 357.09)"><g transform="matrix(1 0 0 1 0 0)"><image x="0" y="0" xlink:href="img_254.png" width="1334" height="104" /></g></g><g transform="matrix(0.12 0 0 0.12 295.61 357.09)"><g transform="matrix(1 0 0 1 0 0)"><image x="0" y="0" xlink:href="img_255.png" width="166" height="104" /></g></g><g transform="matrix(0.12 0 0 0.12 305.57 357.09)"><g transform="matrix(1 0 0 1 0 0)"><image x="0" y="0" xlink:href="img_256.png" width="166" height="104" /></g></g><g transform="matrix(0.12 0 0 0.12 315.53 357.09)"><g transform="matrix(1 0 0 1 0 0)"><image x="0" y="0" xlink:href="img_213.png" width="166" height="104" /></g></g><g transform="matrix(0.1202857 0 0 0.12 325.49 357.09)"><g transform="matrix(1 0 0 1 0 0)"><image x="0" y="0" xlink:href="img_239.png" width="168" height="104" /></g></g><g transform="matrix(0.12 0 0 0.12 335.59 357.09)"><g transform="matrix(1 0 0 1 0 0)"><image x="0" y="0" xlink:href="img_206.png" width="166" height="104" /></g></g><g transform="matrix(0.12024 0 0 0.12 345.55 357.09)"><g transform="matrix(1 0 0 1 0 0)"><image x="0" y="0" xlink:href="img_257.png" width="250" height="104" /></g></g><g transform="matrix(0.12 0 0 0.12 365.59 357.09)"><g transform="matrix(1 0 0 1 0 0)"><image x="0" y="0" xlink:href="img_255.png" width="166" height="104" /></g></g><g transform="matrix(0.12 0 0 0.12 375.55 357.09)"><g transform="matrix(1 0 0 1 0 0)"><image x="0" y="0" xlink:href="img_258.png" width="249" height="104" /></g></g><g transform="matrix(0.1202395 0 0 0.12 395.47 357.09)"><g transform="matrix(1 0 0 1 0 0)"><image x="0" y="0" xlink:href="img_259.png" width="334" height="104" /></g></g><g transform="matrix(0.12 0 0 0.12 425.59 357.09)"><g transform="matrix(1 0 0 1 0 0)"><image x="0" y="0" xlink:href="img_260.png" width="166" height="104" /></g></g><g transform="matrix(0.1200637 0 0 0.12 435.55 357.09)"><g transform="matrix(1 0 0 1 0 0)"><image x="0" y="0" xlink:href="img_261.png" width="832" height="104" /></g></g><g transform="matrix(0.1200964 0 0 0.12 55.56 373.41)"><g transform="matrix(1 0 0 1 0 0)"><image x="0" y="0" xlink:href="img_262.png" width="332" height="104" /></g></g><g transform="matrix(0.12 0 0 0.12 85.464 373.41)"><g transform="matrix(1 0 0 1 0 0)"><image x="0" y="0" xlink:href="img_263.png" width="168" height="104" /></g></g><g transform="matrix(0.12 0 0 0.12 95.544 373.41)"><g transform="matrix(1 0 0 1 0 0)"><image x="0" y="0" xlink:href="img_264.png" width="166" height="104" /></g></g><g transform="matrix(0.12 0 0 0.12 105.5 373.41)"><g transform="matrix(1 0 0 1 0 0)"><image x="0" y="0" xlink:href="img_265.png" width="166" height="104" /></g></g><g transform="matrix(0.1202395 0 0 0.12 115.46 373.41)"><g transform="matrix(1 0 0 1 0 0)"><image x="0" y="0" xlink:href="img_266.png" width="334" height="104" /></g></g><g transform="matrix(0.1200481 0 0 0.12 195.29 373.41)"><g transform="matrix(1 0 0 1 0 0)"><image x="0" y="0" xlink:href="img_267.png" width="499" height="104" /></g></g><g transform="matrix(0.12 0 0 0.12 245.21 373.41)"><g transform="matrix(1 0 0 1 0 0)"><image x="0" y="0" xlink:href="img_234.png" width="168" height="104" /></g></g><g transform="matrix(0.12 0 0 0.12 255.29 373.41)"><g transform="matrix(1 0 0 1 0 0)"><image x="0" y="0" xlink:href="img_256.png" width="166" height="104" /></g></g><g transform="matrix(0.12 0 0 0.12 265.25 373.41)"><g transform="matrix(1 0 0 1 0 0)"><image x="0" y="0" xlink:href="img_268.png" width="166" height="104" /></g></g><g transform="matrix(0.1201507 0 0 0.12 275.21 373.41)"><g transform="matrix(1 0 0 1 0 0)"><image x="0" y="0" xlink:href="img_269.png" width="584" height="104" /></g></g><g clip-path="url(#16)"></g><g clip-path="url(#17)"></g><g clip-path="url(#18)"></g><g clip-path="url(#19)"></g><g transform="matrix(0.12024 0 0 0.12 98.304 410.37)"><g transform="matrix(1 0 0 1 0 0)"><image x="0" y="0" xlink:href="img_270.png" width="250" height="104" /></g></g><g transform="matrix(0.12 0 0 0.12 118.34 410.37)"><g transform="matrix(1 0 0 1 0 0)"><image x="0" y="0" xlink:href="img_271.png" width="249" height="104" /></g></g><g transform="matrix(0.1202395 0 0 0.12 138.26 410.37)"><g transform="matrix(1 0 0 1 0 0)"><image x="0" y="0" xlink:href="img_272.png" width="334" height="104" /></g></g><g transform="matrix(0.12 0 0 0.12 168.38 410.37)"><g transform="matrix(1 0 0 1 0 0)"><image x="0" y="0" xlink:href="img_273.png" width="166" height="104" /></g></g><g transform="matrix(0.120384 0 0 0.12 178.34 410.37)"><g transform="matrix(1 0 0 1 0 0)"><image x="0" y="0" xlink:href="img_274.png" width="250" height="104" /></g></g><g transform="matrix(0.12 0 0 0.12 203.45 410.37)"><g transform="matrix(1 0 0 1 0 0)"><image x="0" y="0" xlink:href="img_275.png" width="332" height="104" /></g></g><g transform="matrix(0.12 0 0 0.12 233.33 410.37)"><g transform="matrix(1 0 0 1 0 0)"><image x="0" y="0" xlink:href="img_276.png" width="166" height="104" /></g></g><g transform="matrix(0.12 0 0 0.12 243.29 410.37)"><g transform="matrix(1 0 0 1 0 0)"><image x="0" y="0" xlink:href="img_277.png" width="168" height="104" /></g></g><g transform="matrix(0.1201446 0 0 0.12 324.41 410.37)"><g transform="matrix(1 0 0 1 0 0)"><image x="0" y="0" xlink:href="img_278.png" width="249" height="104" /></g></g><g transform="matrix(0.12 0 0 0.12 344.35 410.37)"><g transform="matrix(1 0 0 1 0 0)"><image x="0" y="0" xlink:href="img_273.png" width="166" height="104" /></g></g><g transform="matrix(0.12 0 0 0.12 354.31 410.37)"><g transform="matrix(1 0 0 1 0 0)"><image x="0" y="0" xlink:href="img_279.png" width="249" height="104" /></g></g><g transform="matrix(0.12 0 0 0.12 379.27 410.37)"><g transform="matrix(1 0 0 1 0 0)"><image x="0" y="0" xlink:href="img_280.png" width="168" height="104" /></g></g><g transform="matrix(0.12024 0 0 0.12 389.35 410.37)"><g transform="matrix(1 0 0 1 0 0)"><image x="0" y="0" xlink:href="img_281.png" width="250" height="104" /></g></g><g transform="matrix(0.12 0 0 0.12 409.39 410.37)"><g transform="matrix(1 0 0 1 0 0)"><image x="0" y="0" xlink:href="img_282.png" width="166" height="104" /></g></g><g transform="matrix(0.12 0 0 0.12 475.42 410.37)"><g transform="matrix(1 0 0 1 0 0)"><image x="0" y="0" xlink:href="img_283.png" width="249" height="104" /></g></g><g transform="matrix(0.12 0 0 0.12 495.34 410.37)"><g transform="matrix(1 0 0 1 0 0)"><image x="0" y="0" xlink:href="img_284.png" width="168" height="104" /></g></g><g transform="matrix(0.12024 0 0 0.12 505.42 410.37)"><g transform="matrix(1 0 0 1 0 0)"><image x="0" y="0" xlink:href="img_285.png" width="250" height="104" /></g></g><g transform="matrix(0.1201442 0 0 0.12 55.56 426.69)"><g transform="matrix(1 0 0 1 0 0)"><image x="0" y="0" xlink:href="img_286.png" width="416" height="104" /></g></g><g transform="matrix(0.1200481 0 0 0.12 95.544 426.69)"><g transform="matrix(1 0 0 1 0 0)"><image x="0" y="0" xlink:href="img_287.png" width="499" height="104" /></g></g><g transform="matrix(0.120154 0 0 0.12 145.46 426.69)"><g transform="matrix(1 0 0 1 0 0)"><image x="0" y="0" xlink:href="img_288.png" width="500" height="104" /></g></g><g transform="matrix(0.12 0 0 0.12 195.53 426.69)"><g transform="matrix(1 0 0 1 0 0)"><image x="0" y="0" xlink:href="img_289.png" width="166" height="104" /></g></g><g transform="matrix(0.1201201 0 0 0.12 205.49 426.69)"><g transform="matrix(1 0 0 1 0 0)"><image x="0" y="0" xlink:href="img_290.png" width="333" height="104" /></g></g><g transform="matrix(0.12024 0 0 0.12 235.49 426.69)"><g transform="matrix(1 0 0 1 0 0)"><image x="0" y="0" xlink:href="img_291.png" width="250" height="104" /></g></g><g transform="matrix(0.12024 0 0 0.12 255.53 426.69)"><g transform="matrix(1 0 0 1 0 0)"><image x="0" y="0" xlink:href="img_292.png" width="250" height="104" /></g></g><g transform="matrix(0.12 0 0 0.12 275.57 426.69)"><g transform="matrix(1 0 0 1 0 0)"><image x="0" y="0" xlink:href="img_293.png" width="166" height="104" /></g></g><g transform="matrix(0.1200721 0 0 0.12 285.53 426.69)"><g transform="matrix(1 0 0 1 0 0)"><image x="0" y="0" xlink:href="img_294.png" width="416" height="104" /></g></g><g transform="matrix(0.1202857 0 0 0.12 325.49 426.69)"><g transform="matrix(1 0 0 1 0 0)"><image x="0" y="0" xlink:href="img_295.png" width="168" height="104" /></g></g><g transform="matrix(0.12 0 0 0.12 335.59 426.69)"><g transform="matrix(1 0 0 1 0 0)"><image x="0" y="0" xlink:href="img_296.png" width="168" height="104" /></g></g><g transform="matrix(0.12 0 0 0.12 75.624 443.01)"><g transform="matrix(1 0 0 1 0 0)"><image x="0" y="0" xlink:href="img_297.png" width="172" height="104" /></g></g><g transform="matrix(0.12 0 0 0.12 85.944 443.01)"><g transform="matrix(1 0 0 1 0 0)"><image x="0" y="0" xlink:href="img_298.png" width="172" height="104" /></g></g><g transform="matrix(0.12 0 0 0.12 96.264 443.01)"><g transform="matrix(1 0 0 1 0 0)"><image x="0" y="0" xlink:href="img_299.png" width="258" height="104" /></g></g><g transform="matrix(0.12 0 0 0.12 116.9 443.01)"><g transform="matrix(1 0 0 1 0 0)"><image x="0" y="0" xlink:href="img_300.png" width="344" height="104" /></g></g><g transform="matrix(0.12 0 0 0.12 153.26 443.01)"><g transform="matrix(1 0 0 1 0 0)"><image x="0" y="0" xlink:href="img_301.png" width="344" height="104" /></g></g><g transform="matrix(0.12 0 0 0.12 241.25 443.01)"><g transform="matrix(1 0 0 1 0 0)"><image x="0" y="0" xlink:href="img_302.png" width="344" height="104" /></g></g><g transform="matrix(0.12 0 0 0.12 272.21 443.01)"><g transform="matrix(1 0 0 1 0 0)"><image x="0" y="0" xlink:href="img_303.png" width="172" height="104" /></g></g><g transform="matrix(0.12 0 0 0.12 282.53 443.01)"><g transform="matrix(1 0 0 1 0 0)"><image x="0" y="0" xlink:href="img_304.png" width="258" height="104" /></g></g><g transform="matrix(0.1202317 0 0 0.12 303.17 443.01)"><g transform="matrix(1 0 0 1 0 0)"><image x="0" y="0" xlink:href="img_305.png" width="259" height="104" /></g></g><g transform="matrix(0.1202791 0 0 0.12 323.93 443.01)"><g transform="matrix(1 0 0 1 0 0)"><image x="0" y="0" xlink:href="img_306.png" width="172" height="104" /></g></g><g transform="matrix(0.12 0 0 0.12 334.27 443.01)"><g transform="matrix(1 0 0 1 0 0)"><image x="0" y="0" xlink:href="img_307.png" width="172" height="104" /></g></g><g transform="matrix(0.12 0 0 0.12 344.59 443.01)"><g transform="matrix(1 0 0 1 0 0)"><image x="0" y="0" xlink:href="img_308.png" width="172" height="104" /></g></g><g transform="matrix(0.12 0 0 0.12 354.91 443.01)"><g transform="matrix(1 0 0 1 0 0)"><image x="0" y="0" xlink:href="img_309.png" width="258" height="104" /></g></g><g transform="matrix(0.1200927 0 0 0.12 375.55 443.01)"><g transform="matrix(1 0 0 1 0 0)"><image x="0" y="0" xlink:href="img_310.png" width="518" height="104" /></g></g><g transform="matrix(0.12 0 0 0.12 427.39 443.01)"><g transform="matrix(1 0 0 1 0 0)"><image x="0" y="0" xlink:href="img_311.png" width="172" height="104" /></g></g><g transform="matrix(0.120093 0 0 0.12 437.71 443.01)"><g transform="matrix(1 0 0 1 0 0)"><image x="0" y="0" xlink:href="img_312.png" width="344" height="104" /></g></g><g transform="matrix(0.12 0 0 0.12 468.7 443.01)"><g transform="matrix(1 0 0 1 0 0)"><image x="0" y="0" xlink:href="img_313.png" width="172" height="104" /></g></g><g transform="matrix(0.12 0 0 0.12 479.02 443.01)"><g transform="matrix(1 0 0 1 0 0)"><image x="0" y="0" xlink:href="img_314.png" width="172" height="104" /></g></g><g transform="matrix(0.1201173 0 0 0.12 494.74 443.01)"><g transform="matrix(1 0 0 1 0 0)"><image x="0" y="0" xlink:href="img_315.png" width="341" height="104" /></g></g><g transform="matrix(0.1202892 0 0 0.12 55.56 459.47)"><g transform="matrix(1 0 0 1 0 0)"><image x="0" y="0" xlink:href="img_282.png" width="166" height="104" /></g></g><g transform="matrix(0.1200984 0 0 0.12 133.34 459.47)"><g transform="matrix(1 0 0 1 0 0)"><image x="0" y="0" xlink:href="img_316.png" width="732" height="104" /></g></g><g transform="matrix(0.12 0 0 0.12 211.49 459.47)"><g transform="matrix(1 0 0 1 0 0)"><image x="0" y="0" xlink:href="img_317.png" width="166" height="104" /></g></g><g transform="matrix(0.1202233 0 0 0.12 221.45 459.47)"><g transform="matrix(1 0 0 1 0 0)"><image x="0" y="0" xlink:href="img_318.png" width="430" height="104" /></g></g><g transform="matrix(0.12 0 0 0.12 264.53 459.47)"><g transform="matrix(1 0 0 1 0 0)"><image x="0" y="0" xlink:href="img_268.png" width="166" height="104" /></g></g><g transform="matrix(0.1201108 0 0 0.12 274.49 459.47)"><g transform="matrix(1 0 0 1 0 0)"><image x="0" y="0" xlink:href="img_319.png" width="361" height="104" /></g></g><g transform="matrix(0.1202581 0 0 0.12 329.83 459.47)"><g transform="matrix(1 0 0 1 0 0)"><image x="0" y="0" xlink:href="img_320.png" width="310" height="104" /></g></g><g transform="matrix(0.12 0 0 0.12 357.79 459.47)"><g transform="matrix(1 0 0 1 0 0)"><image x="0" y="0" xlink:href="img_321.png" width="168" height="104" /></g></g><g transform="matrix(0.12 0 0 0.12 367.87 459.47)"><g transform="matrix(1 0 0 1 0 0)"><image x="0" y="0" xlink:href="img_322.png" width="684" height="104" /></g></g><g clip-path="url(#20)"></g><g clip-path="url(#21)"></g><g transform="matrix(0.12 0 0 0.12 68.904 475.79)"><g transform="matrix(1 0 0 1 0 0)"><image x="0" y="0" xlink:href="img_323.png" width="249" height="104" /></g></g><g transform="matrix(0.12024 0 0 0.12 88.824 475.79)"><g transform="matrix(1 0 0 1 0 0)"><image x="0" y="0" xlink:href="img_324.png" width="250" height="104" /></g></g><g transform="matrix(0.12 0 0 0.12 108.86 475.79)"><g transform="matrix(1 0 0 1 0 0)"><image x="0" y="0" xlink:href="img_244.png" width="166" height="104" /></g></g><g transform="matrix(0.12 0 0 0.12 118.82 475.79)"><g transform="matrix(1 0 0 1 0 0)"><image x="0" y="0" xlink:href="img_325.png" width="168" height="104" /></g></g><g transform="matrix(0.12 0 0 0.12 128.9 475.79)"><g transform="matrix(1 0 0 1 0 0)"><image x="0" y="0" xlink:href="img_326.png" width="166" height="104" /></g></g><g transform="matrix(0.12 0 0 0.12 138.86 475.79)"><g transform="matrix(1 0 0 1 0 0)"><image x="0" y="0" xlink:href="img_327.png" width="166" height="104" /></g></g><g transform="matrix(0.12 0 0 0.12 148.82 475.79)"><g transform="matrix(1 0 0 1 0 0)"><image x="0" y="0" xlink:href="img_328.png" width="282" height="104" /></g></g><g transform="matrix(0.1202892 0 0 0.12 194.18 475.79)"><g transform="matrix(1 0 0 1 0 0)"><image x="0" y="0" xlink:href="img_329.png" width="166" height="104" /></g></g><g transform="matrix(0.12 0 0 0.12 204.17 475.79)"><g transform="matrix(1 0 0 1 0 0)"><image x="0" y="0" xlink:href="img_330.png" width="168" height="104" /></g></g><g transform="matrix(0.12 0 0 0.12 214.25 475.79)"><g transform="matrix(1 0 0 1 0 0)"><image x="0" y="0" xlink:href="img_331.png" width="249" height="104" /></g></g><g transform="matrix(0.12 0 0 0.12 234.17 475.79)"><g transform="matrix(1 0 0 1 0 0)"><image x="0" y="0" xlink:href="img_332.png" width="168" height="104" /></g></g><g transform="matrix(0.12 0 0 0.12 244.25 475.79)"><g transform="matrix(1 0 0 1 0 0)"><image x="0" y="0" xlink:href="img_333.png" width="249" height="104" /></g></g><g transform="matrix(0.12 0 0 0.12 309.89 475.79)"><g transform="matrix(1 0 0 1 0 0)"><image x="0" y="0" xlink:href="img_334.png" width="249" height="104" /></g></g><g transform="matrix(0.12024 0 0 0.12 329.83 475.79)"><g transform="matrix(1 0 0 1 0 0)"><image x="0" y="0" xlink:href="img_335.png" width="250" height="104" /></g></g><g transform="matrix(0.12 0 0 0.12 349.87 475.79)"><g transform="matrix(1 0 0 1 0 0)"><image x="0" y="0" xlink:href="img_282.png" width="166" height="104" /></g></g><g transform="matrix(0.1200721 0 0 0.12 398.11 475.79)"><g transform="matrix(1 0 0 1 0 0)"><image x="0" y="0" xlink:href="img_336.png" width="416" height="104" /></g></g><g transform="matrix(0.12 0 0 0.12 438.07 475.79)"><g transform="matrix(1 0 0 1 0 0)"><image x="0" y="0" xlink:href="img_337.png" width="166" height="104" /></g></g><g transform="matrix(0.1202162 0 0 0.12 448.03 475.79)"><g transform="matrix(1 0 0 1 0 0)"><image x="0" y="0" xlink:href="img_338.png" width="333" height="104" /></g></g><g transform="matrix(0.12 0 0 0.12 478.06 475.79)"><g transform="matrix(1 0 0 1 0 0)"><image x="0" y="0" xlink:href="img_339.png" width="168" height="104" /></g></g><g transform="matrix(0.12 0 0 0.12 488.14 475.79)"><g transform="matrix(1 0 0 1 0 0)"><image x="0" y="0" xlink:href="img_238.png" width="166" height="104" /></g></g><g transform="matrix(0.12 0 0 0.12 498.1 475.79)"><g transform="matrix(1 0 0 1 0 0)"><image x="0" y="0" xlink:href="img_340.png" width="166" height="104" /></g></g><g transform="matrix(0.1202765 0 0 0.12 508.06 475.79)"><g transform="matrix(1 0 0 1 0 0)"><image x="0" y="0" xlink:href="img_341.png" width="217" height="104" /></g></g><g transform="matrix(0.1200931 0 0 0.12 55.56 492.11)"><g transform="matrix(1 0 0 1 0 0)"><image x="0" y="0" xlink:href="img_342.png" width="666" height="104" /></g></g><g transform="matrix(0.12 0 0 0.12 125.54 492.11)"><g transform="matrix(1 0 0 1 0 0)"><image x="0" y="0" xlink:href="img_343.png" width="249" height="104" /></g></g><g transform="matrix(0.12 0 0 0.12 145.46 492.11)"><g transform="matrix(1 0 0 1 0 0)"><image x="0" y="0" xlink:href="img_344.png" width="168" height="104" /></g></g><g transform="matrix(0.12024 0 0 0.12 155.54 492.11)"><g transform="matrix(1 0 0 1 0 0)"><image x="0" y="0" xlink:href="img_345.png" width="250" height="104" /></g></g><g transform="matrix(0.1200546 0 0 0.12 175.58 492.11)"><g transform="matrix(1 0 0 1 0 0)"><image x="0" y="0" xlink:href="img_346.png" width="915" height="104" /></g></g><g transform="matrix(0.12 0 0 0.12 275.45 492.11)"><g transform="matrix(1 0 0 1 0 0)"><image x="0" y="0" xlink:href="img_276.png" width="166" height="104" /></g></g><g transform="matrix(0.12024 0 0 0.12 285.41 492.11)"><g transform="matrix(1 0 0 1 0 0)"><image x="0" y="0" xlink:href="img_347.png" width="250" height="104" /></g></g><g transform="matrix(0.12 0 0 0.12 305.45 492.11)"><g transform="matrix(1 0 0 1 0 0)"><image x="0" y="0" xlink:href="img_348.png" width="249" height="104" /></g></g><g transform="matrix(0.1202857 0 0 0.12 325.37 492.11)"><g transform="matrix(1 0 0 1 0 0)"><image x="0" y="0" xlink:href="img_349.png" width="168" height="104" /></g></g><g transform="matrix(0.1201201 0 0 0.12 335.47 492.11)"><g transform="matrix(1 0 0 1 0 0)"><image x="0" y="0" xlink:href="img_350.png" width="333" height="104" /></g></g><g transform="matrix(0.1200721 0 0 0.12 365.47 492.11)"><g transform="matrix(1 0 0 1 0 0)"><image x="0" y="0" xlink:href="img_351.png" width="416" height="104" /></g></g><g transform="matrix(0.1201201 0 0 0.12 405.43 492.11)"><g transform="matrix(1 0 0 1 0 0)"><image x="0" y="0" xlink:href="img_352.png" width="333" height="104" /></g></g><g transform="matrix(0.1201442 0 0 0.12 435.43 492.11)"><g transform="matrix(1 0 0 1 0 0)"><image x="0" y="0" xlink:href="img_353.png" width="416" height="104" /></g></g><g transform="matrix(0.1201201 0 0 0.12 475.42 492.11)"><g transform="matrix(1 0 0 1 0 0)"><image x="0" y="0" xlink:href="img_354.png" width="333" height="104" /></g></g><g transform="matrix(0.12024 0 0 0.12 505.42 492.11)"><g transform="matrix(1 0 0 1 0 0)"><image x="0" y="0" xlink:href="img_355.png" width="250" height="104" /></g></g><g transform="matrix(0.1201446 0 0 0.12 55.56 508.43)"><g transform="matrix(1 0 0 1 0 0)"><image x="0" y="0" xlink:href="img_356.png" width="249" height="104" /></g></g><g transform="matrix(0.12 0 0 0.12 75.504 508.43)"><g transform="matrix(1 0 0 1 0 0)"><image x="0" y="0" xlink:href="img_276.png" width="166" height="104" /></g></g><g transform="matrix(0.12 0 0 0.12 85.464 508.43)"><g transform="matrix(1 0 0 1 0 0)"><image x="0" y="0" xlink:href="img_357.png" width="219" height="104" /></g></g><g transform="matrix(0.12 0 0 0.12 102.98 508.43)"><g transform="matrix(1 0 0 1 0 0)"><image x="0" y="0" xlink:href="img_348.png" width="249" height="104" /></g></g><g transform="matrix(0.1200763 0 0 0.12 122.9 508.43)"><g transform="matrix(1 0 0 1 0 0)"><image x="0" y="0" xlink:href="img_358.png" width="917" height="104" /></g></g><g transform="matrix(0.12 0 0 0.12 223.01 508.43)"><g transform="matrix(1 0 0 1 0 0)"><image x="0" y="0" xlink:href="img_359.png" width="166" height="104" /></g></g><g transform="matrix(0.1200081 0 0 0.12 232.97 508.43)"><g transform="matrix(1 0 0 1 0 0)"><image x="0" y="0" xlink:href="img_360.png" width="1228" height="104" /></g></g><g transform="matrix(0.12 0 0 0.12 370.51 508.43)"><g transform="matrix(1 0 0 1 0 0)"><image x="0" y="0" xlink:href="img_337.png" width="166" height="104" /></g></g><g transform="matrix(0.1201034 0 0 0.12 380.47 508.43)"><g transform="matrix(1 0 0 1 0 0)"><image x="0" y="0" xlink:href="img_361.png" width="725" height="104" /></g></g><g transform="matrix(0.120384 0 0 0.12 457.87 508.43)"><g transform="matrix(1 0 0 1 0 0)"><image x="0" y="0" xlink:href="img_362.png" width="250" height="104" /></g></g><g transform="matrix(0.12 0 0 0.12 477.94 508.43)"><g transform="matrix(1 0 0 1 0 0)"><image x="0" y="0" xlink:href="img_363.png" width="390" height="104" /></g></g><g transform="matrix(0.12 0 0 0.12 515.38 508.43)"><g transform="matrix(1 0 0 1 0 0)"><image x="0" y="0" xlink:href="img_321.png" width="168" height="104" /></g></g><g transform="matrix(0.1200677 0 0 0.12 55.56 524.87)"><g transform="matrix(1 0 0 1 0 0)"><image x="0" y="0" xlink:href="img_364.png" width="665" height="104" /></g></g><g transform="matrix(0.12 0 0 0.12 125.42 524.87)"><g transform="matrix(1 0 0 1 0 0)"><image x="0" y="0" xlink:href="img_365.png" width="168" height="104" /></g></g><g transform="matrix(0.12 0 0 0.12 135.5 524.87)"><g transform="matrix(1 0 0 1 0 0)"><image x="0" y="0" xlink:href="img_366.png" width="249" height="104" /></g></g><g transform="matrix(0.1200721 0 0 0.12 155.42 524.87)"><g transform="matrix(1 0 0 1 0 0)"><image x="0" y="0" xlink:href="img_367.png" width="416" height="104" /></g></g><g transform="matrix(0.12 0 0 0.12 195.41 524.87)"><g transform="matrix(1 0 0 1 0 0)"><image x="0" y="0" xlink:href="img_240.png" width="166" height="104" /></g></g><g transform="matrix(0.12 0 0 0.12 205.37 524.87)"><g transform="matrix(1 0 0 1 0 0)"><image x="0" y="0" xlink:href="img_368.png" width="168" height="104" /></g></g><g transform="matrix(0.12006 0 0 0.12 215.45 524.87)"><g transform="matrix(1 0 0 1 0 0)"><image x="0" y="0" xlink:href="img_369.png" width="750" height="104" /></g></g><g transform="matrix(0.12 0 0 0.12 295.49 524.87)"><g transform="matrix(1 0 0 1 0 0)"><image x="0" y="0" xlink:href="img_276.png" width="166" height="104" /></g></g><g transform="matrix(0.12 0 0 0.12 305.45 524.87)"><g transform="matrix(1 0 0 1 0 0)"><image x="0" y="0" xlink:href="img_370.png" width="249" height="104" /></g></g><g transform="matrix(0.120384 0 0 0.12 325.37 524.87)"><g transform="matrix(1 0 0 1 0 0)"><image x="0" y="0" xlink:href="img_371.png" width="250" height="104" /></g></g><g transform="matrix(0.12 0 0 0.12 345.43 524.87)"><g transform="matrix(1 0 0 1 0 0)"><image x="0" y="0" xlink:href="img_244.png" width="166" height="104" /></g></g><g transform="matrix(0.12 0 0 0.12 355.39 524.87)"><g transform="matrix(1 0 0 1 0 0)"><image x="0" y="0" xlink:href="img_372.png" width="168" height="104" /></g></g><g transform="matrix(0.12 0 0 0.12 365.47 524.87)"><g transform="matrix(1 0 0 1 0 0)"><image x="0" y="0" xlink:href="img_373.png" width="166" height="104" /></g></g><g transform="matrix(0.1202395 0 0 0.12 375.43 524.87)"><g transform="matrix(1 0 0 1 0 0)"><image x="0" y="0" xlink:href="img_374.png" width="334" height="104" /></g></g><g transform="matrix(0.1200825 0 0 0.12 405.55 524.87)"><g transform="matrix(1 0 0 1 0 0)"><image x="0" y="0" xlink:href="img_375.png" width="582" height="104" /></g></g><g transform="matrix(0.12 0 0 0.12 465.46 524.87)"><g transform="matrix(1 0 0 1 0 0)"><image x="0" y="0" xlink:href="img_376.png" width="166" height="104" /></g></g><g transform="matrix(0.1201201 0 0 0.12 475.42 524.87)"><g transform="matrix(1 0 0 1 0 0)"><image x="0" y="0" xlink:href="img_377.png" width="333" height="104" /></g></g><g transform="matrix(0.12024 0 0 0.12 505.42 524.87)"><g transform="matrix(1 0 0 1 0 0)"><image x="0" y="0" xlink:href="img_378.png" width="250" height="104" /></g></g><g transform="matrix(0.1202892 0 0 0.12 55.56 541.19)"><g transform="matrix(1 0 0 1 0 0)"><image x="0" y="0" xlink:href="img_379.png" width="166" height="104" /></g></g><g transform="matrix(0.12 0 0 0.12 65.544 541.19)"><g transform="matrix(1 0 0 1 0 0)"><image x="0" y="0" xlink:href="img_380.png" width="166" height="104" /></g></g><g transform="matrix(0.1201201 0 0 0.12 75.504 541.19)"><g transform="matrix(1 0 0 1 0 0)"><image x="0" y="0" xlink:href="img_381.png" width="333" height="104" /></g></g><g transform="matrix(0.12 0 0 0.12 105.5 541.19)"><g transform="matrix(1 0 0 1 0 0)"><image x="0" y="0" xlink:href="img_268.png" width="166" height="104" /></g></g><g transform="matrix(0.12006 0 0 0.12 115.46 541.19)"><g transform="matrix(1 0 0 1 0 0)"><image x="0" y="0" xlink:href="img_382.png" width="750" height="104" /></g></g><g transform="matrix(0.12024 0 0 0.12 195.53 541.19)"><g transform="matrix(1 0 0 1 0 0)"><image x="0" y="0" xlink:href="img_383.png" width="250" height="104" /></g></g><g transform="matrix(0.1202429 0 0 0.12 215.57 541.19)"><g transform="matrix(1 0 0 1 0 0)"><image x="0" y="0" xlink:href="img_384.png" width="247" height="104" /></g></g><g transform="matrix(0.12024 0 0 0.12 235.37 541.19)"><g transform="matrix(1 0 0 1 0 0)"><image x="0" y="0" xlink:href="img_335.png" width="250" height="104" /></g></g><g transform="matrix(0.1201201 0 0 0.12 255.41 541.19)"><g transform="matrix(1 0 0 1 0 0)"><image x="0" y="0" xlink:href="img_385.png" width="333" height="104" /></g></g><g transform="matrix(0.1201201 0 0 0.12 285.41 541.19)"><g transform="matrix(1 0 0 1 0 0)"><image x="0" y="0" xlink:href="img_386.png" width="333" height="104" /></g></g><g transform="matrix(0.120154 0 0 0.12 315.41 541.19)"><g transform="matrix(1 0 0 1 0 0)"><image x="0" y="0" xlink:href="img_387.png" width="500" height="104" /></g></g><g transform="matrix(0.12 0 0 0.12 365.47 541.19)"><g transform="matrix(1 0 0 1 0 0)"><image x="0" y="0" xlink:href="img_388.png" width="249" height="104" /></g></g><g transform="matrix(0.12024 0 0 0.12 385.39 541.19)"><g transform="matrix(1 0 0 1 0 0)"><image x="0" y="0" xlink:href="img_389.png" width="250" height="104" /></g></g><g transform="matrix(0.12 0 0 0.12 405.43 541.19)"><g transform="matrix(1 0 0 1 0 0)"><image x="0" y="0" xlink:href="img_390.png" width="168" height="104" /></g></g><g transform="matrix(0.12 0 0 0.12 415.51 541.19)"><g transform="matrix(1 0 0 1 0 0)"><image x="0" y="0" xlink:href="img_391.png" width="166" height="104" /></g></g><g transform="matrix(0.1200655 0 0 0.12 425.47 541.19)"><g transform="matrix(1 0 0 1 0 0)"><image x="0" y="0" xlink:href="img_392.png" width="916" height="104" /></g></g><g transform="matrix(0.1202892 0 0 0.12 55.56 557.51)"><g transform="matrix(1 0 0 1 0 0)"><image x="0" y="0" xlink:href="img_393.png" width="166" height="104" /></g></g><g transform="matrix(0.12 0 0 0.12 65.544 557.51)"><g transform="matrix(1 0 0 1 0 0)"><image x="0" y="0" xlink:href="img_394.png" width="249" height="104" /></g></g><g transform="matrix(0.12 0 0 0.12 85.464 557.51)"><g transform="matrix(1 0 0 1 0 0)"><image x="0" y="0" xlink:href="img_390.png" width="168" height="104" /></g></g><g transform="matrix(0.1200481 0 0 0.12 95.544 557.51)"><g transform="matrix(1 0 0 1 0 0)"><image x="0" y="0" xlink:href="img_395.png" width="499" height="104" /></g></g><g transform="matrix(0.12024 0 0 0.12 145.46 557.51)"><g transform="matrix(1 0 0 1 0 0)"><image x="0" y="0" xlink:href="img_335.png" width="250" height="104" /></g></g><g transform="matrix(0.12024 0 0 0.12 165.5 557.51)"><g transform="matrix(1 0 0 1 0 0)"><image x="0" y="0" xlink:href="img_396.png" width="250" height="104" /></g></g><g transform="matrix(0.12 0 0 0.12 185.54 557.51)"><g transform="matrix(1 0 0 1 0 0)"><image x="0" y="0" xlink:href="img_200.png" width="166" height="104" /></g></g><g transform="matrix(0.120096 0 0 0.12 195.53 557.51)"><g transform="matrix(1 0 0 1 0 0)"><image x="0" y="0" xlink:href="img_397.png" width="500" height="104" /></g></g><g transform="matrix(0.12 0 0 0.12 245.57 557.51)"><g transform="matrix(1 0 0 1 0 0)"><image x="0" y="0" xlink:href="img_276.png" width="166" height="104" /></g></g><g transform="matrix(0.12024 0 0 0.12 255.53 557.51)"><g transform="matrix(1 0 0 1 0 0)"><image x="0" y="0" xlink:href="img_398.png" width="250" height="104" /></g></g><g transform="matrix(0.12024 0 0 0.12 275.57 557.51)"><g transform="matrix(1 0 0 1 0 0)"><image x="0" y="0" xlink:href="img_281.png" width="250" height="104" /></g></g><g transform="matrix(0.12 0 0 0.12 295.61 557.51)"><g transform="matrix(1 0 0 1 0 0)"><image x="0" y="0" xlink:href="img_244.png" width="166" height="104" /></g></g><g transform="matrix(0.12 0 0 0.12 305.57 557.51)"><g transform="matrix(1 0 0 1 0 0)"><image x="0" y="0" xlink:href="img_399.png" width="166" height="104" /></g></g><g transform="matrix(0.12 0 0 0.12 315.53 557.51)"><g transform="matrix(1 0 0 1 0 0)"><image x="0" y="0" xlink:href="img_373.png" width="166" height="104" /></g></g><g transform="matrix(0.1202162 0 0 0.12 325.49 557.51)"><g transform="matrix(1 0 0 1 0 0)"><image x="0" y="0" xlink:href="img_400.png" width="333" height="104" /></g></g><g transform="matrix(0.1200545 0 0 0.12 355.51 557.51)"><g transform="matrix(1 0 0 1 0 0)"><image x="0" y="0" xlink:href="img_401.png" width="917" height="104" /></g></g><g transform="matrix(0.1202892 0 0 0.12 455.59 557.51)"><g transform="matrix(1 0 0 1 0 0)"><image x="0" y="0" xlink:href="img_255.png" width="166" height="104" /></g></g><g transform="matrix(0.1200344 0 0 0.12 465.58 557.51)"><g transform="matrix(1 0 0 1 0 0)"><image x="0" y="0" xlink:href="img_402.png" width="582" height="104" /></g></g><g clip-path="url(#22)"></g><g clip-path="url(#23)"></g><g clip-path="url(#24)"></g><g clip-path="url(#25)"></g><g clip-path="url(#26)"></g><g clip-path="url(#27)"></g><g clip-path="url(#28)"></g><g clip-path="url(#29)"></g><g transform="matrix(0.1200512 0 0 0.12 98.304 594.47)"><g transform="matrix(1 0 0 1 0 0)"><image x="0" y="0" xlink:href="img_403.png" width="469" height="104" /></g></g><g transform="matrix(0.12 0 0 0.12 145.22 594.47)"><g transform="matrix(1 0 0 1 0 0)"><image x="0" y="0" xlink:href="img_179.png" width="166" height="104" /></g></g><g transform="matrix(0.1202844 0 0 0.12 155.18 594.47)"><g transform="matrix(1 0 0 1 0 0)"><image x="0" y="0" xlink:href="img_404.png" width="211" height="104" /></g></g><g transform="matrix(0.12024 0 0 0.12 172.1 594.47)"><g transform="matrix(1 0 0 1 0 0)"><image x="0" y="0" xlink:href="img_405.png" width="250" height="104" /></g></g><g transform="matrix(0.1200541 0 0 0.12 192.14 594.47)"><g transform="matrix(1 0 0 1 0 0)"><image x="0" y="0" xlink:href="img_406.png" width="1110" height="104" /></g></g><g transform="matrix(0.12 0 0 0.12 318.89 594.47)"><g transform="matrix(1 0 0 1 0 0)"><image x="0" y="0" xlink:href="img_407.png" width="168" height="104" /></g></g><g transform="matrix(0.1200369 0 0 0.12 331.99 594.47)"><g transform="matrix(1 0 0 1 0 0)"><image x="0" y="0" xlink:href="img_408.png" width="1083" height="104" /></g></g><g transform="matrix(0.1202857 0 0 0.12 451.99 594.47)"><g transform="matrix(1 0 0 1 0 0)"><image x="0" y="0" xlink:href="img_409.png" width="168" height="104" /></g></g><g transform="matrix(0.1200906 0 0 0.12 462.1 594.47)"><g transform="matrix(1 0 0 1 0 0)"><image x="0" y="0" xlink:href="img_410.png" width="331" height="104" /></g></g><g transform="matrix(0.1201185 0 0 0.12 55.56 610.79)"><g transform="matrix(1 0 0 1 0 0)"><image x="0" y="0" xlink:href="img_411.png" width="785" height="104" /></g></g><g transform="matrix(0.12 0 0 0.12 140.42 610.79)"><g transform="matrix(1 0 0 1 0 0)"><image x="0" y="0" xlink:href="img_412.png" width="168" height="104" /></g></g><g transform="matrix(0.12 0 0 0.12 150.5 610.79)"><g transform="matrix(1 0 0 1 0 0)"><image x="0" y="0" xlink:href="img_413.png" width="166" height="104" /></g></g><g transform="matrix(0.12 0 0 0.12 160.46 610.79)"><g transform="matrix(1 0 0 1 0 0)"><image x="0" y="0" xlink:href="img_414.png" width="168" height="104" /></g></g><g transform="matrix(0.1200825 0 0 0.12 170.54 610.79)"><g transform="matrix(1 0 0 1 0 0)"><image x="0" y="0" xlink:href="img_415.png" width="582" height="104" /></g></g><g transform="matrix(0.12 0 0 0.12 230.45 610.79)"><g transform="matrix(1 0 0 1 0 0)"><image x="0" y="0" xlink:href="img_416.png" width="168" height="104" /></g></g><g transform="matrix(0.1201201 0 0 0.12 240.53 610.79)"><g transform="matrix(1 0 0 1 0 0)"><image x="0" y="0" xlink:href="img_417.png" width="333" height="104" /></g></g><g transform="matrix(0.12024 0 0 0.12 270.53 610.79)"><g transform="matrix(1 0 0 1 0 0)"><image x="0" y="0" xlink:href="img_418.png" width="250" height="104" /></g></g><g transform="matrix(0.1200601 0 0 0.12 290.57 610.79)"><g transform="matrix(1 0 0 1 0 0)"><image x="0" y="0" xlink:href="img_419.png" width="999" height="104" /></g></g><g transform="matrix(0.12 0 0 0.12 400.51 610.79)"><g transform="matrix(1 0 0 1 0 0)"><image x="0" y="0" xlink:href="img_420.png" width="168" height="104" /></g></g><g transform="matrix(0.12 0 0 0.12 410.59 610.79)"><g transform="matrix(1 0 0 1 0 0)"><image x="0" y="0" xlink:href="img_421.png" width="332" height="104" /></g></g><g transform="matrix(0.12024 0 0 0.12 440.47 610.79)"><g transform="matrix(1 0 0 1 0 0)"><image x="0" y="0" xlink:href="img_405.png" width="250" height="104" /></g></g><g transform="matrix(0.12 0 0 0.12 460.54 610.79)"><g transform="matrix(1 0 0 1 0 0)"><image x="0" y="0" xlink:href="img_422.png" width="166" height="104" /></g></g><g transform="matrix(0.12 0 0 0.12 470.5 610.79)"><g transform="matrix(1 0 0 1 0 0)"><image x="0" y="0" xlink:href="img_423.png" width="166" height="104" /></g></g><g transform="matrix(0.12 0 0 0.12 480.46 610.79)"><g transform="matrix(1 0 0 1 0 0)"><image x="0" y="0" xlink:href="img_424.png" width="450" height="104" /></g></g><g transform="matrix(0.1201446 0 0 0.12 55.56 627.23)"><g transform="matrix(1 0 0 1 0 0)"><image x="0" y="0" xlink:href="img_258.png" width="249" height="104" /></g></g><g transform="matrix(0.12 0 0 0.12 75.504 627.23)"><g transform="matrix(1 0 0 1 0 0)"><image x="0" y="0" xlink:href="img_425.png" width="166" height="104" /></g></g><g transform="matrix(0.1201439 0 0 0.12 85.464 627.23)"><g transform="matrix(1 0 0 1 0 0)"><image x="0" y="0" xlink:href="img_426.png" width="417" height="104" /></g></g><g transform="matrix(0.12 0 0 0.12 125.54 627.23)"><g transform="matrix(1 0 0 1 0 0)"><image x="0" y="0" xlink:href="img_427.png" width="166" height="104" /></g></g><g transform="matrix(0.1201201 0 0 0.12 135.5 627.23)"><g transform="matrix(1 0 0 1 0 0)"><image x="0" y="0" xlink:href="img_428.png" width="333" height="104" /></g></g><g transform="matrix(0.12024 0 0 0.12 165.5 627.23)"><g transform="matrix(1 0 0 1 0 0)"><image x="0" y="0" xlink:href="img_429.png" width="250" height="104" /></g></g><g transform="matrix(0.1200482 0 0 0.12 185.54 627.23)"><g transform="matrix(1 0 0 1 0 0)"><image x="0" y="0" xlink:href="img_430.png" width="581" height="104" /></g></g><g transform="matrix(0.1201201 0 0 0.12 245.33 627.23)"><g transform="matrix(1 0 0 1 0 0)"><image x="0" y="0" xlink:href="img_431.png" width="333" height="104" /></g></g><g transform="matrix(0.1200931 0 0 0.12 275.33 627.23)"><g transform="matrix(1 0 0 1 0 0)"><image x="0" y="0" xlink:href="img_432.png" width="666" height="104" /></g></g><g transform="matrix(0.12 0 0 0.12 345.31 627.23)"><g transform="matrix(1 0 0 1 0 0)"><image x="0" y="0" xlink:href="img_376.png" width="166" height="104" /></g></g><g transform="matrix(0.1201201 0 0 0.12 355.27 627.23)"><g transform="matrix(1 0 0 1 0 0)"><image x="0" y="0" xlink:href="img_433.png" width="333" height="104" /></g></g><g transform="matrix(0.12 0 0 0.12 385.27 627.23)"><g transform="matrix(1 0 0 1 0 0)"><image x="0" y="0" xlink:href="img_390.png" width="168" height="104" /></g></g><g transform="matrix(0.12024 0 0 0.12 395.35 627.23)"><g transform="matrix(1 0 0 1 0 0)"><image x="0" y="0" xlink:href="img_434.png" width="250" height="104" /></g></g><g transform="matrix(0.12 0 0 0.12 415.39 627.23)"><g transform="matrix(1 0 0 1 0 0)"><image x="0" y="0" xlink:href="img_380.png" width="166" height="104" /></g></g><g transform="matrix(0.12 0 0 0.12 425.35 627.23)"><g transform="matrix(1 0 0 1 0 0)"><image x="0" y="0" xlink:href="img_435.png" width="249" height="104" /></g></g><g transform="matrix(0.12 0 0 0.12 445.27 627.23)"><g transform="matrix(1 0 0 1 0 0)"><image x="0" y="0" xlink:href="img_436.png" width="168" height="104" /></g></g><g transform="matrix(0.1202892 0 0 0.12 455.35 627.23)"><g transform="matrix(1 0 0 1 0 0)"><image x="0" y="0" xlink:href="img_238.png" width="166" height="104" /></g></g><g transform="matrix(0.12 0 0 0.12 465.34 627.23)"><g transform="matrix(1 0 0 1 0 0)"><image x="0" y="0" xlink:href="img_437.png" width="166" height="104" /></g></g><g transform="matrix(0.12024 0 0 0.12 475.3 627.23)"><g transform="matrix(1 0 0 1 0 0)"><image x="0" y="0" xlink:href="img_438.png" width="250" height="104" /></g></g><g transform="matrix(0.12 0 0 0.12 495.34 627.23)"><g transform="matrix(1 0 0 1 0 0)"><image x="0" y="0" xlink:href="img_439.png" width="166" height="104" /></g></g><g transform="matrix(0.12 0 0 0.12 505.3 627.23)"><g transform="matrix(1 0 0 1 0 0)"><image x="0" y="0" xlink:href="img_440.png" width="168" height="104" /></g></g><g transform="matrix(0.12 0 0 0.12 515.38 627.23)"><g transform="matrix(1 0 0 1 0 0)"><image x="0" y="0" xlink:href="img_436.png" width="168" height="104" /></g></g><g clip-path="url(#30)"><g transform="matrix(0.1201446 0 0 0.12 55.56 643.58)"><g transform="matrix(1 0 0 1 0 0)"><image x="0" y="0" xlink:href="img_441.png" width="249" height="104" /></g></g></g><g clip-path="url(#31)"><g transform="matrix(0.12 0 0 0.12 75.504 643.58)"><g transform="matrix(1 0 0 1 0 0)"><image x="0" y="0" xlink:href="img_365.png" width="168" height="104" /></g></g></g><g clip-path="url(#32)"><g transform="matrix(0.12 0 0 0.12 85.584 643.58)"><g transform="matrix(1 0 0 1 0 0)"><image x="0" y="0" xlink:href="img_442.png" width="581" height="104" /></g></g></g><g clip-path="url(#33)"><g transform="matrix(0.12 0 0 0.12 145.34 643.58)"><g transform="matrix(1 0 0 1 0 0)"><image x="0" y="0" xlink:href="img_284.png" width="168" height="104" /></g></g></g><g clip-path="url(#34)"><g transform="matrix(0.12024 0 0 0.12 155.42 643.58)"><g transform="matrix(1 0 0 1 0 0)"><image x="0" y="0" xlink:href="img_443.png" width="250" height="104" /></g></g></g><g clip-path="url(#35)"><g transform="matrix(0.12 0 0 0.12 175.46 643.58)"><g transform="matrix(1 0 0 1 0 0)"><image x="0" y="0" xlink:href="img_255.png" width="166" height="104" /></g></g></g><g clip-path="url(#36)"><g transform="matrix(0.1201446 0 0 0.12 185.42 643.58)"><g transform="matrix(1 0 0 1 0 0)"><image x="0" y="0" xlink:href="img_444.png" width="249" height="104" /></g></g></g><g clip-path="url(#37)"><g transform="matrix(0.12 0 0 0.12 205.37 643.58)"><g transform="matrix(1 0 0 1 0 0)"><image x="0" y="0" xlink:href="img_234.png" width="168" height="104" /></g></g></g><g clip-path="url(#38)"><g transform="matrix(0.1200442 0 0 0.12 215.45 643.58)"><g transform="matrix(1 0 0 1 0 0)"><image x="0" y="0" xlink:href="img_445.png" width="1583" height="104" /></g></g></g><g clip-path="url(#39)"><g transform="matrix(0.12 0 0 0.12 395.47 643.58)"><g transform="matrix(1 0 0 1 0 0)"><image x="0" y="0" xlink:href="img_446.png" width="166" height="104" /></g></g></g><g clip-path="url(#40)"><g transform="matrix(0.12 0 0 0.12 405.43 643.58)"><g transform="matrix(1 0 0 1 0 0)"><image x="0" y="0" xlink:href="img_447.png" width="332" height="104" /></g></g></g><g clip-path="url(#41)"><g transform="matrix(0.12 0 0 0.12 435.31 643.58)"><g transform="matrix(1 0 0 1 0 0)"><image x="0" y="0" xlink:href="img_234.png" width="168" height="104" /></g></g></g><g clip-path="url(#42)"><g transform="matrix(0.120384 0 0 0.12 445.39 643.58)"><g transform="matrix(1 0 0 1 0 0)"><image x="0" y="0" xlink:href="img_448.png" width="250" height="104" /></g></g></g><g clip-path="url(#43)"><g transform="matrix(0.1201201 0 0 0.12 465.46 643.58)"><g transform="matrix(1 0 0 1 0 0)"><image x="0" y="0" xlink:href="img_431.png" width="333" height="104" /></g></g></g><g clip-path="url(#44)"><g transform="matrix(0.1201201 0 0 0.12 495.46 643.58)"><g transform="matrix(1 0 0 1 0 0)"><image x="0" y="0" xlink:href="img_449.png" width="333" height="104" /></g></g></g><g clip-path="url(#45)"><g transform="matrix(0.1200825 0 0 0.12 55.56 659.9)"><g transform="matrix(1 0 0 1 0 0)"><image x="0" y="0" xlink:href="img_450.png" width="582" height="104" /></g></g></g><g clip-path="url(#46)"><g transform="matrix(0.12 0 0 0.12 115.46 659.9)"><g transform="matrix(1 0 0 1 0 0)"><image x="0" y="0" xlink:href="img_451.png" width="168" height="104" /></g></g></g><g clip-path="url(#47)"><g transform="matrix(0.12 0 0 0.12 125.54 659.9)"><g transform="matrix(1 0 0 1 0 0)"><image x="0" y="0" xlink:href="img_452.png" width="249" height="104" /></g></g></g><g clip-path="url(#48)"><g transform="matrix(0.12 0 0 0.12 145.46 659.9)"><g transform="matrix(1 0 0 1 0 0)"><image x="0" y="0" xlink:href="img_436.png" width="168" height="104" /></g></g></g><g clip-path="url(#49)"><g transform="matrix(0.1201201 0 0 0.12 155.54 659.9)"><g transform="matrix(1 0 0 1 0 0)"><image x="0" y="0" xlink:href="img_453.png" width="333" height="104" /></g></g></g><g clip-path="url(#50)"><g transform="matrix(0.12 0 0 0.12 185.54 659.9)"><g transform="matrix(1 0 0 1 0 0)"><image x="0" y="0" xlink:href="img_454.png" width="166" height="104" /></g></g></g><g clip-path="url(#51)"><g transform="matrix(0.12024 0 0 0.12 195.53 659.9)"><g transform="matrix(1 0 0 1 0 0)"><image x="0" y="0" xlink:href="img_455.png" width="250" height="104" /></g></g></g><g clip-path="url(#52)"><g transform="matrix(0.12 0 0 0.12 215.57 659.9)"><g transform="matrix(1 0 0 1 0 0)"><image x="0" y="0" xlink:href="img_200.png" width="166" height="104" /></g></g></g><g clip-path="url(#53)"><g transform="matrix(0.1200721 0 0 0.12 225.53 659.9)"><g transform="matrix(1 0 0 1 0 0)"><image x="0" y="0" xlink:href="img_456.png" width="416" height="104" /></g></g></g><g clip-path="url(#54)"><g transform="matrix(0.12 0 0 0.12 265.49 659.9)"><g transform="matrix(1 0 0 1 0 0)"><image x="0" y="0" xlink:href="img_284.png" width="168" height="104" /></g></g></g><g clip-path="url(#55)"><g transform="matrix(0.12024 0 0 0.12 275.57 659.9)"><g transform="matrix(1 0 0 1 0 0)"><image x="0" y="0" xlink:href="img_457.png" width="250" height="104" /></g></g></g><g clip-path="url(#56)"><g transform="matrix(0.12 0 0 0.12 295.61 659.9)"><g transform="matrix(1 0 0 1 0 0)"><image x="0" y="0" xlink:href="img_458.png" width="249" height="104" /></g></g></g><g clip-path="url(#57)"><g transform="matrix(0.12 0 0 0.12 315.53 659.9)"><g transform="matrix(1 0 0 1 0 0)"><image x="0" y="0" xlink:href="img_459.png" width="166" height="104" /></g></g></g><g clip-path="url(#58)"></g><g clip-path="url(#59)"><g transform="matrix(0.1201439 0 0 0.12 348.31 659.9)"><g transform="matrix(1 0 0 1 0 0)"><image x="0" y="0" xlink:href="img_460.png" width="417" height="104" /></g></g></g><g clip-path="url(#60)"><g transform="matrix(0.12 0 0 0.12 388.39 659.9)"><g transform="matrix(1 0 0 1 0 0)"><image x="0" y="0" xlink:href="img_255.png" width="166" height="104" /></g></g></g><g clip-path="url(#61)"><g transform="matrix(0.1200686 0 0 0.12 398.35 659.9)"><g transform="matrix(1 0 0 1 0 0)"><image x="0" y="0" xlink:href="img_461.png" width="583" height="104" /></g></g></g><g clip-path="url(#62)"></g><path transform="matrix(1 0 0 -1 0 841)" d="M42.75 715.84C 42.75 719.22 45.496 721.97 48.883 721.97L48.883 721.97L537.62 721.97C 541 721.97 543.75 719.22 543.75 715.84L543.75 715.84L543.75 653.85C 543.75 650.47 541 647.72 537.62 647.72L537.62 647.72L48.883 647.72C 45.496 647.72 42.75 650.47 42.75 653.85z" stroke="#A6A6A6" stroke-width="0.5" stroke-dasharray="4,3" fill="none" /><g transform="matrix(0.360087 0 0 0.3613793 44.76 124.72)"><g transform="matrix(1 0 0 1 0 0)"><image x="0" y="0" xlink:href="img_462.png" width="1380" height="174" /></g></g><g clip-path="url(#63)"></g><g clip-path="url(#64)"></g><g clip-path="url(#65)"></g><g clip-path="url(#66)"></g><g clip-path="url(#67)"></g><g clip-path="url(#68)"></g><g clip-path="url(#69)"></g><g clip-path="url(#70)"></g><g clip-path="url(#71)"></g><path transform="matrix(1 0 0 -1 0 841)" d="M-60 775.49C -60 779.29 -56.922 782.37 -53.125 782.37L-53.125 782.37L110.12 782.37C 113.92 782.37 117 779.29 117 775.49L117 775.49L117 748C 117 744.2 113.92 741.12 110.12 741.12L110.12 741.12L-53.125 741.12C -56.922 741.12 -60 744.2 -60 748z" stroke="none" fill="#F2F2F2" fill-rule="evenodd" /><path transform="matrix(1 0 0 -1 0 841)" d="M-60 775.49C -60 779.29 -56.922 782.37 -53.125 782.37L-53.125 782.37L110.12 782.37C 113.92 782.37 117 779.29 117 775.49L117 775.49L117 748C 117 744.2 113.92 741.12 110.12 741.12L110.12 741.12L-53.125 741.12C -56.922 741.12 -60 744.2 -60 748z" stroke="#000000" stroke-width="1" stroke-dasharray="4,3" fill="none" /></g></g></g></svg>